<svg width="96" height="36" viewBox="0 0 96 36" fill="none" xmlns="http://www.w3.org/2000/svg">
<path d="M39.3942 12H33.4456C32.6286 12 31.9648 12.671 31.9648 13.4968C31.9648 14.3226 32.6286 14.9935 33.4456 14.9935H33.452C34.269 14.9935 34.9328 15.6645 34.9328 16.4903V25.4903C34.9328 26.3161 35.5966 26.9871 36.4135 26.9871C37.2305 26.9871 37.8943 26.3161 37.8943 25.4903V16.4903C37.9007 15.6645 38.5645 15 39.3751 15H39.3815C40.1985 15 40.8622 14.329 40.8622 13.5032C40.8622 12.6774 40.2112 12 39.3942 12Z" fill="#FB356D"/>
<path d="M18.6048 12H11.9222C11.1052 12 10.4414 12.671 10.4414 13.4968V19.4968V25.4968C10.4414 26.3226 11.1052 26.9935 11.9222 26.9935C12.7392 26.9935 13.403 26.3226 13.403 25.4968V22.4968C13.403 21.671 14.0667 21 14.8837 21H15.6369C16.4539 21 17.1177 21.671 17.1177 22.4968V25.4968C17.1177 26.3226 17.7815 26.9935 18.5984 26.9935C19.4154 26.9935 20.0792 26.3226 20.0792 25.4968V13.4968C20.092 12.671 19.4282 12 18.6048 12ZM15.6369 18H14.8837C14.0667 18 13.403 17.329 13.403 16.5032C13.403 15.6774 14.0667 15.0065 14.8837 15.0065H15.6369C16.4539 15.0065 17.1177 15.6774 17.1177 16.5032C17.124 17.329 16.4602 18 15.6369 18Z" fill="#FB356D"/>
<path d="M7.4294 12H1.48077C0.663795 12 0 12.671 0 13.4968V25.4968C0 26.3226 0.663795 26.9935 1.48077 26.9935C2.29775 26.9935 2.96155 26.3226 2.96155 25.4968V22.4968C2.96155 21.671 3.62534 21 4.44232 21H5.78906C6.60604 21 7.26984 20.329 7.26984 19.5032C7.26984 18.6774 6.60604 18.0065 5.78906 18.0065H4.4487C3.63173 18.0065 2.96793 17.3355 2.96793 16.5097C2.96793 15.6839 3.63173 15.0129 4.4487 15.0129H7.42302C8.24 15.0129 8.90379 14.3419 8.90379 13.5161C8.90379 12.6903 8.24638 12 7.4294 12Z" fill="#FB356D"/>
<path d="M28.9972 16.7671C29.8142 16.7671 30.478 16.0962 30.478 15.2704V13.5026C30.478 12.6768 29.8142 12.0059 28.9972 12.0059H23.055C22.238 12.0059 21.5742 12.6768 21.5742 13.5026C21.5742 17.122 23.4635 19.0317 24.9826 20.5607C25.6463 21.2252 26.2399 21.8317 26.6867 22.522C27.1909 23.3413 26.6676 23.9994 25.857 23.9994H25.6017C24.7847 23.9994 24.5358 23.9994 24.5358 23.6059V23.6381C24.4847 22.8575 23.8464 22.2381 23.055 22.2381C22.238 22.2381 21.5742 22.9091 21.5742 23.7349V25.5026C21.5742 26.3284 22.238 26.9994 23.055 26.9994H28.9972C29.8142 26.9994 30.478 26.3284 30.478 25.5026C30.478 21.8833 28.5887 19.9736 27.0697 18.4446C26.4059 17.7801 25.8123 17.1736 25.3655 16.4833C24.8613 15.6639 25.3847 15.0059 26.1953 15.0059H26.4506C27.2675 15.0059 27.5165 15.0059 27.5165 15.3994V15.3671C27.5675 16.1478 28.2058 16.7671 28.9972 16.7671Z" fill="#FB356D"/>
<path d="M71.9823 14.6533C70.9036 13.0146 69.276 12.1113 67.4059 12.1113H63.6976C62.8806 12.1113 62.2168 12.7823 62.2168 13.6081V25.6081C62.2168 26.4339 62.8806 27.1049 63.6976 27.1049H67.4059C69.276 27.1049 70.8972 26.2017 71.9759 24.5565C72.8567 23.221 73.3354 21.4597 73.3354 19.5952C73.3481 17.7436 72.8631 15.9823 71.9823 14.6533ZM67.4123 24.1113H66.6719C65.8549 24.1113 65.1911 23.4404 65.1911 22.6146V16.6146C65.1911 15.7887 65.8549 15.1178 66.6719 15.1178H67.4123C68.2931 15.1178 68.9824 15.5113 69.5185 16.3242C70.0675 17.1565 70.3802 18.35 70.3802 19.6146C70.3802 21.1629 69.7547 24.1113 67.4123 24.1113Z" fill="#FB356D"/>
<path d="M94.1561 12.002H87.4671C86.6501 12.002 85.9863 12.6729 85.9863 13.4987V19.4987V25.4987C85.9863 26.3245 86.6501 26.9955 87.4671 26.9955C88.2841 26.9955 88.9479 26.3245 88.9479 25.4987V22.4987C88.9479 21.6729 89.6117 21.002 90.4287 21.002H91.1818C91.9988 21.002 92.6626 21.6729 92.6626 22.4987V25.4987C92.6626 26.3245 93.3264 26.9955 94.1434 26.9955C94.9603 26.9955 95.6241 26.3245 95.6241 25.4987V13.4987C95.6369 12.6729 94.9731 12.002 94.1561 12.002ZM91.1882 18.002H90.435C89.6181 18.002 88.9543 17.331 88.9543 16.5052C88.9543 15.6794 89.6181 15.0084 90.435 15.0084H91.1882C92.0052 15.0084 92.669 15.6794 92.669 16.5052C92.669 17.331 92.0052 18.002 91.1882 18.002Z" fill="#FB356D"/>
<path d="M83.0047 12.0012C82.1877 12.0012 81.5239 12.6722 81.5239 13.498V16.9173C81.5239 17.3302 81.192 17.6657 80.7835 17.6657C80.5027 17.6657 80.2601 17.5109 80.1325 17.2786L77.6241 12.7818C77.6241 12.7818 77.6241 12.7818 77.6241 12.7754L77.6113 12.756C77.605 12.7431 77.5986 12.7367 77.5922 12.7238C77.573 12.698 77.5603 12.6657 77.5411 12.6399C77.5284 12.6205 77.5156 12.6012 77.5028 12.5818C77.4901 12.5625 77.4709 12.5431 77.4582 12.5238C77.439 12.5044 77.4199 12.4851 77.4007 12.4592C77.3879 12.4463 77.3752 12.427 77.3624 12.4141C77.3433 12.3947 77.3177 12.3754 77.2986 12.356C77.2858 12.3431 77.2731 12.3302 77.2539 12.3173C77.2348 12.298 77.2092 12.2851 77.1901 12.2657C77.1709 12.2528 77.1582 12.2399 77.139 12.227C77.1199 12.2141 77.0943 12.2012 77.0752 12.1883C77.0561 12.1754 77.0305 12.1625 77.0114 12.1496C76.9922 12.1367 76.9731 12.1302 76.9539 12.1238C76.9284 12.1109 76.9029 12.098 76.8773 12.0915C76.8582 12.0851 76.839 12.0786 76.8263 12.0722C76.8007 12.0592 76.7752 12.0528 76.7433 12.0463C76.7242 12.0399 76.705 12.0334 76.6859 12.0334C76.6603 12.027 76.6348 12.0205 76.6029 12.0141C76.5774 12.0076 76.5582 12.0076 76.5327 12.0012C76.5071 11.9947 76.488 11.9947 76.4625 11.9947C76.4306 11.9947 76.3986 11.9883 76.3667 11.9883C76.354 11.9883 76.3412 11.9883 76.3284 11.9883H76.3221C76.2838 11.9883 76.2518 11.9883 76.2135 11.9947C76.2008 11.9947 76.188 11.9947 76.1752 11.9947C76.1433 12.0012 76.1114 12.0012 76.0795 12.0076C76.0604 12.0076 76.0476 12.0141 76.0284 12.0141C76.0029 12.0205 75.9838 12.027 75.9582 12.0334C75.9327 12.0399 75.9072 12.0463 75.8816 12.0528C75.8689 12.0592 75.8561 12.0657 75.8434 12.0657C75.8114 12.0786 75.7795 12.0915 75.7476 12.1044C75.7348 12.1109 75.7285 12.1173 75.7157 12.1173C75.6838 12.1302 75.6455 12.1496 75.6136 12.1689C75.6136 12.1689 75.6072 12.1689 75.6072 12.1754C75.5944 12.1818 75.588 12.1883 75.5753 12.1947C75.5497 12.2141 75.5178 12.227 75.4923 12.2463C75.4732 12.2592 75.454 12.2722 75.4349 12.2851C75.4157 12.298 75.3966 12.3173 75.3774 12.3302C75.3583 12.3496 75.3391 12.3689 75.3136 12.3883C75.3008 12.4012 75.2817 12.4141 75.2689 12.4334C75.2498 12.4528 75.2306 12.4786 75.2115 12.498C75.1987 12.5109 75.1859 12.5302 75.1732 12.5431C75.154 12.5625 75.1413 12.5883 75.1221 12.6076C75.1093 12.627 75.0966 12.6399 75.0838 12.6592C75.0711 12.6786 75.0583 12.7044 75.0455 12.7238C75.0328 12.7431 75.02 12.7689 75.0072 12.7883C74.9945 12.8076 74.9881 12.827 74.9817 12.8463C74.9689 12.8722 74.9562 12.898 74.9498 12.9238C74.9434 12.9431 74.937 12.9625 74.9306 12.9754C74.9179 13.0012 74.9115 13.027 74.9051 13.0592C74.8987 13.0786 74.8923 13.098 74.8923 13.1173C74.886 13.1431 74.8796 13.1689 74.8732 13.2012C74.8668 13.227 74.8668 13.2528 74.8604 13.2722C74.8604 13.298 74.854 13.3173 74.854 13.3431C74.854 13.3754 74.8477 13.4076 74.8477 13.4399C74.8477 13.4528 74.8477 13.4657 74.8477 13.4786V13.498C74.8477 13.498 74.8477 13.498 74.8477 13.5044V25.4786C74.8477 26.3044 75.5115 26.9754 76.3284 26.9754C77.1454 26.9754 77.8092 26.3044 77.8092 25.4786V22.0592C77.8092 21.6463 78.1411 21.3109 78.5496 21.3109C78.8304 21.3109 79.073 21.4657 79.2006 21.698L81.709 26.1947C81.709 26.1947 81.709 26.1947 81.709 26.2012L81.7218 26.2205C81.7409 26.2528 81.7601 26.2851 81.7792 26.3173C81.7856 26.3238 81.792 26.3302 81.7984 26.3431C81.8175 26.3754 81.843 26.4012 81.8622 26.427C81.8686 26.4334 81.875 26.4399 81.8813 26.4463C81.9388 26.5173 82.0026 26.5818 82.0664 26.6334C82.0728 26.6399 82.0728 26.6399 82.0792 26.6463C82.1111 26.6722 82.143 26.698 82.1813 26.7238C82.1813 26.7238 82.1877 26.7238 82.1877 26.7302C82.226 26.756 82.2579 26.7754 82.2962 26.7947C82.309 26.8012 82.3154 26.8076 82.3281 26.8141C82.36 26.827 82.3856 26.8463 82.4175 26.8592C82.4302 26.8657 82.4366 26.8722 82.4494 26.8722C82.4877 26.8851 82.5196 26.898 82.5579 26.9109C82.5707 26.9173 82.5834 26.9173 82.6026 26.9238C82.6345 26.9302 82.6664 26.9431 82.6983 26.9496C82.7111 26.9496 82.7175 26.956 82.7302 26.956C82.7749 26.9625 82.8132 26.9689 82.8579 26.9754C82.8706 26.9754 82.877 26.9754 82.8898 26.9754C82.9345 26.9818 82.9792 26.9818 83.0302 26.9818C83.0749 26.9818 83.126 26.9818 83.1706 26.9754C83.177 26.9754 83.1834 26.9754 83.1898 26.9754C83.2345 26.9689 83.2791 26.9625 83.3238 26.956C83.3302 26.956 83.3366 26.956 83.343 26.9496C83.3813 26.9431 83.4196 26.9302 83.4515 26.9238C83.4579 26.9238 83.4706 26.9173 83.477 26.9173C83.5153 26.9044 83.5536 26.8915 83.5919 26.8722C83.6047 26.8657 83.6174 26.8592 83.6302 26.8528C83.6557 26.8399 83.6812 26.827 83.7068 26.8141C83.7195 26.8076 83.7323 26.8012 83.7451 26.7947C83.7451 26.7947 83.7515 26.7947 83.7515 26.7883C83.7642 26.7818 83.7706 26.7754 83.7834 26.7689C83.8089 26.7496 83.8408 26.7367 83.8663 26.7173C83.8855 26.7044 83.9046 26.6915 83.9238 26.6786C83.9429 26.6657 83.9621 26.6463 83.9812 26.6334C84.0004 26.6141 84.0195 26.5947 84.0451 26.5754C84.0578 26.5625 84.077 26.5496 84.0897 26.5302C84.1089 26.5109 84.128 26.4851 84.1472 26.4657C84.1599 26.4528 84.1727 26.4334 84.1855 26.4205C84.2046 26.4012 84.2174 26.3754 84.2365 26.356C84.2493 26.3367 84.2621 26.3238 84.2748 26.3044C84.2876 26.2851 84.3004 26.2592 84.3131 26.2399C84.3259 26.2205 84.3387 26.1947 84.3514 26.1754C84.3642 26.156 84.3706 26.1367 84.377 26.1173C84.3897 26.0915 84.4025 26.0657 84.4089 26.0399C84.4153 26.0205 84.4216 26.0012 84.428 25.9883C84.4408 25.9625 84.4472 25.9367 84.4535 25.9044C84.4599 25.8851 84.4663 25.8657 84.4663 25.8463C84.4727 25.8205 84.4791 25.7947 84.4855 25.7625C84.4918 25.7367 84.4918 25.7109 84.4982 25.6915C84.4982 25.6657 84.5046 25.6463 84.5046 25.6205C84.5046 25.5883 84.511 25.556 84.511 25.5238C84.511 25.5109 84.511 25.498 84.511 25.4851V25.4657C84.511 25.4657 84.511 25.4657 84.511 25.4592V13.498C84.4918 12.6722 83.828 12.0012 83.0047 12.0012Z" fill="#FB356D"/>
<path d="M51.7684 3H53.1854H57.0405C57.8575 3 58.5212 2.32903 58.5212 1.50323C58.5212 0.677419 57.8638 0 57.0405 0H51.762C50.945 0 50.2812 0.670968 50.2812 1.49677C50.2812 2.32258 50.945 3 51.7684 3Z" fill="#FB356D"/>
<path d="M53.1857 6H52.5921C51.7751 6 51.1113 6.67097 51.1113 7.49677C51.1113 8.32258 51.7751 8.99355 52.5921 8.99355H53.6325H58.0812C58.8982 8.99355 59.5619 8.32258 59.5619 7.49677C59.5619 6.67097 58.9045 6 58.0812 6H53.1857Z" fill="#FB356D"/>
<path d="M53.6321 12H51.762C50.945 12 50.2812 12.671 50.2812 13.4968C50.2812 14.3226 50.945 14.9935 51.762 14.9935H55.7065C56.5235 14.9935 57.1873 14.3226 57.1873 13.4968C57.1873 12.671 56.5299 12 55.7065 12H53.6321Z" fill="#FB356D"/>
<path d="M46.8043 23.9994C47.6213 23.9994 48.2851 23.3284 48.2851 22.5026C48.2851 21.6768 47.6213 21.0059 46.8043 21.0059H45.764C44.947 21.0059 44.2832 21.6768 44.2832 22.5026C44.2832 23.3284 44.947 23.9994 45.764 23.9994H46.8043Z" fill="#FB356D"/>
<path d="M47.4428 28.4968C47.4428 27.671 46.779 27 45.962 27H44.2132C43.3962 27 42.7324 27.671 42.7324 28.4968C42.7324 29.3226 43.3962 29.9935 44.2132 29.9935H45.9557C46.779 30 47.4428 29.329 47.4428 28.4968Z" fill="#FB356D"/>
<path d="M46.8033 33H46.1331C45.3161 33 44.6523 33.671 44.6523 34.4968C44.6523 35.3226 45.3161 36 46.1395 36H46.8097C47.6267 36 48.2905 35.329 48.2905 34.5032C48.2905 33.6774 47.6267 33 46.8033 33Z" fill="#FB356D"/>
<path d="M51.4959 16.7484C50.8002 16.2839 50.1874 15.8258 49.6385 15.3742C49.23 15.0258 49.0067 14.7355 49.262 14.3677C49.4343 14.1226 49.5428 13.8194 49.5428 13.4968C49.5428 12.671 48.879 12 48.062 12H47.8514H47.5578C46.7408 12 46.077 11.329 46.077 10.5032C46.077 9.67742 46.7408 9.00645 47.5578 9.00645H47.6471H48.8918C49.7087 9.00645 50.3725 8.33548 50.3725 7.50968C50.3725 6.68387 49.7024 6 48.8854 6H48.2982H48.1386C47.3216 6 46.6578 5.32903 46.6578 4.49677C46.6578 3.66452 47.3216 3 48.1386 3H48.1514V2.99355C48.9237 2.94194 49.5364 2.29032 49.5364 1.49677C49.5364 0.670968 48.8726 0 48.0556 0H46.1345H46.1281C46.0962 0 46.0579 0 46.026 0.00645161C46.0068 0.00645161 45.994 0.00645161 45.9749 0.0129032C45.9494 0.0129032 45.9302 0.0193548 45.9047 0.0258065C45.8792 0.0322581 45.8536 0.0322581 45.8217 0.0387097C45.8153 0.0387097 45.8089 0.0387097 45.8026 0.0451613C45.3175 0.154839 44.9218 0.509677 44.743 0.974194C44.6218 1.27742 44.4941 1.5871 44.3665 1.90968C43.4155 4.23226 42.3304 6.86452 42.7389 9.85806C43.1984 13.271 45.5281 16.3484 49.8492 19.2581C50.1619 19.471 50.4619 19.6774 50.7555 19.8903C51.5086 20.4452 51.3299 21.0129 50.9278 21.0129H50.5193C49.7024 21.0129 49.0386 21.6839 49.0386 22.5097C49.0386 23.3355 49.7024 24.0065 50.5193 24.0065H52.9511H54.234C55.051 24.0065 55.7148 24.6774 55.7148 25.5032C55.7148 26.329 55.051 27 54.234 27H54.0362H49.6768C48.8599 27 48.1961 27.671 48.1961 28.4968C48.1961 29.3226 48.8599 29.9935 49.6768 29.9935H54.2532H54.751C55.568 29.9935 56.2318 30.6645 56.2318 31.4903C56.2318 32.3161 55.568 32.9871 54.751 32.9871H53.0596H50.5193C49.7024 32.9871 49.0386 33.6581 49.0386 34.4839C49.0386 35.3097 49.7024 35.9806 50.5193 35.9806H57.0169C57.0233 35.9806 57.0233 35.9806 57.0296 35.9806C57.0743 35.9806 57.1254 35.9806 57.1701 35.9742C57.1828 35.9742 57.1892 35.9742 57.202 35.9677C57.2339 35.9613 57.2722 35.9613 57.3041 35.9548C57.3169 35.9548 57.336 35.9484 57.3488 35.9484C57.3743 35.9419 57.4062 35.9355 57.4317 35.929C57.4509 35.9226 57.4637 35.9226 57.4828 35.9161C57.5147 35.9032 57.5466 35.8968 57.5785 35.8839C57.5977 35.8774 57.6232 35.8645 57.6424 35.8581C57.6679 35.8452 57.6934 35.8323 57.719 35.8194C57.7381 35.8129 57.7509 35.8 57.77 35.7935C57.7956 35.7806 57.8147 35.7677 57.8338 35.7548C57.8466 35.7419 57.8658 35.7355 57.8785 35.7226C57.9041 35.7032 57.9232 35.6903 57.9487 35.671C57.9615 35.6645 57.9679 35.6516 57.9807 35.6452C58.0126 35.6194 58.0445 35.5871 58.0764 35.5613C58.1083 35.529 58.1402 35.4968 58.1721 35.4581C58.1785 35.4516 58.1785 35.4516 58.1849 35.4452C58.2104 35.4129 58.2296 35.3806 58.2551 35.3484C58.2615 35.3355 58.2679 35.329 58.2743 35.3161C58.2934 35.2903 58.3062 35.2645 58.3189 35.2387C58.3253 35.2258 58.3381 35.2065 58.3445 35.1935C58.3572 35.1677 58.37 35.1484 58.3764 35.1226C58.3828 35.1032 58.3955 35.0839 58.4019 35.0645C58.4083 35.0452 58.4211 35.0194 58.4274 35C58.4338 34.9806 58.4402 34.9613 58.4466 34.9355C58.4466 34.9355 58.4466 34.9355 58.4466 34.929L58.5104 34.7161C59.8891 30.0645 61.7847 23.6839 51.4959 16.7484Z" fill="#FB356D"/>
</svg>
