<svg width="1440" height="604" viewBox="0 0 1440 604" fill="none" xmlns="http://www.w3.org/2000/svg">
<path d="M-115.16 485.237C-115.16 485.237 384.22 -175.717 638.421 46.7683C892.622 269.254 1395.72 745.81 1596.85 569.772" stroke="#B72762" stroke-miterlimit="10"/>
<path d="M-115.16 475.111C-115.16 475.111 58.482 264.702 251.866 124.058C386.767 25.2162 533.238 -33.6798 640.119 53.3637C744.665 138.549 889.332 263.68 1036.23 374.319C1255.3 538.559 1477.34 662.575 1601.52 559.647" stroke="#B12B66" stroke-miterlimit="10"/>
<path d="M-115.16 464.986C-115.16 464.986 61.2415 271.576 254.413 132.79C388.041 36.7356 533.344 -21.9746 641.711 59.9596C748.168 140.5 894.426 259.593 1040.9 368.002C1261.03 529.548 1477.76 650.313 1606.08 549.428" stroke="#AB2E69" stroke-miterlimit="10"/>
<path d="M-115.16 454.86C-115.16 454.86 63.6827 278.172 256.96 141.615C389.209 48.1618 533.45 -10.2697 643.409 66.6481C751.989 142.637 899.309 256.063 1045.67 361.778C1266.33 521.188 1478.29 638.237 1610.86 539.303" stroke="#A5326D" stroke-miterlimit="10"/>
<path d="M-115.16 444.734C-115.16 444.734 66.23 284.675 259.508 150.44C390.27 59.495 533.663 1.43509 645.108 73.2436C755.704 144.588 904.403 252.068 1050.45 355.461C1272.07 512.27 1478.72 625.974 1615.53 529.177" stroke="#9F3670" stroke-miterlimit="10"/>
<path d="M-115.16 434.517C-115.16 434.517 68.6712 291.178 262.055 159.08C391.331 70.829 533.875 13.0477 646.7 79.9328C759.419 146.725 909.392 248.26 1055.12 349.238C1277.69 503.538 1479.14 613.899 1620.2 519.052" stroke="#9A3A74" stroke-miterlimit="10"/>
<path d="M-115.16 424.391C-115.16 424.391 71.1124 297.681 264.496 167.905C392.393 82.1622 534.193 24.7526 648.398 86.5284C763.346 148.676 914.593 244.358 1059.9 343.014C1283.42 494.713 1479.67 601.729 1624.87 508.926" stroke="#943D77" stroke-miterlimit="10"/>
<path d="M-115.16 414.265C-115.16 414.265 73.4474 304.183 267.043 176.637C393.348 93.4021 534.512 36.364 649.99 93.1234C767.06 150.719 919.581 240.363 1064.57 336.697C1289.05 485.887 1480.1 589.466 1629.43 498.8" stroke="#8E417B" stroke-miterlimit="10"/>
<path d="M-115.16 404.139C-115.16 404.139 75.8886 310.686 269.591 185.462C394.409 104.735 534.936 47.976 651.582 99.719C770.988 152.67 924.676 236.462 1069.24 330.38C1294.78 476.969 1480.42 577.297 1634.1 488.581" stroke="#88457F" stroke-miterlimit="10"/>
<path d="M-115.16 394.013C-115.16 394.013 78.2236 317.188 272.138 194.287C395.471 116.069 535.361 59.6808 653.28 106.407C775.021 154.713 929.877 232.56 1074.01 324.155C1300.51 468.144 1480.95 565.127 1638.77 478.548" stroke="#824882" stroke-miterlimit="10"/>
<path d="M-115.16 383.887C-115.16 383.887 80.6648 323.691 274.685 203.019C396.426 127.309 535.785 71.1997 654.979 113.003C779.054 156.571 935.077 228.565 1078.79 317.838C1306.35 459.226 1481.48 552.958 1643.55 468.33" stroke="#7C4C86" stroke-miterlimit="10"/>
<path d="M-115.16 373.761C-115.16 373.761 82.9999 330.193 277.233 211.844C397.381 138.642 536.316 82.7185 656.571 119.691C782.981 158.522 940.172 224.664 1083.46 311.614C1312.08 450.401 1481.9 540.788 1648.11 458.204" stroke="#765089" stroke-miterlimit="10"/>
<path d="M-115.16 363.637C-115.16 363.637 85.2288 336.604 279.78 220.577C398.443 149.883 536.847 94.1455 658.269 126.287C787.121 160.38 945.373 220.67 1088.23 305.298C1317.92 441.391 1482.43 528.527 1652.78 448.079" stroke="#70548D" stroke-miterlimit="10"/>
<path d="M-115.16 353.51C-115.16 353.51 87.5638 343.013 282.327 229.401C399.398 161.123 537.377 105.664 659.861 132.975C791.154 162.238 950.467 216.768 1092.9 299.166C1323.65 432.658 1482.75 516.543 1657.45 438.046" stroke="#6A5790" stroke-miterlimit="10"/>
<path d="M-115.16 343.385C-115.16 343.385 89.7927 349.424 284.875 238.227C400.353 172.364 538.014 117.091 661.559 139.572C795.293 163.91 955.668 212.774 1097.57 292.85C1329.38 423.647 1483.17 504.281 1662.02 427.828" stroke="#645B94" stroke-miterlimit="10"/>
<path d="M-115.16 333.259C-115.16 333.259 92.1278 355.74 287.422 246.959C401.308 183.604 538.651 128.424 663.257 146.26C799.433 165.675 960.869 208.779 1102.35 286.626C1335.32 414.729 1483.71 492.111 1666.79 417.795" stroke="#5F5F98" stroke-miterlimit="10"/>
<path d="M-115.16 323.134C-115.16 323.134 94.3566 362.15 289.969 255.784C402.263 194.752 539.182 139.757 664.955 152.856C803.572 167.347 966.176 204.784 1107.13 280.309C1341.16 405.718 1484.24 479.942 1671.46 407.576" stroke="#59629B" stroke-miterlimit="10"/>
<path d="M-115.16 313.008C-115.16 313.008 96.5855 368.467 292.517 264.61C403.113 205.992 539.819 150.998 666.548 159.451C807.711 168.927 971.27 200.697 1111.8 273.992C1347 396.615 1484.55 467.68 1676.13 397.451" stroke="#53669F" stroke-miterlimit="10"/>
<path d="M-115.16 302.883C-115.16 302.883 98.7083 374.691 295.064 273.342C404.068 217.14 540.349 162.238 668.246 166.14C811.851 170.506 976.577 196.702 1116.57 267.768C1352.94 387.697 1485.09 455.603 1680.8 387.325" stroke="#4D6AA2" stroke-miterlimit="10"/>
<path d="M-115.16 292.756C-115.16 292.756 100.937 380.915 297.611 282.166C404.917 228.286 541.092 178.866 669.838 172.735C815.672 165.767 981.672 192.614 1121.24 261.45C1358.78 378.592 1485.51 443.341 1685.37 377.106" stroke="#476EA6" stroke-miterlimit="10"/>
<path d="M-115.16 282.631C-115.16 282.631 103.06 387.139 300.159 290.899C405.766 239.341 541.411 184.533 671.536 179.331C819.917 173.385 986.979 188.527 1126.02 255.134C1364.72 369.489 1486.04 431.079 1690.14 366.98" stroke="#4171A9" stroke-miterlimit="10"/>
<path d="M-115.16 272.505C-115.16 272.505 105.183 393.363 302.706 299.724C406.615 250.489 541.941 195.68 673.128 186.019C823.951 174.872 992.18 184.533 1130.69 249.003C1370.56 360.478 1486.47 419.095 1694.71 356.948" stroke="#3B75AD" stroke-miterlimit="10"/>
<path d="M-115.16 262.38C-115.16 262.38 107.306 399.402 305.253 308.549C407.464 261.544 542.472 206.736 674.826 192.615C827.984 176.266 997.487 180.446 1135.47 242.686C1376.51 351.375 1486.89 406.833 1699.48 346.73" stroke="#3579B1" stroke-miterlimit="10"/>
<path d="M-115.16 252.254C-115.16 252.254 109.322 405.533 307.801 317.281C408.313 272.598 542.897 217.883 676.418 199.304C831.805 177.659 1002.58 176.358 1140.14 236.462C1382.34 342.27 1487.31 394.757 1704.05 336.697" stroke="#2F7CB4" stroke-miterlimit="10"/>
<path d="M-115.16 242.129C-115.16 242.129 111.339 411.478 310.348 326.107C409.163 283.653 543.321 228.937 678.117 205.992C835.838 179.145 1007.89 172.364 1144.91 230.238C1388.39 333.167 1487.85 382.587 1708.72 326.571" stroke="#2A80B8" stroke-miterlimit="10"/>
<path d="M-115.16 232.003C-115.16 232.003 113.462 417.516 312.895 334.839C410.012 294.615 543.64 239.899 679.815 212.495C839.765 180.26 1013.19 168.09 1149.69 223.828C1394.34 323.784 1488.38 370.232 1713.49 316.352" stroke="#2484BB" stroke-miterlimit="10"/>
<path d="M-115.16 221.877C-115.16 221.877 115.478 423.368 315.442 343.663C410.861 305.669 543.958 251.046 681.407 219.183C843.586 181.653 1018.4 164.003 1154.36 217.604C1400.28 314.587 1488.69 358.155 1718.06 306.226" stroke="#1E88BF" stroke-miterlimit="10"/>
<path d="M-115.16 211.752C-115.16 211.752 117.389 429.221 317.99 352.489C411.604 316.631 544.383 262.101 683.105 225.872C847.407 183.047 1023.81 159.73 1159.13 211.38C1406.44 305.112 1489.22 345.986 1722.83 296.101" stroke="#188BC2" stroke-miterlimit="10"/>
<path d="M-115.16 201.626C-115.16 201.626 119.405 434.888 320.537 361.221C521.669 287.555 915.442 114.118 1163.81 205.063C1412.17 296.008 1489.65 333.724 1727.4 285.976" stroke="#128FC6" stroke-miterlimit="10"/>
<path d="M-34.0693 75.1007C160.057 181.467 285.619 -122.21 527.296 75.1007C702.105 217.789 899.947 70.9204 1137.06 234.882C1374.17 398.843 1333.84 81.1389 1556.09 234.882" stroke="#B72762" stroke-width="10" stroke-miterlimit="10"/>
<path d="M-34.1758 79.2807C157.191 184.16 284.239 -119.052 529.524 78.7233C705.077 220.947 902.388 76.0294 1137.91 237.204C1373.96 398.285 1335.75 83.9255 1556.2 236.739" stroke="#B82861" stroke-width="10" stroke-miterlimit="10"/>
<path d="M-34.2812 83.4618C154.432 186.762 283.497 -116.45 531.754 82.347C708.262 223.642 904.83 81.0465 1138.86 239.62C1374.07 397.822 1337.77 86.806 1556.41 238.784" stroke="#B92861" stroke-width="10" stroke-miterlimit="10"/>
<path d="M-34.3877 87.5487C151.566 189.456 282.329 -113.478 533.876 85.9695C711.339 226.614 906.74 86.7127 1139.61 241.942C1373.43 397.821 1339.68 89.5924 1556.41 240.641" stroke="#BA2960" stroke-width="10" stroke-miterlimit="10"/>
<path d="M-34.4941 91.7292C148.7 192.15 281.161 -110.598 536.105 89.4997C714.311 229.494 909.074 91.8221 1140.46 244.264C1373.11 397.45 1341.59 92.4723 1556.52 242.499" stroke="#BB2960" stroke-width="10" stroke-miterlimit="10"/>
<path d="M-34.5996 95.9096C145.835 194.751 279.994 -107.718 538.228 93.1227C717.283 232.374 911.304 97.1172 1141.31 246.587C1372.9 397.078 1343.5 95.2593 1556.62 244.45" stroke="#BC2A5F" stroke-width="10" stroke-miterlimit="10"/>
<path d="M-34.7061 100.09C143.075 197.445 278.826 -104.745 540.351 96.7458C720.255 235.346 913.426 102.32 1142.05 248.909C1372.58 396.707 1345.3 98.0463 1556.62 246.308" stroke="#BD2B5F" stroke-width="10" stroke-miterlimit="10"/>
<path d="M-34.8115 104.27C140.21 200.138 277.659 -101.866 542.58 100.368C723.334 238.319 915.868 107.614 1143 251.324C1372.48 396.52 1347.43 100.926 1556.84 248.351" stroke="#BE2B5E" stroke-width="10" stroke-miterlimit="10"/>
<path d="M-34.9189 108.45C137.343 202.832 276.491 -98.8936 544.702 103.991C726.198 241.291 917.99 112.816 1143.75 253.646C1372.16 396.149 1349.23 103.712 1556.84 250.209" stroke="#BF2C5E" stroke-width="10" stroke-miterlimit="10"/>
<path d="M-35.0254 112.63C134.477 205.526 275.323 -95.921 546.93 107.614C729.276 244.264 920.325 118.111 1144.7 256.062C1372.05 395.87 1351.25 106.592 1557.05 252.16" stroke="#C02C5D" stroke-width="10" stroke-miterlimit="10"/>
<path d="M-35.1309 116.811C131.612 208.221 274.156 -92.9479 549.16 111.237C732.248 247.237 922.66 123.314 1145.55 258.384C1371.84 395.499 1353.16 109.379 1557.15 254.111" stroke="#C12D5D" stroke-width="10" stroke-miterlimit="10"/>
<path d="M-35.2373 120.991C128.852 210.822 272.988 -89.9754 551.282 114.86C735.22 250.209 924.889 128.609 1146.4 260.707C1371.62 395.127 1355.17 112.166 1557.26 255.969" stroke="#C22E5C" stroke-width="10" stroke-miterlimit="10"/>
<path d="M-35.3428 125.171C125.987 213.515 271.715 -87.0958 553.512 118.483C738.193 253.275 927.225 133.811 1147.25 263.122C1371.41 394.848 1357.08 115.139 1557.37 257.92" stroke="#C32E5C" stroke-width="10" stroke-miterlimit="10"/>
<path d="M-35.4502 129.352C123.12 216.21 270.546 -84.1224 555.633 122.107C741.057 256.248 929.452 139.014 1148.1 265.445C1371.2 394.477 1358.99 117.926 1557.47 259.871" stroke="#C42F5B" stroke-width="10" stroke-miterlimit="10"/>
<path d="M-35.5557 133.532C120.255 218.904 269.273 -81.0571 557.863 125.729C744.135 259.221 931.788 144.308 1148.95 267.767C1371.09 394.106 1360.9 120.713 1557.58 261.729" stroke="#C52F5B" stroke-width="10" stroke-miterlimit="10"/>
<path d="M-35.6611 137.713C117.496 221.598 268.106 -78.0844 559.986 129.352C747.002 262.286 934.017 149.511 1149.69 270.182C1370.78 393.827 1362.82 123.593 1557.58 263.773" stroke="#C6305A" stroke-width="10" stroke-miterlimit="10"/>
<path d="M-35.7676 141.893C114.63 224.291 266.832 -75.1124 562.215 132.975C749.974 265.258 936.458 154.712 1150.65 272.504C1370.67 393.455 1364.83 126.379 1557.79 265.63" stroke="#C7305A" stroke-width="10" stroke-miterlimit="10"/>
<path d="M-35.873 145.98C111.765 226.893 265.559 -72.2323 564.338 136.505C752.84 268.139 938.688 159.915 1151.39 274.827C1370.46 393.084 1366.64 129.166 1557.79 267.488" stroke="#C83159" stroke-width="10" stroke-miterlimit="10"/>
<path d="M-35.9805 150.16C109.004 229.586 264.391 -69.1671 566.566 140.22C755.81 271.296 941.022 165.209 1152.34 277.242C1370.35 392.804 1368.76 132.045 1558 269.531" stroke="#C93259" stroke-width="10" stroke-miterlimit="10"/>
<path d="M-36.0859 154.342C106.139 232.188 263.012 -66.1933 568.69 143.752C758.677 274.27 943.357 170.413 1153.09 279.472C1370.14 392.341 1370.56 134.741 1558 271.298" stroke="#CA3258" stroke-width="10" stroke-miterlimit="10"/>
<path d="M-36.0859 158.521C103.38 234.881 261.844 -63.1286 571.025 147.374C761.649 277.335 945.799 175.614 1154.04 281.887C1370.03 392.061 1372.58 137.712 1558.22 273.248" stroke="#CB3358" stroke-width="10" stroke-miterlimit="10"/>
<path d="M-36.1914 162.701C100.515 237.575 260.571 -60.1561 573.254 150.996C764.727 280.307 948.24 180.816 1155 284.209C1370.03 391.69 1374.6 140.499 1558.32 275.198" stroke="#CC3357" stroke-width="10" stroke-miterlimit="10"/>
<path d="M-36.2979 166.882C97.6485 240.27 259.297 -57.0902 575.377 154.62C767.487 283.373 950.469 186.018 1155.85 286.625C1369.82 391.411 1376.61 143.379 1558.43 277.149" stroke="#CD3457" stroke-width="10" stroke-miterlimit="10"/>
<path d="M-36.4033 171.062C94.7835 242.964 258.024 -54.0247 577.5 158.242C770.353 286.439 952.805 191.313 1156.59 288.947C1369.61 391.04 1378.42 146.166 1558.43 279.007" stroke="#CE3556" stroke-width="10" stroke-miterlimit="10"/>
<path d="M-36.5117 175.243C92.0216 245.658 256.748 -51.0518 579.727 161.866C773.323 289.412 955.244 196.516 1157.54 291.27C1369.61 390.668 1380.43 148.953 1558.64 280.958" stroke="#CF3555" stroke-width="10" stroke-miterlimit="10"/>
<path d="M-36.6172 179.423C89.1566 248.352 255.475 -47.9865 581.956 165.488C776.189 292.477 957.579 201.718 1158.39 293.685C1369.5 390.389 1382.34 151.833 1558.75 282.909" stroke="#D03655" stroke-width="10" stroke-miterlimit="10"/>
<path d="M-36.7227 183.603C86.2915 251.046 254.096 -44.9206 584.08 169.112C779.056 295.543 959.915 206.92 1159.24 296.008C1369.4 390.018 1384.36 154.62 1558.85 284.86" stroke="#D13654" stroke-width="10" stroke-miterlimit="10"/>
<path d="M-36.8291 187.783C83.4255 253.646 252.716 -41.8556 586.202 172.734C781.921 298.608 962.25 212.122 1159.99 298.422C1369.18 389.739 1386.17 157.592 1558.85 286.81" stroke="#D23754" stroke-width="10" stroke-miterlimit="10"/>
<path d="M-36.9355 191.964C80.6656 256.341 251.442 -38.7899 588.431 176.357C784.786 301.674 964.691 217.324 1160.83 300.745C1369.08 389.275 1388.08 160.379 1558.96 288.668" stroke="#D33853" stroke-width="10" stroke-miterlimit="10"/>
<path d="M-37.042 196.144C77.7995 259.034 250.062 -35.7245 590.659 179.98C787.652 304.832 967.131 222.526 1161.68 303.067C1368.97 388.903 1389.99 163.166 1559.06 290.619" stroke="#D43853" stroke-width="10" stroke-miterlimit="10"/>
<path d="M-37.1475 200.324C74.9345 261.728 248.789 -32.5665 592.783 183.602C790.518 307.897 969.467 227.728 1162.53 305.482C1368.87 388.624 1392 166.045 1559.17 292.569" stroke="#D53952" stroke-width="10" stroke-miterlimit="10"/>
<path d="M-37.2529 204.504C72.0694 264.329 247.41 -29.5004 595.012 187.226C793.491 310.963 971.909 232.838 1163.49 307.805C1368.87 388.16 1394.02 168.832 1559.38 294.428" stroke="#D63952" stroke-width="10" stroke-miterlimit="10"/>
<path d="M-37.3594 208.592C69.3095 267.024 246.136 -26.4346 597.241 190.756C796.356 313.936 974.456 237.947 1164.34 310.127C1368.87 387.788 1395.93 171.62 1559.49 296.379" stroke="#D73A51" stroke-width="10" stroke-miterlimit="10"/>
<path d="M-37.4658 212.772C66.4435 269.717 244.756 -23.3694 599.363 194.379C799.116 317.094 976.791 243.149 1165.19 312.449C1368.76 387.323 1397.95 174.406 1559.6 298.236" stroke="#D83B51" stroke-width="10" stroke-miterlimit="10"/>
<path d="M-37.5723 216.953C63.5774 272.412 243.376 -20.2106 601.592 198.002C802.087 320.16 979.232 248.259 1166.03 314.772C1368.76 386.952 1399.86 177.193 1559.7 300.187" stroke="#D93B50" stroke-width="10" stroke-miterlimit="10"/>
<path d="M-37.6777 221.133C60.7124 275.013 241.996 -17.0519 603.715 201.625C804.847 323.226 981.674 253.461 1166.88 317.188C1368.65 386.581 1401.77 180.166 1559.81 302.138" stroke="#DA3C50" stroke-width="10" stroke-miterlimit="10"/>
<path d="M-37.7832 225.313C57.9535 277.707 240.617 -13.9866 605.945 205.341C807.714 326.477 984.115 258.663 1167.73 319.603C1368.65 386.302 1403.68 183.046 1559.92 304.089" stroke="#DA3C4F" stroke-width="10" stroke-miterlimit="10"/>
<path d="M-37.8896 229.493C55.0874 280.4 239.237 -10.8284 608.067 208.963C810.473 329.542 986.556 263.865 1168.58 322.018C1368.55 385.93 1405.7 185.925 1560.02 306.132" stroke="#DB3D4F" stroke-width="10" stroke-miterlimit="10"/>
<path d="M-37.9961 233.674C52.2214 283.095 237.857 -7.66934 610.296 212.587C813.445 332.701 988.997 268.975 1169.43 324.341C1368.55 385.466 1407.61 188.713 1560.13 307.991" stroke="#DC3D4E" stroke-width="10" stroke-miterlimit="10"/>
<path d="M-38.1035 237.854C49.3544 285.789 236.476 -4.51114 612.418 216.21C816.203 335.767 991.437 274.084 1170.17 326.663C1368.44 385.002 1409.41 191.499 1560.13 309.849" stroke="#DD3E4E" stroke-width="10" stroke-miterlimit="10"/>
<path d="M-38.209 242.035C46.4893 288.483 234.991 -1.35273 614.647 219.74C819.069 338.832 993.985 279.1 1171.13 328.985C1368.55 384.537 1411.43 194.286 1560.34 311.799" stroke="#DE3F4D" stroke-width="10" stroke-miterlimit="10"/>
<path d="M-38.3145 246.215C43.7304 291.177 233.612 1.80621 616.771 223.363C821.83 341.991 996.427 284.21 1171.87 331.308C1368.44 384.073 1413.34 197.073 1560.34 313.658" stroke="#DF3F4D" stroke-width="10" stroke-miterlimit="10"/>
<path d="M-38.4219 250.395C40.8634 293.871 232.231 5.05735 618.998 227.079C824.694 345.149 998.867 289.319 1172.83 333.723C1368.55 383.608 1415.35 199.953 1560.55 315.608" stroke="#E0404C" stroke-width="10" stroke-miterlimit="10"/>
<path d="M-38.5273 254.575C37.9983 296.472 230.851 8.21539 621.228 230.701C827.56 348.307 1001.41 294.521 1173.68 336.138C1368.55 383.236 1417.26 202.925 1560.66 317.652" stroke="#E1404C" stroke-width="10" stroke-miterlimit="10"/>
<path d="M-38.6338 258.756C35.1323 299.166 229.365 11.3741 623.35 234.231C830.426 351.373 1003.86 299.444 1174.53 338.368C1368.55 382.586 1419.28 205.619 1560.76 319.417" stroke="#E2414B" stroke-width="10" stroke-miterlimit="10"/>
<path d="M-38.7393 262.937C32.3733 301.86 227.986 14.6258 625.58 237.948C833.292 354.625 1006.4 304.647 1175.38 340.876C1368.55 382.308 1421.19 208.593 1560.87 321.554" stroke="#E3424B" stroke-width="10" stroke-miterlimit="10"/>
<path d="M-38.8447 267.023C29.5083 304.46 226.607 17.7836 627.703 241.477C836.052 357.597 1008.85 309.57 1176.23 343.105C1368.55 381.657 1423.1 211.286 1560.98 323.318" stroke="#E4424A" stroke-width="10" stroke-miterlimit="10"/>
<path d="M-38.9521 271.204C26.6412 307.155 225.12 21.0353 629.931 245.1C838.917 360.756 1011.39 314.586 1177.07 345.428C1368.65 381.1 1425.01 214.073 1561.08 325.177" stroke="#E5434A" stroke-width="10" stroke-miterlimit="10"/>
<path d="M-39.0576 275.385C23.8823 309.849 223.741 24.1941 632.054 248.723C841.677 363.914 1013.94 319.603 1177.92 347.843C1368.65 380.636 1427.03 216.953 1561.19 327.221" stroke="#E64349" stroke-width="10" stroke-miterlimit="10"/>
<path d="M-39.1641 279.564C21.0163 312.542 222.254 27.4448 634.283 252.346C844.543 367.072 1016.49 324.619 1178.77 350.165C1368.65 380.078 1428.94 219.739 1561.29 329.078" stroke="#E74448" stroke-width="10" stroke-miterlimit="10"/>
<path d="M-39.2695 283.745C18.1512 315.237 220.769 30.6962 636.406 255.969C847.303 370.231 1018.93 329.635 1179.52 352.581C1368.65 379.521 1430.74 222.712 1561.29 331.029" stroke="#E84548" stroke-width="10" stroke-miterlimit="10"/>
<path d="M-39.376 287.926C15.2852 317.838 219.389 33.9482 638.635 259.592C850.168 373.39 1021.48 334.652 1180.47 354.904C1368.76 378.871 1432.76 225.5 1561.51 332.98" stroke="#E94547" stroke-width="10" stroke-miterlimit="10"/>
<path d="M-39.4824 292.105C12.4192 320.532 217.903 37.1989 640.757 263.215C852.927 376.548 1023.92 339.575 1181.21 357.225C1368.65 378.313 1434.67 228.286 1561.51 334.837" stroke="#EA4647" stroke-width="10" stroke-miterlimit="10"/>
<path d="M-39.5889 296.286C9.65926 323.226 216.523 40.5436 642.986 266.838C855.793 379.707 1026.46 344.592 1182.17 359.641C1368.87 377.756 1436.69 231.166 1561.72 336.882" stroke="#EB4646" stroke-width="10" stroke-miterlimit="10"/>
<path d="M-39.6953 300.466C6.79322 325.92 215.036 43.7947 645.215 270.461C858.658 382.865 1029.01 349.515 1183.02 361.963C1368.86 377.013 1438.6 233.953 1561.82 338.739" stroke="#EC4746" stroke-width="10" stroke-miterlimit="10"/>
<path d="M-39.8008 304.646C3.92816 328.613 213.551 47.0457 647.338 274.083C861.419 386.116 1031.56 354.438 1183.87 364.378C1368.87 376.455 1440.51 236.832 1561.93 340.69" stroke="#ED4845" stroke-width="10" stroke-miterlimit="10"/>
<path d="M-39.9072 308.827C1.06211 331.308 212.065 50.3905 649.567 277.707C864.178 389.275 1034.11 359.362 1184.72 366.701C1368.97 375.712 1442.52 239.619 1562.04 342.641" stroke="#EE4845" stroke-width="10" stroke-miterlimit="10"/>
<path d="M-40.0137 313.007C-1.69778 334.002 210.579 53.6416 651.689 281.33C866.937 392.433 1036.55 364.193 1185.56 369.023C1368.97 374.969 1444.44 242.406 1562.14 344.499" stroke="#EF4944" stroke-width="10" stroke-miterlimit="10"/>
<path d="M-40.1191 317.188C-4.56285 336.696 209.093 56.9861 653.918 284.953C869.804 395.592 1039.2 376.827 1186.41 371.439C1368.87 364.75 1446.35 245.379 1562.25 346.45" stroke="#F04944" stroke-width="10" stroke-miterlimit="10"/>
<path d="M-40.2256 321.368C-7.42888 339.297 207.607 60.3303 656.041 288.576C872.563 398.75 1041.75 381.286 1187.26 373.761C1368.65 364.472 1448.36 248.166 1562.36 348.401" stroke="#F14A43" stroke-width="10" stroke-miterlimit="10"/>
<path d="M-40.3311 325.455C-10.2939 341.898 206.122 63.5817 658.27 292.106C875.429 401.909 1044.4 385.559 1188.11 376.084C1368.55 364.193 1450.27 250.953 1562.46 350.259" stroke="#F24A43" stroke-width="10" stroke-miterlimit="10"/>
<path d="M-40.4375 329.635C-13.0538 344.592 204.636 66.8327 660.393 295.728C878.189 405.067 1046.42 383.515 1188.86 378.406C1368.87 371.903 1452.08 253.739 1562.46 352.116" stroke="#F34B42" stroke-width="10" stroke-miterlimit="10"/>
<path d="M-40.5439 333.816C-15.9199 347.286 203.149 70.1775 662.622 299.352C881.054 408.226 1048.96 388.346 1189.81 380.729C1368.97 371.067 1454.09 256.527 1562.67 354.067" stroke="#F44C42" stroke-width="10" stroke-miterlimit="10"/>
<path d="M-40.6494 337.996C-18.7849 349.98 201.664 73.5215 664.745 302.974C883.814 411.477 1051.3 393.176 1190.55 383.144C1368.76 370.324 1456.01 259.406 1562.67 356.018" stroke="#F54C41" stroke-width="10" stroke-miterlimit="10"/>
<path d="M-40.7559 342.176C-21.651 352.673 200.178 76.9583 666.974 306.597C886.574 414.635 1053.85 397.914 1191.51 385.466C1368.87 369.395 1458.02 262.193 1562.89 357.968" stroke="#F64D41" stroke-width="10" stroke-miterlimit="10"/>
<path d="M-40.8623 346.357C-24.4109 355.368 198.692 80.3031 669.202 310.221C889.439 417.887 1056.18 402.745 1192.36 387.882C1368.76 368.559 1459.93 265.073 1562.99 359.92" stroke="#F74D40" stroke-width="10" stroke-miterlimit="10"/>
<path d="M-40.9678 350.537C-27.2759 358.062 197.206 83.6472 671.326 313.843C892.199 421.045 1058.62 407.482 1193.21 390.204C1368.65 367.63 1461.84 267.953 1563.1 361.778" stroke="#F84E40" stroke-width="10" stroke-miterlimit="10"/>
<path d="M-41.0742 354.718C-30.142 360.663 195.72 87.0844 673.554 317.466C895.065 424.297 1061.06 412.22 1194.06 392.526C1368.55 366.701 1463.86 270.74 1563.2 363.728" stroke="#F94F3F" stroke-width="10" stroke-miterlimit="10"/>
<path d="M-41.1807 358.898C-33.008 363.357 193.703 91.1719 675.677 321.089C897.612 427.827 1063.4 416.958 1194.9 394.941C1368.44 365.865 1465.77 273.619 1563.31 365.679" stroke="#FA4F3F" stroke-width="10" stroke-miterlimit="10"/>
<path d="M-41.2871 363.078C-35.7679 366.051 192.323 94.3302 677.905 324.712C900.477 430.892 1065.73 421.695 1195.75 397.264C1368.23 364.843 1467.68 276.406 1563.42 367.537" stroke="#FB503E" stroke-width="10" stroke-miterlimit="10"/>
<path d="M-41.3936 367.258C-38.634 368.745 190.943 97.4886 680.028 328.335C903.343 434.05 1068.07 426.433 1196.6 399.586C1368.02 363.821 1469.59 279.193 1563.52 369.488" stroke="#FC503E" stroke-width="10" stroke-miterlimit="10"/>
<path d="M-41.499 371.438C-41.499 371.438 189.67 100.647 682.257 331.958C1206.47 578.132 1402.94 215.466 1563.63 371.438" stroke="#FD513D" stroke-width="10" stroke-miterlimit="10"/>
<path d="M-41.8184 367.165C-41.8184 367.165 54.1306 255.133 254.307 239.619C365.965 230.98 507.447 252.16 682.256 334.001C720.254 351.744 756.659 365.958 791.579 377.384C1001.52 445.662 1151.39 417.236 1269.09 383.794C1400.18 346.264 1484.98 294.335 1563.95 370.509" stroke="#FC503E" stroke-width="10" stroke-miterlimit="10"/>
<path d="M-42.1357 362.892C-42.1357 362.892 54.1316 250.859 255.157 238.226C367.876 231.165 508.297 254.947 682.151 336.138C720.149 353.788 756.66 367.629 791.792 378.498C1002.05 443.247 1151.07 416.214 1270.05 384.815C1402.41 349.979 1484.66 293.591 1564.05 369.58" stroke="#FB503E" stroke-width="10" stroke-miterlimit="10"/>
<path d="M-42.3486 358.619C-42.3486 358.619 54.2372 246.586 256.112 236.832C369.998 231.351 509.358 257.734 682.257 338.182C720.254 355.739 756.872 369.209 792.322 379.52C1002.79 440.832 1151.07 414.914 1271.43 385.744C1404.95 353.417 1484.87 292.848 1564.58 368.652" stroke="#FA4F3F" stroke-width="10" stroke-miterlimit="10"/>
<path d="M-42.666 354.346C-42.666 354.346 54.3443 242.407 256.856 235.439C371.804 231.538 510.208 260.428 682.152 340.226C720.149 357.69 756.979 370.789 792.535 380.543C1003.22 438.324 1150.65 413.614 1272.39 386.674C1407.18 356.947 1484.66 292.013 1564.69 367.723" stroke="#F94F3F" stroke-width="10" stroke-miterlimit="10"/>
<path d="M-42.9854 350.072C-42.9854 350.072 54.3434 238.133 257.704 234.045C373.819 231.723 511.056 263.215 682.151 342.362C720.148 359.826 757.084 372.367 792.853 381.657C1003.75 436.001 1150.43 412.405 1273.45 387.788C1409.41 360.57 1484.56 291.455 1564.9 366.886" stroke="#F84E40" stroke-width="10" stroke-miterlimit="10"/>
<path d="M-43.1973 345.893C-43.1973 345.893 54.556 229.587 258.66 232.838C375.942 234.696 511.905 266.467 682.257 344.592C720.149 361.964 757.297 374.133 793.384 382.865C1004.39 433.772 1150.33 411.199 1274.72 388.904C1411.85 364.193 1484.56 290.805 1565.33 366.144" stroke="#F74D40" stroke-width="10" stroke-miterlimit="10"/>
<path d="M-43.5156 341.619C-43.5156 341.619 54.7683 224.756 259.509 231.445C377.853 235.253 512.861 269.253 682.257 346.636C720.149 364.007 757.403 375.712 793.702 383.887C1004.92 431.357 1150.11 409.898 1275.89 389.832C1414.19 367.723 1484.56 290.062 1565.65 365.122" stroke="#F64D41" stroke-width="10" stroke-miterlimit="10"/>
<path d="M-43.834 337.345C-43.834 337.345 54.6623 225.777 260.252 230.051C379.764 232.559 513.604 272.04 682.151 348.772C720.043 366.05 757.297 377.384 794.021 385.001C1005.34 429.034 1149.8 408.69 1276.95 390.854C1416.42 371.252 1484.45 289.318 1565.96 364.285" stroke="#F54C41" stroke-width="10" stroke-miterlimit="10"/>
<path d="M-44.1514 333.073C-44.1514 333.073 54.7694 221.598 261.102 228.658C381.781 232.745 514.454 274.92 682.046 350.816C719.938 368.002 757.298 378.963 794.234 386.023C1005.56 426.712 1149.37 407.389 1277.91 391.783C1418.54 374.69 1484.13 288.483 1566.07 363.357" stroke="#F44C42" stroke-width="10" stroke-miterlimit="10"/>
<path d="M-44.3652 328.799C-44.3652 328.799 54.9801 217.51 262.056 227.264C383.902 233.023 515.514 277.706 682.151 352.952C720.042 370.045 757.509 380.542 794.763 387.138C1006.19 424.482 1149.37 406.088 1279.18 392.804C1420.98 378.22 1484.24 287.832 1566.49 362.427" stroke="#F34B42" stroke-width="10" stroke-miterlimit="10"/>
<path d="M-44.6826 324.527C-44.6826 324.527 55.0873 213.423 262.906 225.871C385.92 233.21 516.364 280.494 682.152 354.997C720.043 371.997 757.616 382.122 795.083 388.16C1006.51 422.16 1149.05 404.789 1280.35 393.734C1423.31 381.658 1484.24 286.997 1566.81 361.499" stroke="#F24A43" stroke-width="10" stroke-miterlimit="10"/>
<path d="M-45.002 320.346C-45.002 320.346 55.1925 209.428 263.754 224.57C387.936 233.581 517.318 283.373 682.151 357.133C720.042 374.133 757.721 383.794 795.4 389.275C1006.83 419.931 1148.73 403.581 1281.41 394.756C1425.54 385.187 1484.13 286.346 1567.02 360.663" stroke="#F14A43" stroke-width="10" stroke-miterlimit="10"/>
<path d="M-45.3203 316.073C-45.3203 316.073 55.2987 205.341 264.497 223.177C389.846 233.86 518.061 286.16 682.045 359.269C719.936 376.176 757.615 385.466 795.719 390.389C1007.15 417.794 1148.42 402.28 1282.47 395.777C1427.67 388.717 1483.92 285.603 1567.24 359.734" stroke="#F04944" stroke-width="10" stroke-miterlimit="10"/>
<path d="M-45.5322 311.799C-45.5322 311.799 55.5113 201.346 265.453 221.783C391.969 234.138 519.123 288.947 682.151 361.313C720.043 378.127 757.828 387.045 796.144 391.411C1007.46 415.564 1148.2 400.979 1283.64 396.706C1430 392.061 1483.92 284.859 1567.66 358.805" stroke="#EF4944" stroke-width="10" stroke-miterlimit="10"/>
<path d="M-45.8516 307.526C-45.8516 307.526 55.6165 197.259 266.301 220.39C393.985 234.417 519.971 291.734 682.15 363.357C720.042 380.078 757.827 388.625 796.567 392.433C1007.89 413.335 1148.1 399.586 1284.91 397.635C1432.44 395.499 1484.02 284.024 1568.09 357.876" stroke="#EE4845" stroke-width="10" stroke-miterlimit="10"/>
<path d="M-46.1689 303.253C-46.1689 303.253 55.8299 193.264 267.151 218.996C396.109 234.696 520.927 294.521 682.151 365.493C720.043 382.122 757.934 390.296 796.887 393.548C1008.1 411.198 1147.78 401.444 1285.97 398.657C1434.56 395.591 1483.81 283.373 1568.3 356.947" stroke="#ED4845" stroke-width="10" stroke-miterlimit="10"/>
<path d="M-46.3818 298.98C-46.3818 298.98 56.0415 189.27 268 217.603C398.125 234.975 521.776 297.308 682.045 367.537C719.936 384.165 757.933 391.969 797.205 394.663C1008.31 409.154 1147.46 397.078 1287.03 399.679C1436.79 402.466 1483.71 282.63 1568.51 356.111" stroke="#EC4746" stroke-width="10" stroke-miterlimit="10"/>
<path d="M-46.7002 294.706C-46.7002 294.706 56.1477 185.275 268.849 216.302C400.142 235.439 522.731 300.187 682.045 369.673C719.83 386.209 757.933 393.641 797.523 395.684C1008.53 407.018 1147.14 395.684 1288.09 400.608C1439.02 405.903 1483.6 281.794 1568.72 355.089" stroke="#EB4646" stroke-width="10" stroke-miterlimit="10"/>
<path d="M-47.0176 290.527C-47.0176 290.527 56.2549 181.374 269.699 215.002C402.159 235.811 523.581 303.067 682.046 371.903C719.831 388.346 758.359 391.783 797.842 396.892C1006.62 424.111 1146.82 394.477 1289.26 401.723C1441.36 409.433 1483.6 281.237 1569.04 354.346" stroke="#EA4647" stroke-width="10" stroke-miterlimit="10"/>
<path d="M-47.3369 286.253C-47.3369 286.253 56.3601 177.472 270.547 213.608C404.175 236.182 524.536 305.854 682.045 373.947C719.83 390.296 758.358 393.269 798.266 398.007C1007.25 422.624 1146.61 393.176 1290.43 402.744C1443.59 412.87 1483.49 280.493 1569.36 353.509" stroke="#E94547" stroke-width="10" stroke-miterlimit="10"/>
<path d="M-47.5488 281.98C-47.5488 281.98 56.6789 173.57 271.396 212.215C406.192 236.461 525.491 308.641 682.045 375.991C719.83 392.247 758.358 394.756 798.585 399.029C1007.68 421.045 1146.29 391.783 1291.49 403.674C1445.82 416.307 1483.39 279.75 1569.68 352.488" stroke="#E84548" stroke-width="10" stroke-miterlimit="10"/>
<path d="M-47.8672 277.707C-47.8672 277.707 56.7851 169.576 272.246 210.822C408.209 236.833 526.34 311.428 682.045 378.127C719.83 394.291 758.359 396.335 798.903 400.144C1008.21 419.466 1145.98 390.483 1292.55 404.696C1448.04 419.745 1483.28 279.007 1569.89 351.652" stroke="#E74448" stroke-width="10" stroke-miterlimit="10"/>
<path d="M-48.1865 273.434C-48.1865 273.434 56.8903 165.674 273.094 209.428C410.224 237.204 527.295 314.215 682.044 380.171C719.83 396.242 758.358 397.914 799.327 401.165C1008.84 417.794 1145.76 389.089 1293.72 405.624C1450.27 423.089 1483.18 278.264 1570.21 350.723" stroke="#E64349" stroke-width="10" stroke-miterlimit="10"/>
<path d="M-48.5039 269.16C-48.5039 269.16 56.9975 161.772 273.944 208.035C412.348 237.575 528.251 317.001 682.045 382.307C719.83 398.378 758.359 399.493 799.646 402.28C1009.27 416.214 1145.44 387.788 1294.89 406.646C1452.61 426.526 1483.18 277.521 1570.53 349.794" stroke="#E5434A" stroke-width="10" stroke-miterlimit="10"/>
<path d="M-48.7168 264.98C-48.7168 264.98 57.2091 157.964 274.899 206.735C414.364 237.948 529.206 319.882 682.045 384.445C719.83 400.423 758.252 401.166 800.07 403.395C1009.91 414.636 1145.23 386.488 1296.05 407.669C1454.94 429.964 1483.18 276.871 1570.85 348.958" stroke="#E4424A" stroke-width="10" stroke-miterlimit="10"/>
<path d="M-49.0352 260.707C-49.0352 260.707 57.3153 154.155 275.642 205.341C416.381 238.319 529.949 322.668 681.939 386.488C719.724 402.373 758.252 407.018 800.283 404.417C1010.01 391.504 1144.81 385.001 1297.01 408.597C1456.96 433.307 1482.96 276.034 1570.95 348.029" stroke="#E3424B" stroke-width="10" stroke-miterlimit="10"/>
<path d="M-49.3535 256.434C-49.3535 256.434 57.4215 150.253 276.491 203.947C418.398 238.783 530.904 325.362 681.939 388.624C719.724 404.417 758.252 408.69 800.707 405.531C1010.33 389.739 1144.6 383.701 1298.18 409.619C1459.29 436.744 1482.86 275.291 1571.38 347.1" stroke="#E2414B" stroke-width="10" stroke-miterlimit="10"/>
<path d="M-49.5654 252.161C-49.5654 252.161 57.6341 146.352 277.446 202.554C420.415 239.155 531.86 328.242 681.939 390.668C719.724 406.368 758.253 410.362 801.026 406.554C1010.44 387.882 1144.38 382.308 1299.35 410.548C1461.63 440.089 1482.86 274.549 1571.7 346.171" stroke="#E1404C" stroke-width="10" stroke-miterlimit="10"/>
<path d="M-49.8838 247.887C-49.8838 247.887 57.7404 142.543 278.296 201.253C422.537 239.619 532.815 331.029 682.045 392.804C719.83 408.411 758.465 412.127 801.451 407.668C1010.76 386.116 1144.17 380.914 1300.51 411.569C1463.86 443.526 1482.86 273.805 1572.01 345.242" stroke="#E0404C" stroke-width="10" stroke-miterlimit="10"/>
<path d="M-50.2021 243.614C-50.2021 243.614 57.8465 138.734 279.039 199.86C424.342 239.991 533.664 333.816 681.939 394.941C719.724 410.548 758.359 413.799 801.769 408.783C1010.86 384.444 1143.85 379.614 1301.57 412.592C1466.09 446.963 1482.65 273.155 1572.23 344.406" stroke="#DF3F4D" stroke-width="10" stroke-miterlimit="10"/>
<path d="M-50.5205 239.341C-50.5205 239.341 57.9527 134.926 279.888 198.467C426.358 240.456 534.619 336.603 681.939 396.985C719.724 412.499 758.465 415.472 802.088 409.805C1011.07 382.586 1143.53 378.22 1302.64 413.521C1468.32 450.308 1482.54 272.319 1572.44 343.477" stroke="#DE3F4D" stroke-width="10" stroke-miterlimit="10"/>
<path d="M-50.7334 235.16C-50.7334 235.16 58.1644 131.116 280.842 197.165C428.481 240.919 535.574 339.389 682.045 399.121C719.83 414.542 758.57 417.236 802.618 410.919C1011.39 380.913 1143.43 376.826 1304.01 414.542C1470.86 453.744 1482.75 271.668 1572.97 342.547" stroke="#DD3E4E" stroke-width="10" stroke-miterlimit="10"/>
<path d="M-51.0508 230.887C-51.0508 230.887 58.1654 127.308 281.692 195.772C430.498 241.291 536.53 342.176 681.94 401.258C719.725 416.586 758.571 419.001 802.831 412.034C1011.5 379.334 1143 375.526 1304.97 415.564C1472.88 457.088 1482.54 270.925 1573.08 341.712" stroke="#DC3D4E" stroke-width="10" stroke-miterlimit="10"/>
<path d="M-51.3701 226.614C-51.3701 226.614 58.2706 123.5 282.541 194.379C432.514 241.756 537.485 344.964 681.939 403.302C719.724 418.537 758.57 420.674 803.148 413.056C1011.6 377.57 1142.68 374.04 1306.03 416.494C1475.11 460.433 1482.33 270.182 1573.39 340.783" stroke="#DB3D4F" stroke-width="10" stroke-miterlimit="10"/>
<path d="M-51.6885 222.34C-51.6885 222.34 58.3768 119.783 283.284 192.985C434.424 242.22 538.228 347.75 681.833 405.345C719.618 420.487 758.571 422.345 803.467 414.078C1011.82 375.897 1142.47 372.553 1307.09 417.422C1477.34 463.777 1482.22 269.346 1573.61 339.761" stroke="#DA3C4F" stroke-width="10" stroke-miterlimit="10"/>
<path d="M-51.9004 218.068C-51.9004 218.068 58.5895 115.975 284.239 191.592C436.441 242.592 539.289 350.444 681.939 407.482C719.618 422.531 758.677 424.111 803.892 415.193C1012.14 374.226 1142.26 371.253 1308.37 418.444C1479.78 467.121 1482.33 268.603 1574.03 338.925" stroke="#DA3C50" stroke-width="10" stroke-miterlimit="10"/>
<path d="M-52.2197 213.794C-52.2197 213.794 58.5886 112.166 285.088 190.199C438.457 243.149 540.244 353.324 681.938 409.619C719.617 424.575 758.782 425.876 804.316 416.307C1012.45 372.646 1142.05 369.859 1309.53 419.466C1482.11 470.559 1482.22 267.953 1574.35 337.996" stroke="#D93B50" stroke-width="10" stroke-miterlimit="10"/>
<path d="M-52.5371 209.614C-52.5371 209.614 58.6957 108.451 285.938 188.899C440.475 243.614 541.094 356.111 681.939 411.756C719.618 426.619 758.783 427.641 804.635 417.422C1012.67 371.067 1141.84 368.466 1310.6 420.488C1484.34 473.903 1482.12 267.21 1574.56 337.16" stroke="#D83B51" stroke-width="10" stroke-miterlimit="10"/>
<path d="M-52.75 205.34C-52.75 205.34 58.8012 104.734 286.786 187.504C442.491 244.078 542.048 358.805 681.939 413.799C719.618 428.662 758.889 429.313 804.953 418.444C1012.88 369.488 1141.52 367.072 1311.66 421.416C1486.57 477.247 1482.01 266.466 1574.77 336.231" stroke="#D73A51" stroke-width="10" stroke-miterlimit="10"/>
<path d="M-53.0684 201.068C-53.0684 201.068 58.9074 100.926 287.635 186.112C444.401 244.45 543.004 361.592 681.939 415.843C719.618 430.614 758.889 431.078 805.377 419.559C1013.2 367.909 1141.3 365.68 1312.93 422.439C1489.01 480.685 1482.11 265.723 1575.3 335.303" stroke="#D63952" stroke-width="10" stroke-miterlimit="10"/>
<path d="M-53.3857 196.794C-53.3857 196.794 58.9085 97.2097 288.485 184.811C446.419 245.007 543.96 364.471 681.834 418.072C719.513 432.75 758.89 432.936 805.591 420.766C1013.3 366.515 1140.99 364.378 1313.89 423.553C1491.14 484.121 1481.8 265.166 1575.41 334.559" stroke="#D53952" stroke-width="10" stroke-miterlimit="10"/>
<path d="M-53.7051 192.521C-53.7051 192.521 58.9076 93.494 289.334 183.417C448.329 245.472 544.808 367.165 681.833 420.116C719.512 434.701 758.995 434.608 806.014 421.788C1013.73 364.936 1140.77 362.985 1315.05 424.482C1493.47 487.466 1481.8 264.33 1575.73 333.63" stroke="#D43853" stroke-width="10" stroke-miterlimit="10"/>
<path d="M-53.917 188.248C-53.917 188.248 59.1202 89.6854 290.183 182.024C450.346 245.936 545.764 369.952 681.833 422.16C719.512 436.652 758.995 436.373 806.333 422.81C1013.94 363.357 1140.46 361.499 1316.11 425.411C1495.7 490.717 1481.69 263.494 1575.94 332.608" stroke="#D33853" stroke-width="10" stroke-miterlimit="10"/>
<path d="M-54.2354 184.068C-54.2354 184.068 59.1203 86.0624 291.032 180.723C452.256 246.494 546.719 372.739 681.833 424.296C719.512 438.695 759.102 438.138 806.758 423.925C1014.36 361.87 1140.35 360.105 1317.39 426.433C1498.14 494.154 1481.69 262.843 1576.37 331.772" stroke="#D23754" stroke-width="10" stroke-miterlimit="10"/>
<path d="M-54.5547 179.795C-54.5547 179.795 59.1193 82.3467 291.88 179.33C454.272 246.958 547.673 375.526 681.832 426.433C719.511 440.739 759.207 439.903 807.075 425.04C1014.68 360.384 1140.03 358.712 1318.45 427.455C1500.37 497.499 1481.58 262.1 1576.58 330.936" stroke="#D13654" stroke-width="10" stroke-miterlimit="10"/>
<path d="M-54.8721 175.521C-54.8721 175.521 59.1204 78.5378 292.731 177.936C456.183 247.516 548.524 378.22 681.833 428.477C719.512 442.69 759.208 441.668 807.395 426.061C1015 358.805 1139.82 357.226 1319.51 428.384C1502.6 500.75 1481.48 261.357 1576.79 329.914" stroke="#D03655" stroke-width="10" stroke-miterlimit="10"/>
<path d="M-55.085 171.249C-55.085 171.249 59.2259 74.8226 293.685 176.544C458.199 247.981 549.584 381.008 681.939 430.614C719.618 444.734 759.42 443.434 807.925 427.177C1015.53 357.319 1139.71 355.926 1320.78 429.406C1505.04 504.188 1481.58 260.614 1577.32 329.079" stroke="#CF3555" stroke-width="10" stroke-miterlimit="10"/>
<path d="M-55.4033 166.975C-55.4033 166.975 59.2259 71.1062 294.428 175.15C460.11 248.445 550.433 383.701 681.833 432.657C719.512 446.684 759.42 445.198 808.137 428.198C1015.74 355.832 1139.39 354.439 1321.85 430.335C1507.27 507.438 1481.37 259.871 1577.53 328.056" stroke="#CE3556" stroke-width="10" stroke-miterlimit="10"/>
<path d="M-55.7217 162.701C-55.7217 162.701 59.226 67.39 295.277 173.756C462.02 248.909 551.389 386.488 681.726 434.701C719.405 448.635 759.42 446.87 808.455 429.22C1016.06 354.253 1139.08 352.952 1322.91 431.264C1509.5 510.783 1481.27 259.034 1577.74 327.127" stroke="#CD3457" stroke-width="10" stroke-miterlimit="10"/>
<path d="M-56.04 158.428C-56.04 158.428 59.226 63.6746 296.126 172.363C464.037 249.466 552.344 389.275 681.833 436.93C719.512 450.772 759.632 448.821 808.88 430.428C1016.49 352.952 1138.97 351.652 1324.07 432.378C1511.83 514.22 1481.27 258.477 1578.06 326.384" stroke="#CC3357" stroke-width="10" stroke-miterlimit="10"/>
<path d="M-56.252 154.248C-56.252 154.248 59.3325 60.0511 297.082 171.062C466.054 250.023 553.3 392.061 681.833 438.974C719.512 452.722 759.739 450.586 809.199 431.449C1016.91 351.373 1138.65 350.165 1325.14 433.307C1514.17 517.563 1481.05 257.641 1578.28 325.362" stroke="#CB3358" stroke-width="10" stroke-miterlimit="10"/>
<path d="M-56.5703 149.974C-56.5703 149.974 59.3326 56.3353 297.825 169.761C467.859 250.581 554.149 394.848 681.727 441.203C719.406 454.859 759.632 452.444 809.517 432.657C1017.34 350.072 1138.44 348.865 1326.3 434.422C1516.5 521.001 1481.05 256.99 1578.59 324.619" stroke="#CA3258" stroke-width="10" stroke-miterlimit="10"/>
<path d="M-56.8887 145.702C-56.8887 145.702 59.3327 52.6201 298.674 168.368C469.769 251.046 555.104 397.543 681.727 443.247C719.406 456.81 759.739 454.209 809.836 433.679C1017.65 348.586 1138.12 347.379 1327.37 435.351C1518.73 524.253 1480.95 256.248 1578.91 323.69" stroke="#C93259" stroke-width="10" stroke-miterlimit="10"/>
<path d="M-57.1016 141.429C-57.1016 141.429 59.332 48.9048 299.629 166.976C471.785 251.604 556.165 400.33 681.833 445.292C719.512 458.762 759.95 455.975 810.366 434.702C1018.29 347.101 1138.12 345.986 1328.64 436.281C1521.17 527.598 1481.05 255.412 1579.34 322.669" stroke="#C83159" stroke-width="10" stroke-miterlimit="10"/>
<path d="M-57.4189 137.155C-57.4189 137.155 59.3331 45.1878 300.479 165.581C473.697 252.067 557.121 403.023 681.834 447.427C719.513 460.804 760.057 457.739 810.685 435.815C1018.72 345.706 1137.91 344.591 1329.7 437.302C1523.4 530.941 1480.84 254.761 1579.55 321.832" stroke="#C7305A" stroke-width="10" stroke-miterlimit="10"/>
<path d="M-57.7383 132.882C-57.7383 132.882 59.3322 41.4726 301.221 164.188C475.5 252.532 557.969 405.717 681.727 449.471C719.406 462.756 760.057 459.504 810.897 436.838C1019.03 344.127 1137.48 343.106 1330.76 438.231C1525.74 534.193 1480.74 253.926 1579.76 320.903" stroke="#C6305A" stroke-width="10" stroke-miterlimit="10"/>
<path d="M-58.0566 128.702C-58.0566 128.702 59.226 37.8494 302.07 162.887C477.411 253.182 558.925 408.597 681.62 451.608C719.299 464.799 760.163 461.362 811.215 437.952C1019.56 342.734 1137.27 341.712 1331.82 439.253C1527.97 537.63 1480.63 253.275 1579.97 319.974" stroke="#C52F5B" stroke-width="10" stroke-miterlimit="10"/>
<path d="M-58.2695 124.429C-58.2695 124.429 59.3316 34.1338 303.025 161.494C479.427 253.647 559.879 411.291 681.726 453.745C719.405 466.843 760.374 463.127 811.639 439.067C1020.09 341.341 1137.16 340.319 1332.99 440.275C1530.3 540.974 1480.52 252.532 1580.29 319.138" stroke="#C42F5B" stroke-width="10" stroke-miterlimit="10"/>
<path d="M-58.5879 120.156C-58.5879 120.156 59.3316 30.4184 303.874 160.101C481.337 254.205 560.835 413.986 681.726 455.789C719.405 468.794 760.481 464.893 812.064 440.089C1020.63 339.855 1136.95 338.833 1334.16 441.204C1532.74 544.319 1480.52 251.789 1580.61 318.21" stroke="#C32E5C" stroke-width="10" stroke-miterlimit="10"/>
<path d="M-58.9053 115.882C-58.9053 115.882 59.2266 26.7946 304.724 158.707C483.249 254.668 561.791 416.679 681.727 457.832C719.406 470.744 760.588 466.657 812.383 441.203C1021.16 338.46 1136.74 337.439 1335.33 442.225C1534.97 547.662 1480.42 251.045 1580.93 317.28" stroke="#C22E5C" stroke-width="10" stroke-miterlimit="10"/>
<path d="M-59.2236 111.608C-59.2236 111.608 59.1205 23.0786 305.467 157.313C485.159 255.226 562.746 419.466 681.727 459.968C719.406 472.788 760.694 468.515 812.808 442.318C1021.79 337.067 1136.64 336.045 1336.49 443.247C1537.41 551.006 1480.52 250.302 1581.35 316.444" stroke="#C12D5D" stroke-width="10" stroke-miterlimit="10"/>
<path d="M-59.4365 107.336C-59.4365 107.336 59.226 19.3631 306.422 155.92C486.963 255.783 563.701 422.16 681.727 462.105C719.406 474.832 760.8 470.28 813.126 443.433C1022.32 335.674 1136.42 334.652 1337.55 444.269C1539.75 554.351 1480.31 249.652 1581.57 315.515" stroke="#C02C5D" stroke-width="10" stroke-miterlimit="10"/>
<path d="M-59.7539 103.062C-59.7539 103.062 59.1209 15.6471 307.272 154.527C488.874 256.248 564.657 424.854 681.728 464.056C719.407 476.69 761.013 471.952 813.445 444.362C1022.75 334.094 1136.11 333.073 1338.62 445.105C1541.98 557.602 1480.21 248.723 1581.78 314.493" stroke="#BF2C5E" stroke-width="10" stroke-miterlimit="10"/>
<path d="M-60.0732 98.8819C-60.0732 98.8819 59.12 12.0242 308.12 153.319C490.784 256.898 565.611 427.733 681.727 466.378C719.406 478.919 761.118 473.996 813.869 445.662C1023.49 332.887 1136 331.865 1339.89 446.313C1544.42 561.132 1480.31 248.258 1582.2 313.843" stroke="#BE2B5E" stroke-width="10" stroke-miterlimit="10"/>
<path d="M-60.2852 94.609C-60.2852 94.609 59.1203 8.30874 308.97 151.926C492.695 257.456 566.567 430.428 681.727 468.422C719.406 480.87 761.225 475.761 814.188 446.684C1024.02 331.494 1136 330.007 1340.95 447.242C1546.97 564.105 1480.1 247.423 1582.42 312.822" stroke="#BD2B5F" stroke-width="10" stroke-miterlimit="10"/>
<path d="M-60.6035 90.3361C-60.6035 90.3361 59.0142 4.68607 309.819 150.533C494.605 257.92 567.522 433.122 681.621 470.559C719.3 482.914 761.331 477.619 814.506 447.8C1024.55 330.1 1135.79 328.707 1342.01 448.264C1549.19 567.542 1479.99 246.773 1582.73 311.986" stroke="#BC2A5F" stroke-width="10" stroke-miterlimit="10"/>
<path d="M-60.9248 86.0626C-60.9248 86.0626 58.9052 0.969984 310.665 149.139C496.407 258.477 568.369 435.816 681.618 472.602C719.403 484.865 761.434 479.384 814.822 448.821C1025.08 328.614 1135.47 327.313 1343.07 449.193C1551.42 570.886 1479.88 245.936 1582.94 311.056" stroke="#BB2960" stroke-width="10" stroke-miterlimit="10"/>
<path d="M-61.2422 81.7891C-61.2422 81.7891 58.8001 -2.74615 311.515 147.745C498.318 259.035 569.431 438.324 681.619 474.646C719.404 486.723 761.541 481.056 815.141 449.843C1025.72 327.127 1135.25 325.92 1344.24 450.122C1553.76 574.231 1479.88 245.1 1583.26 310.035" stroke="#BA2960" stroke-width="10" stroke-miterlimit="10"/>
<path d="M-61.4541 77.5165C-61.4541 77.5165 58.5882 -6.08983 312.471 146.352C500.017 259.778 570.387 441.204 681.619 476.783C719.405 488.767 761.754 482.914 815.566 450.958C1026.36 325.734 1135.04 324.527 1345.41 451.144C1556.09 577.668 1479.78 244.45 1583.58 309.199" stroke="#B92861" stroke-width="10" stroke-miterlimit="10"/>
<path d="M-61.7715 73.3357C-61.7715 73.3357 58.5892 -9.89905 313.215 145.051C501.928 260.242 571.237 443.99 681.62 478.919C719.406 490.81 761.967 484.865 815.885 452.072C1027.21 324.619 1134.72 323.226 1346.47 452.165C1558.32 581.105 1479.67 243.707 1583.8 308.269" stroke="#B82861" stroke-width="10" stroke-miterlimit="10"/>
<path d="M-62.0898 69.0626C-62.0898 69.0626 58.6954 -13.7076 314.064 143.658C569.432 301.024 604.883 583.427 816.204 453.094C1027.52 322.761 1134.51 321.832 1347.53 453.094C1560.55 584.356 1479.67 242.964 1584.11 307.341" stroke="#B72762" stroke-width="10" stroke-miterlimit="10"/>
</svg>
