<svg width="16" height="13" viewBox="0 0 16 13" fill="none" xmlns="https://www.w3.org/2000/svg">
<path fill-rule="evenodd" clip-rule="evenodd" d="M13.058 7.79137C12.5976 9.41888 11.2811 10.7733 9.47438 11.2415C8.43302 11.5114 7.38053 11.4476 6.43822 11.1179C6.03481 10.9766 6.10272 10.4671 6.51712 10.3597L9.49436 9.588C9.9303 9.47509 10.189 9.04168 10.0722 8.62002C9.95544 8.19837 9.50735 7.94813 9.07141 8.06114L2.13348 9.85927C1.70099 9.97448 1.44504 10.406 1.56133 10.8258C1.67814 11.2474 2.12622 11.4977 2.56214 11.3846L3.19563 11.2205C3.36358 11.177 3.54191 11.2233 3.67138 11.3355C5.30502 12.7519 7.62253 13.3671 9.8997 12.777C12.6614 12.0612 14.558 9.78124 14.8435 7.18654C15.7643 6.49561 16.2181 5.3143 15.8976 4.15721C15.5412 2.87067 14.3402 2.02111 13.0263 2.01698C11.3851 0.353511 8.88008 -0.414025 6.42198 0.223039C4.26926 0.780965 2.64222 2.28927 1.89409 4.1562C1.8348 4.30413 1.70903 4.4192 1.55058 4.46027L0.704681 4.67951C0.268758 4.79248 0.0100519 5.22589 0.126861 5.64753C0.243669 6.06918 0.691751 6.31941 1.12767 6.20642L1.13065 6.20568L3.457 5.60276L3.46116 5.60165L5.03994 5.19248C5.47586 5.0795 5.73456 4.6461 5.61776 4.22445C5.50095 3.8028 5.05287 3.55258 4.61695 3.66556C4.35781 3.73272 4.16269 3.46493 4.33905 3.26939C4.97893 2.55988 5.83639 2.02042 6.84731 1.75842C8.42261 1.35015 10.0234 1.70556 11.2298 2.59004C10.2797 3.27604 9.80656 4.47624 10.1321 5.65145C10.4935 6.95583 11.7229 7.811 13.058 7.79137ZM14.2181 4.59247C14.3962 5.23526 14.0018 5.89597 13.3372 6.0682C12.6727 6.24044 11.9896 5.85898 11.8116 5.21619C11.6334 4.5734 12.0278 3.91269 12.6924 3.74046C13.357 3.56822 14.0401 3.94969 14.2181 4.59247ZM0.0292677 8.48329C-0.0926206 8.0433 0.177326 7.59105 0.632208 7.47316L5.02492 6.33472C5.4798 6.21683 5.94736 6.47797 6.06925 6.91786C6.19113 7.35785 5.92118 7.8101 5.4663 7.928L1.07359 9.06649C0.61871 9.18439 0.151146 8.92328 0.0292677 8.48329ZM7.22126 5.76549C6.76637 5.88338 6.49643 6.33563 6.61832 6.77565C6.74019 7.21554 7.20776 7.47665 7.66264 7.35875L9.03535 7.00307C9.49024 6.88518 9.76019 6.43293 9.6383 5.99291C9.51641 5.55293 9.04885 5.29182 8.59396 5.40972L7.22126 5.76549Z" fill="#E1477E"/>
</svg>
