<svg xmlns="https://www.w3.org/2000/svg" class="icon icon-medium" viewBox="0 0 20 18">
<path d="M3.20856 4.03944C3.23219 3.77081 3.14162 3.50217 2.96835 3.32005L1.19236 0.843166V0.474365H6.7133L10.982 11.2971L14.7348 0.474365H19.9998V0.843166L18.4797 2.52781C18.3498 2.64164 18.2828 2.83287 18.3104 3.01955V15.404C18.2828 15.5906 18.3498 15.7819 18.4797 15.8957L19.9643 17.5803V17.9491H12.4941V17.5803L14.0339 15.8547C14.1835 15.6817 14.1835 15.6271 14.1835 15.363V5.35528L9.90299 17.9173H9.32412L4.34662 5.35528V13.774C4.3033 14.1291 4.40569 14.4842 4.62227 14.7392L6.62272 17.5439V17.9127H0.952148V17.5485L2.9526 14.7392C3.16525 14.4842 3.2637 14.1245 3.20856 13.774V4.03944Z"/>
</svg>
