<svg width="114" height="40" viewBox="0 0 114 40" fill="none" xmlns="http://www.w3.org/2000/svg">
    <g filter="url(#filter0_dd)">
        <path fill-rule="evenodd" clip-rule="evenodd" d="M14.8385 26.545C14.8615 26.5397 14.8844 26.5339 14.9073 26.5276L23.9092 24.058C24.4783 23.9019 25.0608 24.2382 25.2103 24.8091C25.3597 25.3801 25.0194 25.9695 24.4503 26.1257L17.9522 27.9083C16.7157 28.2476 16.3077 29.7765 17.3625 30.4921C20.4152 32.5633 24.2805 33.3279 28.0672 32.2891C35.0708 30.3677 39.2944 22.9662 37.391 15.6931C35.4876 8.41995 28.2153 4.17221 21.2117 6.09358C17.2118 7.19093 14.1186 10.0758 12.5558 13.7034C12.0566 14.8621 13.1528 15.9273 14.3625 15.5954L14.9778 15.4266C15.5469 15.2704 16.1294 15.6067 16.2789 16.1777C16.4283 16.7486 16.088 17.3381 15.5189 17.4942L12.6447 18.2827C12.5893 18.2979 12.5351 18.3158 12.4822 18.3362L7.39349 19.7322C7.33764 19.7417 7.2816 19.754 7.22549 19.7694L3.96616 20.6636C3.397 20.8197 2.81448 20.4834 2.66506 19.9125C2.51564 19.3415 2.8559 18.7521 3.42505 18.596L8.41297 17.2276C9.06626 17.0484 9.54517 16.4922 9.68858 15.8268C10.8803 10.2975 14.9672 5.6224 20.6783 4.0556C28.8428 1.81576 37.2349 6.77649 39.4225 15.1357C41.6102 23.495 36.765 32.0872 28.6006 34.327C23.0434 35.8516 17.3808 34.0402 13.641 30.0918C13.1906 29.6163 12.5226 29.3979 11.8878 29.5721L11.8354 29.5864C11.2663 29.7426 10.6837 29.4063 10.5343 28.8353C10.3849 28.2644 10.7252 27.675 11.2943 27.5188C11.3033 27.5163 11.312 27.5134 11.3205 27.5101L14.8385 26.545Z" fill="#DA1A5F"/>
    </g>
    <rect width="2.13724" height="5.19253" rx="1.06862" transform="matrix(0.25318 0.967419 -0.964368 0.264565 22.0243 18.679)" fill="#DA1A5F"/>
    <rect width="2.13724" height="15.7054" rx="1.06862" transform="matrix(0.25318 0.967419 -0.964368 0.264565 15.2278 20.5493)" fill="#DA1A5F"/>
    <path fill-rule="evenodd" clip-rule="evenodd" d="M31.9063 17.0732C32.8583 20.7106 36.5099 22.8691 40.0625 21.8945C43.6151 20.9199 45.7233 17.1811 44.7714 13.5438C43.8195 9.90648 40.1679 7.74792 36.6153 8.72255C33.0627 9.69717 30.9544 13.4359 31.9063 17.0732ZM30.0014 17.6675C29.8519 17.0965 29.2694 16.7603 28.7003 16.9164L24.7267 18.0065C24.1575 18.1627 23.8173 18.7521 23.9667 19.323C24.1161 19.894 24.6986 20.2303 25.2678 20.0741L29.2414 18.984C29.8105 18.8279 30.1508 18.2384 30.0014 17.6675Z" fill="#DA1A5F"/>
    <ellipse cx="38.3413" cy="15.305" rx="4.80855" ry="4.81623" fill="#181818"/>
    <path d="M54.5873 32H55.6985C56.4604 32 56.9366 31.6508 57.0636 30.8571L58.5557 22.5077H62.3335C63.0955 22.5077 63.5717 22.1585 63.6986 21.3649L63.8256 20.6347C63.9844 19.7458 63.5399 19.2696 62.6827 19.2696H59.1271L60.2065 13.0155H64.9685C65.7304 13.0155 66.2066 12.6663 66.3336 11.8726L66.4606 11.1424C66.6193 10.2535 66.1749 9.7773 65.3177 9.7773H58.27C57.508 9.7773 57.0318 10.1265 56.9048 10.9202L53.4445 30.6349C53.2857 31.5238 53.7302 32 54.5873 32ZM78.2714 11.0472C78.2714 10.2535 77.7634 9.7773 76.9698 9.7773H74.684C73.9538 9.7773 73.4776 10.1265 73.2236 10.7932L66.1124 30.5397C65.7949 31.3968 66.2076 32 67.1283 32H68.1442C68.8743 32 69.3505 31.6508 69.5728 30.9524L70.8744 27.0475H74.9697L74.9062 30.7301C74.9062 31.5873 75.3189 32 76.1443 32H77.2555C78.0809 32 78.5253 31.5873 78.5253 30.7301L78.2714 11.0472ZM71.8903 23.9998L75.1919 14.1266L75.0332 23.9998H71.8903ZM96.4332 16.5711L96.8777 14.0949C97.4809 10.7932 94.9729 9.52333 92.2426 9.52333H92.1792C88.814 9.52333 86.4965 10.7932 85.8933 14.0949L85.3854 17.0156C85.0361 18.9838 86.2743 20.3807 87.9886 21.4601L90.3061 22.9204C91.2902 23.5236 91.576 24.1586 91.3537 25.3649L91.0363 27.111C90.814 28.4761 89.8934 29.0793 88.7823 29.0793C87.6711 29.0793 87.0044 28.4761 87.2267 27.111L87.5759 25.111C87.7346 24.2221 87.2902 23.7459 86.433 23.7459H85.3854C84.6234 23.7459 84.1155 24.1268 83.9885 24.8887L83.5123 27.619C82.9091 31.0793 85.1631 32.254 88.2108 32.254H88.2743C91.9569 32.254 93.957 31.0476 94.5602 27.619L95.1316 24.4125C95.5443 22.1585 94.4649 21.2061 92.4966 19.968L90.1474 18.5076C89.195 17.9045 88.9727 17.2695 89.1632 16.1266L89.4489 14.6028C89.6712 13.2059 90.5601 12.698 91.6395 12.698C92.7188 12.698 93.4173 13.2059 93.195 14.6028L92.8776 16.3489C92.7188 17.2378 93.1633 17.714 94.0205 17.714H95.0681C95.83 17.714 96.3062 17.3648 96.4332 16.5711ZM111.864 9.7773H103.324C102.562 9.7773 102.086 10.1265 101.959 10.9202L101.832 11.6504C101.673 12.5393 102.118 13.0155 102.975 13.0155H105.293L102.213 30.6349C102.054 31.5238 102.499 32 103.356 32H104.467C105.229 32 105.705 31.6508 105.832 30.8571L108.975 13.0155H111.515C112.277 13.0155 112.753 12.6663 112.88 11.8726L113.007 11.1424C113.166 10.2535 112.721 9.7773 111.864 9.7773Z" fill="#F7F7F7"/>
    <defs>
        <filter id="filter0_dd" x="1.57658" y="2.80157" width="39.4246" height="33.4537" filterUnits="userSpaceOnUse" color-interpolation-filters="sRGB">
            <feFlood flood-opacity="0" result="BackgroundImageFix"/>
            <feColorMatrix in="SourceAlpha" type="matrix" values="0 0 0 0 0 0 0 0 0 0 0 0 0 0 0 0 0 0 127 0"/>
            <feOffset dy="0.315992"/>
            <feGaussianBlur stdDeviation="0.105331"/>
            <feColorMatrix type="matrix" values="0 0 0 0 0 0 0 0 0 0 0 0 0 0 0 0 0 0 0.15 0"/>
            <feBlend mode="normal" in2="BackgroundImageFix" result="effect1_dropShadow"/>
            <feColorMatrix in="SourceAlpha" type="matrix" values="0 0 0 0 0 0 0 0 0 0 0 0 0 0 0 0 0 0 127 0"/>
            <feOffset dy="0.337058"/>
            <feGaussianBlur stdDeviation="0.526653"/>
            <feColorMatrix type="matrix" values="0 0 0 0 0 0 0 0 0 0 0 0 0 0 0 0 0 0 0.25 0"/>
            <feBlend mode="normal" in2="effect1_dropShadow" result="effect2_dropShadow"/>
            <feBlend mode="normal" in="SourceGraphic" in2="effect2_dropShadow" result="shape"/>
        </filter>
    </defs>
</svg>