<svg width="96" height="96" viewBox="0 0 96 96" fill="white" xmlns="http://www.w3.org/2000/svg">
<g clip-path="url(#clip0_2723_4261)">
<path d="M87.9761 74.5533C88.6592 73.542 89.3577 72.6261 88.4048 71.6731C87.5215 70.7894 86.75 71.3984 85.8391 71.8313C80.5831 74.4168 74.7882 75.7169 68.9314 75.6245C52.8061 75.6245 36.0044 64.076 35.9959 47.7612C31.7259 52.9291 29.4027 59.4303 29.4304 66.1339C29.4304 81.4994 41.2686 94.0001 55.8193 94.0001C60.1144 93.9235 64.3611 93.079 68.3586 91.5065C76.2905 87.7028 83.0629 81.8502 87.9761 74.5533Z" fill="black"/>
<path d="M40.8894 38.3735C42.947 36.819 45.4554 35.9781 48.0342 35.9784C49.2664 35.977 50.4908 36.1732 51.6609 36.5595C46.6917 30.5681 37.9429 26.5834 28 26.5834C12.5776 26.5834 0.02734 36.1702 0.00049 47.9617L0 48.0156C0 69.7631 16.4404 94.2115 44.9617 95.9055C33.5405 91.3227 25.4304 79.7217 25.4304 66.1339C25.3806 60.5638 26.7793 55.0764 29.4894 50.2097C32.1995 45.3431 36.1279 41.2644 40.8894 38.3735Z" fill="black"/>
<path d="M47.7966 0C23.5417 0 8.70947 15.8708 2.86548 32.2678C8.72559 26.3695 17.8061 22.5834 28 22.5834C45.6731 22.5834 60 33.9628 60 48H59.9883C59.9722 50.816 58.9805 53.5393 57.1821 55.7063C56.4224 56.5769 55.8843 57.0818 55.8843 57.9127C55.8843 59.6405 58.9307 63.9265 73.0317 63.9265C82.7991 63.9265 96 56.3182 96 40.8132C96 23.0408 79.2988 0 47.7966 0Z" fill="black"/>
</g>
<defs>
<clipPath id="clip0_2723_4261">
<rect width="96" height="96" fill="white"/>
</clipPath>
</defs>
</svg>
