<svg viewBox="0 0 503.75934 190.7" width="503.75934" height="190.7">
  <g transform="translate(-4.240654,-169.6)" fill="currentColor">
    <path
      d="m 256.1,169.6 c 1.4,0.3 2.8,0.6 4.2,0.7 3,0.2 6,0.1 9,0.3 7.7,0.6 15.3,1.9 22.5,4.6 -0.9,2.5 -0.9,2.7 1,3.9 2.6,1.7 5.4,3.1 8.2,4.7 -0.3,0.2 -0.4,0.4 -0.5,0.3 -1.1,-0.4 -2.2,-0.8 -3.2,-1.3 -15,-7.8 -31.1,-9.5 -47.7,-8.4 -14.2,0.9 -27.8,4.4 -41.4,8.3 -5,1.5 -9.9,3.5 -13.9,6.9 -3.6,3 -4.1,7.1 -1.2,10.7 1.7,2.3 4,3.8 6.8,4.4 2.4,0.5 4.9,0.8 7.4,0.9 13.5,0.5 26.9,1 40.4,1.4 17.8,0.6 35.6,1.2 53.3,1.5 18.8,0.3 37.7,1 56.5,-0.5 4.2,-0.3 8.3,-0.6 12.2,-2.5 0.8,-0.4 2,-0.3 3,-0.2 7.2,0.6 14.3,1.2 21.5,1.8 16.7,1.3 33.3,3.3 49.6,7.2 9.5,2.3 18.9,5 28.4,8.8 -2,2.4 -0.6,4.2 0.7,6 1.2,1.7 2.5,3.4 3.7,5.1 0.9,1.2 1.7,2.4 2.8,3.9 -1.1,0.1 -1.6,0.2 -2.1,0.2 -1.6,0 -3.1,0 -4.7,0.1 -2.2,0.2 -4,-0.6 -5.7,-1.9 -13.2,-10.4 -28.1,-16.4 -45,-17 -11.9,-0.4 -23.8,-1.2 -35.7,-1.4 -23.3,-0.5 -46.6,-0.5 -69.8,-1 -22.7,-0.5 -45.5,-1.5 -68.2,-2.3 -18.3,-0.6 -36.6,-1.2 -54.9,-1.8 -7.6,-0.3 -15.2,-0.7 -22.7,-0.8 -11.2,-0.2 -22.5,-0.5 -33.7,-0.2 -11.8,0.3 -23.5,1 -35.3,-0.4 -3.5,-0.4 -7,-0.5 -9.5,-4 -0.9,2.5 -1.6,4.5 -2.4,6.5 l 0.1,0.1 c -0.2,-2.1 1.6,-4.5 -0.9,-6.3 1.1,-2.7 2.2,-5.3 3.4,-8.1 0.8,4.1 1.6,4.8 5.5,5.1 0.5,0 1,0.1 1.6,0.1 8.5,-0.6 16.9,-1.1 25.4,-1.7 1.2,-0.1 2.3,-0.4 3.4,-0.9 1.6,-0.8 1.6,-2 0.1,-3.2 -0.4,-0.3 -0.8,-0.5 -1.7,-1.1 1.5,0 2.4,-0.1 3.2,0 9.1,1 17.6,-1.2 26.1,-4.1 12.6,-4.3 25.2,-8.6 37.8,-12.8 3.3,-1.1 6.8,-2 9.6,-4.3 0.8,-0.6 1.9,-0.8 2.9,-1 14.5,-3.1 29,-5.3 43.8,-5.6 1.5,0 3.1,-0.5 4.6,-0.7 0.4,0 1,0 1.5,0 z M 127,207.7 c 14.5,0 29,-0.3 43.5,0 10.8,0.2 21.7,1 32.5,1.5 1.4,0.1 2.8,0 4.2,0 0.1,-0.3 0.2,-0.5 0.2,-0.8 -0.7,-0.4 -1.3,-1 -2,-1.1 -10.5,-1.8 -21.1,-3.9 -31.8,-4.1 -6.8,-0.2 -13.6,-0.9 -20.3,-0.5 -9.4,0.6 -18.7,1.9 -28,3 -0.9,0.1 -1.8,0.7 -2.7,1 0,0.3 0,0.6 0.1,0.9 1.4,0 2.8,0.1 4.3,0.1 z m 335.6,13.8 c -12.7,-4.2 -25.7,-6.9 -39,-8.1 -19.2,-1.7 -38.5,-2.9 -57.8,-4.4 -0.8,-0.1 -1.6,0 -2.3,0.1 -0.3,0 -0.6,0.4 -1.3,0.8 1.5,1.3 3.2,1.3 4.8,1.4 14.7,1.1 29.4,2.1 44.1,3.4 16.9,1.4 33.7,3.5 50.2,8.1 1,0.3 2,0.5 3,0.7 0.2,0 0.4,-0.2 1.1,-0.5 -1.1,-0.7 -1.9,-1.2 -2.8,-1.5 z"
    />
    <path
      d="m 85.8,177.4 c 2.5,3.9 5.4,7.6 7.3,11.8 1.8,4.1 2.5,8.7 3.8,13.6 9.4,0 18.9,-0.4 28.4,-1.6 0.2,-0.4 0.4,-0.7 0.6,-1.1 -0.8,-0.5 -1.7,-0.8 -2.3,-1.4 -6.1,-5.9 -12.1,-11.8 -18.1,-17.9 -1.8,-1.9 -3.6,-3.2 -6.3,-3.4 -4.3,-0.2 -8.5,-0.7 -12.7,-1.1 -0.3,0.4 -0.5,0.7 -0.7,1.1 z"
    />
    <path
      d="m 355.1,205.3 c -15.3,-9.8 -54.8,-27.7 -60,-26.8 0.9,0.6 1.4,1 2,1.3 13,7.5 26.2,14.7 39,22.6 6,3.8 11.9,4.8 19,2.9 z"
    />
    <path
      d="m 310,205.1 c 5.3,1.3 10.1,-0.2 14.8,-1.2 -0.7,-4.3 -1.5,-5.2 -5.4,-5.9 -1.8,-0.3 -3.6,-0.6 -5.4,-0.6 -4.2,0 -5.6,1.9 -4.6,6.1 0.1,0.5 0.4,1 0.6,1.6 z"
    />
    <path
      d="m 169,186.8 c -11.6,3 -23.2,5.9 -35.1,9 3.6,0.7 7.1,0.7 10.4,-0.3 8.3,-2.6 16.7,-5.3 25,-7.9 -0.1,-0.3 -0.2,-0.5 -0.3,-0.8 z"
    />
    <path
      d="m 499.5,270.3 c 0.2,-4.5 0.4,-9.1 0.6,-13.6 0.1,-3.1 0.3,-6.3 0.6,-9.4 0.3,-3.5 -0.3,-6.5 -3.1,-8.2 -4.4,0.6 -8.4,1.1 -11.6,1.5 2.3,0 5.3,0 8.3,0 3.2,0 4.3,0.9 4.6,4.1 0.2,2.8 -0.2,5.7 -0.2,8.6 0,5.7 0,11.3 0,17 0.2,0 0.5,0 0.8,0 z"
    />
    <path
      d="m 473.3,226.4 c 2.7,1.5 5.4,2.8 7.8,4.5 2.5,1.8 4.9,3.9 7,6.2 1.2,1.3 2.1,1.7 3.9,0.7 -0.5,-0.8 -0.8,-1.6 -1.3,-2.2 -3.9,-4.2 -8.6,-7.5 -13.8,-10.1 -1.5,-0.8 -2.9,-1.3 -3.6,0.9 z"
    />
    <path
      d="m 192.2,336.8 c 0,3.2 2.2,4.9 4.6,4.9 2.9,0 5.5,-1.4 6.3,-5.4 l 7.5,-42.8 h 21.2 L 224,338 c -2.9,16.1 -13.8,22.1 -29.6,22.1 -14,0 -23.7,-7.5 -23.7,-19.9 0,-1.4 0.1,-2.9 0.7,-6.3 l 7.1,-40.4 h 21.2 l -7.1,40.4 c -0.4,1.9 -0.4,2.5 -0.4,2.9 z"
    />
    <path
      d="m 272.9,332.6 11.1,26.8 h -24.4 l -7.1,-20.7 -3.7,20.7 h -21.6 l 11.6,-65.9 h 26.1 c 15.3,0 21.7,9.6 21.7,19 0,12.4 -5.1,16.4 -13.7,20.1 z M 259.4,319 c 3.8,0 5.7,-2.5 5.7,-5.4 0,-2.6 -1.9,-4.3 -4.5,-4.3 h -3 l -1.7,9.6 z"
    />
    <path d="m 289,359.4 11.6,-65.9 h 21.1 l -11.6,65.9 z" />
    <path
      d="m 358,292.7 c 22.1,0 32.4,14.9 32.4,30.6 0,18.4 -13.3,37 -37.8,37 -21.7,0 -32,-15 -32,-30.8 0.1,-17.9 13.1,-36.8 37.4,-36.8 z m -1.6,19.7 c -8.2,0 -12.8,8.2 -12.8,15.6 0,6.1 3.1,11.7 10.1,11.7 8.2,0 12.8,-8.2 12.8,-15.6 0,-6.2 -3.2,-11.7 -10.1,-11.7 z"
    />
    <path
      d="m 414,336.8 c 0,3.2 2.2,4.9 4.6,4.9 2.9,0 5.5,-1.4 6.3,-5.4 l 7.5,-42.8 h 21.2 l -7.9,44.5 c -2.9,16.1 -13.8,22.1 -29.6,22.1 -14,0 -23.7,-7.5 -23.7,-19.9 0,-1.4 0.1,-2.9 0.6,-6.3 l 7.1,-40.4 h 21.2 l -7.1,40.4 c -0.2,1.9 -0.2,2.5 -0.2,2.9 z"
    />
    <path
      d="m 476.6,359.9 c -12.8,0 -22.2,-4.9 -28.2,-8.7 l 6.9,-13.7 c 6.7,4.1 10.9,6.6 18,6.6 4.1,0 6.5,-2 6.5,-4.1 0,-1.9 -1.9,-3.9 -5.2,-4.4 -13.5,-2.2 -19.1,-8.7 -19.1,-18.7 0,-11.4 10.3,-23.7 26.8,-23.7 12.9,0 19.3,2.8 25.7,6 l -6.9,14.2 c -6.2,-3.3 -11.2,-4.6 -18.3,-4.6 -2.7,0 -5.2,2 -5.2,4.1 0,1.9 1.8,3.8 6.7,4.5 13.6,2 21.4,10.4 21.4,21.9 0.1,11.5 -8.7,20.6 -29.1,20.6 z"
    />
    <path
      d="m 176.5,276.9 4.8,-27.4 h -51.7 v 0 c -8.9,0 -17.8,0 -26.8,0 -4.1,0 -8.3,0 -12.4,0.2 -2.6,0.1 -4.3,1.9 -4.5,4.4 -0.2,2.4 1.1,4.1 3.7,4.7 1.2,0.3 2.4,0.4 3.6,0.4 2.7,0.1 5.3,0 8,0 2.2,0 3.7,1.1 4.5,3.1 1.5,3.7 -1,7.2 -5.2,7.2 -13.8,0 -27.5,0 -41.3,0 -0.8,0 -1.6,0 -2.3,0 -2.5,0.3 -4,2.1 -4,4.8 0,2.7 1.6,4.5 4.1,4.6 0.7,0.1 1.4,0 2.1,0 17.7,0 35.4,0 53.1,0.1 3.8,0 5.9,1.9 5.9,5.2 0,3.3 -2.1,5.3 -5.8,5.3 -5.5,0 -11.1,0 -16.7,0 -1.6,0 -3.3,0 -4.8,0.2 -3.2,0.4 -4.5,2.2 -4.2,5.4 0.2,2.4 1.9,3.9 5.1,4.1 2.4,0.1 4.8,0 7.2,0.1 2.2,0 3.9,0.9 4.8,3 1.6,3.6 -0.7,7.3 -4.7,7.3 -16.7,0.1 -33.4,0.1 -50,0.2 -13.2,0 -26.4,0 -39.6,0.2 -1.2,0 -2.7,0.5 -3.7,1.3 -1.5,1.2 -1.8,3.1 -1.1,4.9 0.7,2 2.3,2.9 4.3,2.9 4.7,0.1 9.3,0.2 14,0.2 17.2,0 34.4,0 51.6,0 10.5,0 20.9,0 31.4,0 3.3,0 5.3,2.1 5.3,5.1 0,3.2 -2.1,5.2 -5.7,5.2 -16.9,0 -33.7,0 -50.6,0 -3.2,0 -5,1.8 -5,4.8 0,2.9 1.8,4.7 4.9,4.7 4.3,0 8.5,0 12.8,0 7.4,0 14.7,0 22.1,0 3.1,0 5.1,1.5 5.6,4 0.7,3.6 -1.5,6.4 -5.3,6.4 -5,0.1 -10.1,0 -15.1,0 -1.9,0 -3.4,0.7 -4.3,2.4 -1.8,3.4 0.5,7.1 4.4,7.1 11.8,0 23.6,0 35.4,0.1 v 0 h 16 l 6.6,-37.7 h 33.7 l 4.8,-27.4 h -33.6 l 3.1,-17.4 h 35.5 z"
    />
    <path
      d="m 56.7,299.2 c -6.9,0 -13.8,0 -20.8,0 -3.8,0 -6,-3.4 -4.4,-6.9 0.8,-2 2.5,-2.6 4.5,-2.6 11.2,0 22.4,0 33.5,0 2.7,0 5.4,0 8.2,0 3,0 4.7,1.8 4.8,4.7 0,2.9 -1.8,4.8 -4.8,4.9 -7,0 -14,0 -20.9,0 -0.1,-0.1 -0.1,-0.1 -0.1,-0.1 z"
    />
    <path
      d="m 48.5,349.8 c 3.3,0 6.6,0 9.9,0 3.1,0 4.9,1.8 4.9,4.7 0.1,2.8 -1.9,4.7 -5,4.8 -6.6,0 -13.2,0 -19.8,0 -3.1,0 -4.9,-1.8 -4.9,-4.8 0,-3 1.7,-4.7 4.9,-4.7 3.3,0 6.6,0 9.9,0 0.1,0 0.1,0 0.1,0 z"
    />
    <path
      d="m 67.1,259.4 c -1.5,-0.1 -3.6,-0.2 -5.7,-0.5 -2.5,-0.4 -3.8,-2.1 -3.8,-4.6 0,-2.3 1.3,-4.2 3.8,-4.4 4,-0.3 8,-0.3 11.9,-0.2 2.2,0.1 3.7,2.2 3.7,4.5 0,2.4 -1.4,4.4 -3.7,4.7 -1.8,0.4 -3.7,0.4 -6.2,0.5 z"
    />
    <path
      d="m 333.5,222.2 c -18.6,-0.3 -37.1,-1 -55.6,-1.6 -12,-0.4 -24,-1.1 -36,-1.6 -12.5,-0.5 -9.3,-0.5 -21.5,-0.9 -2.1,-0.1 -3.3,0.1 -4.5,1.2 -2.3,2.2 -2.6,1.8 -2.7,4.2 -0.1,8.5 9.9,26.5 12.3,28.4 2.8,2.2 21.9,2.6 31.2,3 19.1,0.8 38.1,1.6 57.2,2.5 15.9,0.7 31.9,1.4 47.8,2.3 7.7,0.5 15.3,1.4 23,2.1 0.7,0.1 1.3,0.1 1.9,0.3 4.7,1.9 0.7,-18.3 13.1,-32.5 3.1,-3.5 4.8,-5.4 15.4,-6.5 -27.5,-0.3 -54.5,-0.4 -81.6,-0.9 z m -106,20.5 c -0.1,-0.5 0.2,-1 0.7,-1.2 l 11.9,-3.3 c 0.5,-0.1 1.1,0.2 1.2,0.7 0.1,0.5 -0.2,1 -0.7,1.2 l -11.9,3.3 c -0.6,0.1 -1.1,-0.2 -1.2,-0.7 z m 36.4,-3.5 c -0.1,0.1 -0.3,0.1 -0.4,0.1 -0.9,5.2 -4.8,9.7 -10.1,11.2 -5.1,1.4 -10.3,-0.3 -13.7,-3.8 -0.5,-0.5 -1.1,-0.6 -1.6,-0.5 H 238 c -0.5,0.1 -1.1,-0.2 -1.2,-0.7 -0.1,-0.5 0.2,-1 0.7,-1.2 l 11.5,-3.2 c 0.5,-0.1 1.1,0.2 1.2,0.7 0.1,0.5 -0.2,1 -0.7,1.2 l -5.9,1.6 c -1.1,0.4 -1.6,1.7 -0.5,2.4 2.8,1.8 6.4,2.5 9.7,1.6 4.5,-1.2 7.8,-4.9 8.7,-9.3 -2.4,-0.3 -4.5,-2 -5.1,-4.5 -0.6,-2.5 0.3,-5.1 2.2,-6.5 -2.9,-3.2 -7.5,-4.6 -11.9,-3.5 -3.6,1 -6.5,3.6 -8,6.9 -0.5,1.1 0.5,2 1.6,1.7 l 0.6,-0.2 c 0.5,-0.1 1.1,0.2 1.2,0.7 0.1,0.5 -0.2,1 -0.7,1.2 l -10.6,2.9 c -0.5,0.1 -1.1,-0.2 -1.2,-0.7 -0.1,-0.5 0.2,-1 0.7,-1.2 l 4.6,-1.3 c 0.6,-0.2 1.1,-0.6 1.2,-1.3 1.1,-5.1 4.8,-9.3 10.1,-10.7 5.3,-1.4 10.7,0.5 14.1,4.5 0.2,-0.1 0.3,-0.2 0.5,-0.2 3.3,-0.9 6.6,1.1 7.5,4.4 0.6,3.4 -1.3,6.8 -4.4,7.7 z m -20.2,-2 2.6,-0.7 c 0.5,-0.1 1.1,0.2 1.2,0.7 0.1,0.5 -0.2,1 -0.7,1.2 l -2.6,0.7 c -0.5,0.2 -1.1,-0.2 -1.2,-0.7 -0.1,-0.6 0.2,-1 0.7,-1.2 z m 6.1,-1.5 3.6,-1 c 0.5,-0.1 1.1,0.2 1.2,0.7 0.1,0.5 -0.2,1 -0.7,1.2 l -3.6,1 c -0.5,0.1 -1.1,-0.2 -1.2,-0.7 -0.1,-0.6 0.2,-1.1 0.7,-1.2 z"
    />
    <circle cx="262.1" cy="233.2" r="4.4" />
  </g>
</svg>
