<svg xmlns="https://www.w3.org/2000/svg" class="icon icon-palette" width="20" height="20" viewBox="0 0 20 20">
	<path d="M1.77405 4.01413C4.72422 -0.0894092 10.8318 -1.28348 15.1796 1.54073C19.4728 4.32946 21.0517 9.69108 19.2933 14.7217C17.633 19.4719 13.2582 21.3539 10.1051 18.9644C8.92397 18.0694 8.46609 16.9473 8.24477 15.1248L8.13906 14.0894L8.0935 13.6729C7.9705 12.694 7.78149 12.2555 7.38699 12.0258C6.84973 11.7129 6.49199 11.7056 5.78653 11.9912L5.43433 12.1438L5.25504 12.2255C4.2381 12.6869 3.56161 12.849 2.70595 12.6617L2.50508 12.6123L2.34104 12.5634C-0.456623 11.6577 -0.871 7.69326 1.77405 4.01413ZM2.76134 11.0529L2.88463 11.0911L3.01899 11.1234C3.45944 11.2146 3.83586 11.1386 4.46049 10.87L5.06454 10.6004C6.27043 10.0838 7.05597 10.0333 8.11956 10.6527C9.04001 11.1887 9.39876 12.0125 9.58174 13.44L9.6351 13.9211L9.68948 14.4784L9.73676 14.9211C9.90937 16.3477 10.2232 17.1119 10.9886 17.692C13.271 19.4216 16.5403 18.0152 17.8799 14.1825C19.4009 9.83105 18.0546 5.25933 14.3851 2.87572C10.6995 0.481614 5.45895 1.50616 2.97716 4.9582C0.895903 7.85312 1.15117 10.4912 2.76134 11.0529ZM14.0208 8.96284C13.8416 8.264 14.2385 7.54568 14.9074 7.35843C15.5764 7.17118 16.2639 7.5859 16.4432 8.28474C16.6224 8.98357 16.2254 9.70189 15.5565 9.88914C14.8876 10.0764 14.2 9.66168 14.0208 8.96284ZM14.5169 12.6189C14.3377 11.9201 14.7347 11.2018 15.4036 11.0145C16.0725 10.8273 16.76 11.242 16.9393 11.9408C17.1185 12.6397 16.7216 13.358 16.0526 13.5452C15.3837 13.7325 14.6962 13.3178 14.5169 12.6189ZM12.0361 5.81604C11.8569 5.11721 12.2539 4.39889 12.9228 4.21163C13.5917 4.02438 14.2792 4.4391 14.4585 5.13794C14.6377 5.83678 14.2407 6.5551 13.5718 6.74235C12.9029 6.9296 12.2154 6.51488 12.0361 5.81604ZM12.0076 15.2463C11.8283 14.5475 12.2253 13.8291 12.8942 13.6419C13.5631 13.4546 14.2507 13.8694 14.4299 14.5682C14.6091 15.267 14.2122 15.9854 13.5433 16.1726C12.8744 16.3599 12.1868 15.9451 12.0076 15.2463ZM8.49974 4.79782C8.32051 4.09898 8.71747 3.38066 9.38638 3.19341C10.0553 3.00616 10.7428 3.42088 10.9221 4.11972C11.1013 4.81855 10.7044 5.53687 10.0354 5.72412C9.36653 5.91138 8.67898 5.49665 8.49974 4.79782Z"/>
</svg>
