<svg
   xmlns:dc="http://purl.org/dc/elements/1.1/"
   xmlns:cc="http://creativecommons.org/ns#"
   xmlns:rdf="http://www.w3.org/1999/02/22-rdf-syntax-ns#"
   xmlns:svg="http://www.w3.org/2000/svg"
   xmlns="http://www.w3.org/2000/svg"
   viewBox="0 0 712.35864 288"
   height="288"
   width="712.35864"
   xml:space="preserve"
   id="svg2"
   version="1.1"><metadata
     id="metadata8"><rdf:RDF><cc:Work
         rdf:about=""><dc:format>image/svg+xml</dc:format><dc:type
           rdf:resource="http://purl.org/dc/dcmitype/StillImage" /></cc:Work></rdf:RDF></metadata><defs
     id="defs6"><clipPath
       id="clipPath30"
       clipPathUnits="userSpaceOnUse"><path
         id="path28"
         d="M 0,216 H 534.269 V 0 H 0 Z" /></clipPath></defs><g
     transform="matrix(1.3333333,0,0,-1.3333333,0,288)"
     id="g10"><path
       id="path12"
       style="fill-opacity:1;fill-rule:nonzero;stroke:none"
       d="M 106.218,109.78 H 72 v 34.218 h 34.218 z" /><path
       id="path14"
       style="fill-opacity:1;fill-rule:nonzero;stroke:none"
       d="m 143.997,109.78 h -34.218 v 34.218 h 34.218 z" /><path
       id="path16"
       style="fill-opacity:1;fill-rule:nonzero;stroke:none"
       d="M 106.218,72.001 H 72 v 34.219 h 34.218 z" /><path
       id="path18"
       style="fill-opacity:1;fill-rule:nonzero;stroke:none"
       d="m 143.997,72.001 h -34.218 v 34.219 h 34.218 z" /><g
       transform="translate(216.8485,129.6036)"
       id="g20"><path
         id="path22"
         style="fill-opacity:1;fill-rule:nonzero;stroke:none"
         d="M 0,0 H 7.833 L -3.946,-43.202 h -8.768 l -8.676,32.597 h -0.18 l -8.677,-32.597 h -8.948 L -51.246,0 h 8.194 l 8.406,-34.164 h 0.181 L -25.065,0 h 8.013 l 8.767,-34.104 h 0.181 z" /></g><g
       id="g24"><g
         clip-path="url(#clipPath30)"
         id="g26"><path
           id="path32"
           style="fill-opacity:1;fill-rule:nonzero;stroke:none"
           d="m 235.166,86.401 h -7.291 v 30.971 h 7.291 z m -8.044,39.918 c 0,1.205 0.436,2.215 1.311,3.028 0.874,0.814 1.913,1.22 3.118,1.22 1.285,0 2.349,-0.417 3.193,-1.25 0.844,-0.834 1.266,-1.833 1.266,-2.998 0,-1.185 -0.433,-2.179 -1.296,-2.982 -0.864,-0.803 -1.918,-1.205 -3.163,-1.205 -1.245,0 -2.295,0.407 -3.149,1.22 -0.853,0.814 -1.28,1.802 -1.28,2.967" /><g
           transform="translate(269.9931,105.3511)"
           id="g34"><path
             id="path36"
             style="fill-opacity:1;fill-rule:nonzero;stroke:none"
             d="m 0,0 v -18.95 h -7.291 v 17.293 c 0,2.832 -0.478,4.941 -1.431,6.327 -0.954,1.386 -2.486,2.079 -4.594,2.079 -2.049,0 -3.742,-0.774 -5.077,-2.32 -1.336,-1.547 -2.003,-3.495 -2.003,-5.845 V -18.95 h -7.291 v 30.971 h 7.291 V 7.923 h 0.121 c 1.144,1.587 2.549,2.777 4.217,3.571 1.667,0.793 3.595,1.19 5.785,1.19 3.294,0 5.829,-1.05 7.606,-3.149 C -0.889,7.437 0,4.258 0,0" /></g><g
           transform="translate(290.3925,91.5533)"
           id="g38"><path
             id="path40"
             style="fill-opacity:1;fill-rule:nonzero;stroke:none"
             d="m 0,0 c 2.209,0 4.057,0.874 5.544,2.621 1.485,1.747 2.228,4.026 2.228,6.838 v 3.315 c 0,2.148 -0.708,3.981 -2.123,5.498 -1.416,1.516 -3.178,2.274 -5.288,2.274 -2.571,0 -4.553,-0.944 -5.95,-2.832 -1.395,-1.888 -2.094,-4.539 -2.094,-7.953 0,-3.073 0.689,-5.468 2.065,-7.185 C -4.243,0.858 -2.37,0 0,0 m 7.713,40.521 h 7.29 V -5.152 h -7.29 v 4.097 H 7.592 C 6.487,-2.581 5.097,-3.721 3.42,-4.474 c -1.678,-0.753 -3.641,-1.13 -5.891,-1.13 -3.896,0 -6.999,1.336 -9.308,4.007 -2.311,2.671 -3.465,6.377 -3.465,11.117 0,5.122 1.28,9.224 3.841,12.307 2.561,3.083 5.99,4.624 10.289,4.624 1.947,0 3.665,-0.321 5.151,-0.964 1.486,-0.643 2.671,-1.577 3.555,-2.801 h 0.121 z" /></g><g
           transform="translate(318.0233,101.6758)"
           id="g42"><path
             id="path44"
             style="fill-opacity:1;fill-rule:nonzero;stroke:none"
             d="m 0,0 c 0,-3.234 0.733,-5.705 2.2,-7.411 1.466,-1.708 3.565,-2.561 6.296,-2.561 2.651,0 4.67,0.853 6.056,2.561 1.386,1.706 2.079,4.237 2.079,7.592 0,3.334 -0.719,5.849 -2.154,7.547 -1.437,1.696 -3.45,2.545 -6.041,2.545 C 5.765,10.273 3.691,9.384 2.215,7.607 0.738,5.83 0,3.293 0,0 m -7.592,-0.241 c 0,5.121 1.446,9.179 4.339,12.171 2.892,2.993 6.908,4.489 12.051,4.489 4.84,0 8.621,-1.441 11.343,-4.323 2.72,-2.883 4.082,-6.774 4.082,-11.674 0,-5.022 -1.447,-9.019 -4.339,-11.991 -2.892,-2.973 -6.828,-4.458 -11.81,-4.458 -4.801,0 -8.611,1.41 -11.432,4.232 -2.823,2.822 -4.234,6.673 -4.234,11.554" /></g><g
           transform="translate(382.7411,117.3721)"
           id="g46"><path
             id="path48"
             style="fill-opacity:1;fill-rule:nonzero;stroke:none"
             d="m 0,0 h 6.989 l -9.038,-30.971 h -7.743 l -6.115,22.445 h -0.121 l -6.417,-22.445 h -7.653 L -39.105,0 h 7.562 l 5.754,-23.74 h 0.181 L -18.83,0 h 6.96 l 6.115,-23.831 h 0.181 z" /></g><g
           transform="translate(398.953,109.2378)"
           id="g50"><path
             id="path52"
             style="fill-opacity:1;fill-rule:nonzero;stroke:none"
             d="m 0,0 c 0,-1.045 0.332,-1.863 0.994,-2.456 0.663,-0.592 2.129,-1.34 4.399,-2.244 2.912,-1.165 4.956,-2.476 6.13,-3.931 1.176,-1.457 1.763,-3.22 1.763,-5.288 0,-2.912 -1.12,-5.252 -3.359,-7.019 -2.24,-1.768 -5.268,-2.651 -9.083,-2.651 -1.285,0 -2.707,0.155 -4.263,0.466 -1.557,0.311 -2.877,0.708 -3.962,1.19 v 7.171 c 1.325,-0.925 2.751,-1.657 4.278,-2.199 1.526,-0.543 2.913,-0.814 4.158,-0.814 1.646,0 2.862,0.231 3.645,0.693 0.783,0.461 1.175,1.235 1.175,2.32 0,1.004 -0.406,1.852 -1.22,2.545 -0.813,0.693 -2.355,1.491 -4.625,2.395 -2.691,1.125 -4.599,2.39 -5.723,3.797 -1.125,1.405 -1.688,3.193 -1.688,5.362 0,2.791 1.11,5.086 3.329,6.884 2.219,1.797 5.096,2.696 8.631,2.696 1.085,0 2.3,-0.12 3.646,-0.361 C 9.57,8.315 10.695,8.003 11.6,7.622 V 0.693 C 10.635,1.335 9.51,1.887 8.225,2.35 6.939,2.812 5.664,3.042 4.398,3.042 3.013,3.042 1.933,2.771 1.16,2.229 0.387,1.687 0,0.944 0,0" /></g><g
           transform="translate(424.1249,124)"
           id="g54"><path
             id="path56"
             style="fill-opacity:1;fill-rule:nonzero;stroke:none"
             d="m 0,0 c 2.691,0.883 5.057,1.848 7.095,2.892 2.039,1.044 4.032,2.27 5.98,3.675 H 16.39 V -37.599 H 9.099 V -2.26 C 7.913,-3.124 6.553,-3.892 5.017,-4.564 3.479,-5.238 1.808,-5.785 0,-6.207 Z" /></g><g
           transform="translate(445.8769,124)"
           id="g58"><path
             id="path60"
             style="fill-opacity:1;fill-rule:nonzero;stroke:none"
             d="m 0,0 c 2.691,0.883 5.057,1.848 7.095,2.892 2.039,1.044 4.032,2.27 5.98,3.675 H 16.39 V -37.599 H 9.099 V -2.26 C 7.913,-3.124 6.553,-3.892 5.017,-4.564 3.479,-5.238 1.808,-5.785 0,-6.207 Z" /></g></g></g></g></svg>
