<svg xmlns="https://www.w3.org/2000/svg" class="icon icon-share" width="12" height="14" viewBox="0 0 12 14">
	<path d="M11.4857 6.17143C11.7461 6.17143 11.9613 6.36491 11.9953 6.61593L12 6.68571V11.4863C12 12.6747 11.0699 13.6458 9.89789 13.7114L9.77143 13.7149H2.22857C1.04021 13.7149 0.0690885 12.7847 0.00352789 11.6128L0 11.4863V6.68571C0 6.40168 0.230254 6.17143 0.514286 6.17143C0.774649 6.17143 0.989822 6.36491 1.02388 6.61593L1.02857 6.68571V11.4863C1.02857 12.1159 1.51345 12.6323 2.13015 12.6823L2.22857 12.6863H9.77143C10.401 12.6863 10.9174 12.2014 10.9675 11.5847L10.9714 11.4863V6.68571C10.9714 6.40168 11.2017 6.17143 11.4857 6.17143ZM2.20484 3.57689L5.63084 0.150644C5.81331 -0.0318436 6.09883 -0.0485494 6.30017 0.100608L6.35786 0.150331L9.78976 3.57658C9.99077 3.77726 9.99103 4.10288 9.79036 4.30389C9.60793 4.48662 9.32223 4.50346 9.12077 4.35424L9.06305 4.30449L6.51017 1.75611L6.51078 9.77482C6.51078 10.0352 6.3173 10.2504 6.06628 10.2844L5.99649 10.2891C5.73613 10.2891 5.52096 10.0956 5.4869 9.84461L5.48221 9.77482L5.4816 1.75406L2.93218 4.30418C2.7496 4.48677 2.46389 4.50337 2.26255 4.354L2.20487 4.3042C2.02228 4.12163 2.00567 3.83592 2.15505 3.63458L2.20484 3.57689L5.63084 0.150644L2.20484 3.57689Z"/>
</svg>
