<svg xmlns="https://www.w3.org/2000/svg" class="icon icon-play" width="14" height="16" viewBox="0 0 14 16">
	<path d="M2.52634 1.20452C1.70406 0.753412 0.668346 1.04814 0.21302 1.86281C0.0733009 2.11279 0 2.39386 0 2.67961V14.307C0 15.2383 0.761969 15.9932 1.7019 15.9932C1.9904 15.9932 2.27415 15.9205 2.52652 15.782L13.1224 9.9675C13.9446 9.5163 14.242 8.49015 13.7866 7.67553C13.6318 7.39875 13.4016 7.17069 13.1222 7.01742L2.52634 1.20452ZM12.794 8.22018C12.9459 8.49172 12.8467 8.83377 12.5727 8.98417L1.97678 14.7987C1.89265 14.8449 1.79807 14.8691 1.7019 14.8691C1.38859 14.8691 1.1346 14.6174 1.1346 14.307V2.67961C1.1346 2.58436 1.15904 2.49067 1.20561 2.40734C1.35738 2.13579 1.70262 2.03754 1.97672 2.18791L12.5726 8.00081C12.6657 8.0519 12.7425 8.12792 12.794 8.22018Z"/>
</svg>
