<svg version="1.0" xmlns="http://www.w3.org/2000/svg"
 width="375.000000pt" height="323.000000pt" viewBox="0 0 375.000000 323.000000"
 preserveAspectRatio="xMidYMid meet">

<g transform="translate(0.000000,323.000000) scale(0.100000,-0.100000)"
fill="#FFFFFF" stroke="none">
<path d="M2130 3221 c0 -5 -15 -12 -34 -15 -57 -11 -151 -64 -200 -114 -97
-97 -135 -232 -102 -359 19 -76 48 -124 112 -184 62 -57 118 -90 237 -139 142
-58 195 -87 242 -135 49 -48 65 -92 65 -175 -1 -106 -69 -195 -175 -225 -115
-34 -303 -12 -424 50 -38 19 -53 22 -56 13 -11 -30 -45 -144 -45 -150 0 -3 24
-18 53 -31 177 -83 450 -87 614 -10 123 59 214 180 231 310 32 233 -84 389
-373 503 -121 48 -191 88 -234 135 -113 123 -59 303 104 350 87 26 228 17 315
-19 36 -15 69 -28 74 -29 8 -2 56 125 56 150 0 15 -54 40 -122 55 -27 6 -48
15 -48 20 0 4 -65 8 -145 8 -80 0 -145 -4 -145 -9z"/>
<path d="M3136 3222 c-3 -5 -54 -12 -113 -15 -59 -4 -125 -10 -145 -13 l-38
-7 0 -738 0 -739 95 0 95 0 0 296 0 297 83 -7 c277 -22 517 87 606 276 30 63
31 69 31 211 0 80 -3 147 -7 149 -5 2 -19 24 -32 50 -31 62 -102 133 -164 164
-63 32 -187 64 -249 64 -30 0 -47 4 -43 10 4 6 -16 10 -54 10 -33 0 -62 -4
-65 -8z m231 -186 c71 -22 132 -71 162 -131 22 -43 26 -62 25 -140 0 -109 -23
-165 -92 -225 -64 -57 -149 -82 -278 -82 -160 -1 -144 -35 -144 302 l0 289 48
4 c85 8 226 -1 279 -17z"/>
<path d="M652 2465 c-139 -407 -252 -744 -252 -748 0 -4 46 -6 102 -5 l102 3
75 232 76 233 262 0 261 0 79 -235 78 -235 107 0 107 0 -100 293 c-55 160
-170 498 -256 750 l-156 458 -117 -3 -117 -2 -251 -741z m480 181 c51 -153 94
-285 96 -292 3 -12 -36 -14 -212 -14 -119 0 -216 1 -216 3 0 1 35 106 79 232
43 127 91 280 107 340 l28 110 13 -50 c7 -27 55 -176 105 -329z"/>
<path d="M390 780 l0 -730 95 0 95 0 2 564 3 564 403 -564 403 -564 95 0 94 0
-2 728 -3 727 -92 3 -93 3 -2 -569 -3 -569 -405 568 -405 568 -92 1 -93 0 0
-730z"/>
<path d="M1770 780 l0 -730 395 0 395 0 0 75 0 75 -300 0 -300 0 0 255 0 255
265 0 265 0 0 75 0 75 -265 0 -265 0 0 245 0 245 300 0 301 0 -3 78 -3 77
-392 3 -393 2 0 -730z"/>
<path d="M2720 1430 l0 -80 210 0 210 0 0 -650 0 -650 95 0 95 0 0 650 0 650
210 0 210 0 0 80 0 80 -515 0 -515 0 0 -80z"/>
<path d="M76 235 c-53 -28 -76 -62 -76 -111 0 -25 6 -51 13 -58 6 -7 21 -25
32 -39 18 -24 26 -27 84 -27 58 0 67 3 92 29 56 59 47 151 -19 196 -42 28 -84
32 -126 10z"/>
</g>
</svg>
