<svg xmlns="http://www.w3.org/2000/svg" class="icon icon-discord" viewBox="0 0 20 23" >
<path d="M12.6367 10.6302C12.6367 11.3019 12.1469 11.8525 11.5265 11.8525C10.917 11.8525 10.4163 11.3019 10.4163 10.6302C10.4163 9.95851 10.9061 9.40793 11.5265 9.40793C12.1469 9.40793 12.6367 9.95851 12.6367 10.6302ZM7.55374 9.40793C6.93333 9.40793 6.44354 9.95851 6.44354 10.6302C6.44354 11.3019 6.94422 11.8525 7.55374 11.8525C8.17415 11.8525 8.66395 11.3019 8.66395 10.6302C8.67483 9.95851 8.17415 9.40793 7.55374 9.40793ZM19.0476 2.43758V22.1924C16.3055 19.7409 17.1825 20.5524 13.9973 17.5565L14.5741 19.5937H2.23129C1.00136 19.5937 0 18.5806 0 17.3253V2.43758C0 1.18226 1.00136 0.169189 2.23129 0.169189H16.8163C18.0463 0.169189 19.0476 1.18226 19.0476 2.43758ZM15.9456 12.8766C15.9456 9.33085 14.3782 6.45682 14.3782 6.45682C12.8109 5.26757 11.3197 5.3006 11.3197 5.3006L11.1673 5.47679C13.0177 6.04939 13.8775 6.87526 13.8775 6.87526C11.292 5.44164 8.25493 5.44139 5.74694 6.55592C5.34422 6.74312 5.10476 6.87526 5.10476 6.87526C5.10476 6.87526 6.00816 6.00534 7.96735 5.43274L7.8585 5.3006C7.8585 5.3006 6.36735 5.26757 4.8 6.45682C4.8 6.45682 3.23265 9.33085 3.23265 12.8766C3.23265 12.8766 4.14694 14.4733 6.55238 14.5504C6.55238 14.5504 6.9551 14.0548 7.28163 13.6364C5.89932 13.218 5.37687 12.337 5.37687 12.337C5.53699 12.4504 5.80102 12.5974 5.82313 12.6123C7.66029 13.6532 10.2699 13.9942 12.615 12.9977C12.9959 12.8546 13.4204 12.6453 13.8667 12.348C13.8667 12.348 13.3224 13.251 11.8966 13.6584C12.2231 14.0769 12.615 14.5504 12.615 14.5504C15.0204 14.4733 15.9456 12.8766 15.9456 12.8766Z"/>
</svg>