<svg xmlns="https://www.w3.org/2000/svg" class="icon icon-context" width="12" height="3" viewBox="0 0 12 3">
	<path d="M6 0C6.70595 0 7.27823 0.671573 7.27823 1.5C7.27823 2.32843 6.70595 3 6 3C5.29405 3 4.72177 2.32843 4.72177 1.5C4.72177 0.671573 5.29405 0 6 0ZM10.7218 0C11.4277 0 12 0.671573 12 1.5C12 2.32843 11.4277 3 10.7218 3C10.0158 3 9.44354 2.32843 9.44354 1.5C9.44354 0.671573 10.0158 0 10.7218 0ZM1.27823 0C1.98418 0 2.55646 0.671573 2.55646 1.5C2.55646 2.32843 1.98418 3 1.27823 3C0.572284 3 0 2.32843 0 1.5C0 0.671573 0.572284 0 1.27823 0Z"/>
</svg>
