<svg xmlns="http://www.w3.org/2000/svg" class="icon icon-twitter" viewBox="0 0 16 17">
<path d="M14.3554 4.82757C14.3655 5.00256 14.3655 5.17759 14.3655 5.35259C14.3655 10.6901 11.066 16.8401 5.03555 16.8401C3.17767 16.8401 1.45179 16.1776 0 15.0276C0.26397 15.0651 0.517752 15.0776 0.791878 15.0776C2.32485 15.0776 3.73605 14.4401 4.86296 13.3526C3.42133 13.3151 2.2132 12.1526 1.79694 10.5526C2.00001 10.5901 2.20304 10.6151 2.41626 10.6151C2.71067 10.6151 3.00511 10.5651 3.2792 10.4776C1.77666 10.1026 0.649721 8.47758 0.649721 6.51508V6.4651C1.08625 6.7651 1.59391 6.9526 2.13195 6.97757C1.24869 6.25255 0.670034 5.01507 0.670034 3.61506C0.670034 2.86507 0.832441 2.17757 1.11672 1.57757C2.73095 4.02757 5.15736 5.62754 7.87816 5.80257C7.82741 5.50257 7.79694 5.1901 7.79694 4.87759C7.79694 2.65257 9.25888 0.840088 11.0761 0.840088C12.0203 0.840088 12.8731 1.32759 13.4721 2.11509C14.2132 1.9401 14.9238 1.60258 15.5533 1.14009C15.3096 2.07761 14.7919 2.86511 14.1117 3.36508C14.7716 3.27762 15.4112 3.05257 16 2.7401C15.5534 3.54007 14.995 4.25254 14.3554 4.82757Z"/>
</svg>