<svg
   xmlns:dc="http://purl.org/dc/elements/1.1/"
   xmlns:cc="http://creativecommons.org/ns#"
   xmlns:rdf="http://www.w3.org/1999/02/22-rdf-syntax-ns#"
   xmlns:svg="http://www.w3.org/2000/svg"
   xmlns="http://www.w3.org/2000/svg"
   viewBox="0 0 522.66669 226.66667"
   height="226.66667"
   width="522.66669"
   xml:space="preserve"
   id="svg2"
   version="1.1"><metadata
     id="metadata8"><rdf:RDF><cc:Work
         rdf:about=""><dc:format>image/svg+xml</dc:format><dc:type
           rdf:resource="http://purl.org/dc/dcmitype/StillImage" /></cc:Work></rdf:RDF></metadata><defs
     id="defs6"><clipPath
       id="clipPath18"
       clipPathUnits="userSpaceOnUse"><path
         id="path16"
         d="M 0,170 H 392 V 0 H 0 Z" /></clipPath></defs><g
     transform="matrix(1.3333333,0,0,-1.3333333,0,226.66667)"
     id="g10"><g
       id="g12"><g
         clip-path="url(#clipPath18)"
         id="g14"><g
           transform="translate(261.0416,34.5457)"
           id="g20"><path
             id="path22"
             style="fill-opacity:1;fill-rule:nonzero;stroke:none"
             d="m 0,0 h -11.485 v 41.178 c 0,8.029 -1.226,13.783 -3.676,17.261 -2.452,3.478 -6.572,5.217 -12.361,5.217 -4.902,0 -9.069,-2.24 -12.499,-6.722 -3.432,-4.482 -5.148,-9.828 -5.148,-16.037 V 0 h -11.485 v 42.578 c 0,14.052 -5.439,21.078 -16.316,21.078 -5.042,0 -9.198,-2.112 -12.465,-6.337 -3.268,-4.226 -4.902,-9.699 -4.902,-16.422 V 0 h -11.485 v 71.711 h 11.485 V 60.365 h 0.28 c 5.088,8.73 12.488,13.096 22.198,13.096 4.669,0 8.87,-1.307 12.606,-3.921 3.735,-2.616 6.326,-6.28 7.774,-10.995 5.321,9.944 13.257,14.916 23.809,14.916 C -7.89,73.461 0,63.703 0,44.188 Z" /></g><g
           transform="translate(318.2399,53.7342)"
           id="g24"><path
             id="path26"
             style="fill-opacity:1;fill-rule:nonzero;stroke:none"
             d="m 0,0 c 0,-6.21 -2.392,-11.253 -7.178,-15.126 -4.785,-3.876 -11.146,-5.813 -19.082,-5.813 -6.77,0 -12.7,1.447 -17.787,4.341 v 12.325 c 5.648,-4.576 11.857,-6.862 18.627,-6.862 9.104,0 13.656,3.338 13.656,10.014 0,2.707 -0.888,4.913 -2.661,6.618 -1.775,1.704 -5.813,4.002 -12.116,6.898 -6.349,2.707 -10.831,5.613 -13.444,8.718 -2.616,3.104 -3.922,7.225 -3.922,12.361 0,5.928 2.381,10.877 7.143,14.845 4.761,3.968 10.807,5.953 18.137,5.953 5.649,0 10.76,-1.121 15.336,-3.361 V 39.356 c -4.669,3.408 -10.084,5.112 -16.246,5.112 -3.782,0 -6.828,-0.934 -9.139,-2.801 -2.311,-1.867 -3.467,-4.271 -3.467,-7.212 0,-3.176 0.887,-5.615 2.661,-7.319 1.774,-1.705 5.438,-3.723 10.995,-6.058 6.816,-2.895 11.6,-5.929 14.356,-9.103 C -1.377,8.799 0,4.808 0,0" /></g><g
           transform="translate(390.9865,34.5457)"
           id="g28"><path
             id="path30"
             style="fill-opacity:1;fill-rule:nonzero;stroke:none"
             d="m 0,0 h -11.485 v 40.897 c 0,15.172 -5.557,22.759 -16.667,22.759 -5.649,0 -10.376,-2.135 -14.181,-6.407 -3.805,-4.271 -5.707,-9.723 -5.707,-16.352 V 0 H -59.525 V 71.711 H -48.04 V 59.806 h 0.28 c 5.369,9.103 13.212,13.655 23.53,13.655 7.889,0 13.901,-2.568 18.032,-7.703 C -2.066,60.621 0,53.339 0,43.908 Z" /></g><g
           transform="translate(83.0452,77.4482)"
           id="g32"><path
             id="path34"
             style="fill-opacity:1;fill-rule:nonzero;stroke:none"
             d="m 0,0 c 4.368,9.675 9.006,19.471 15.263,28.083 3.082,4.241 6.544,8.276 10.588,11.626 3.185,2.635 8.676,6.675 13.036,4.528 4.443,-2.2 3.929,-8.982 3.348,-13.025 C 41.49,26.09 39.813,21.108 37.789,16.363 32.347,3.615 23.806,-7.824 15.003,-18.437 c -1.606,-1.938 -3.245,-3.869 -4.933,-5.755 -0.142,-3.305 -0.486,-6.61 -0.988,-9.881 -1.611,-10.474 -5.666,-20.775 -12.399,-29.043 -2.804,-3.443 -7.739,-8.81 -12.771,-7.807 -5.306,1.059 -5.319,8.77 -4.949,12.865 0.476,5.265 1.866,10.484 3.776,15.392 C -10.062,-24.152 -2.132,-5.033 0,0" /></g><g
           transform="translate(71.9832,63.3354)"
           id="g36"><path
             id="path38"
             style="fill-opacity:1;fill-rule:nonzero;stroke:none"
             d="m 0,0 c -5.372,-18.396 -16.839,-44.692 -33.281,-55.659 -7.452,-4.967 -17.465,-8.797 -26.357,-5.6 -9.863,3.495 -12.418,14.518 -10.946,23.86 1.641,10.436 7.369,19.51 14.114,27.409 2.689,3.15 7.699,7.234 12.666,10.126 7.466,-4.14 16.593,-8.722 24.273,-11.153 -6.574,4.185 -12.452,9.362 -17.389,14.419 -5.715,6.662 -14.92,19.805 -17.777,30.093 -2.928,10.545 -5.375,21.58 -5.083,32.582 0.271,10.029 2.746,20.496 8.772,28.684 6.176,8.384 16.123,13.022 26.445,10.145 C -14.77,102.173 -7.246,94.165 -2.25,85.637 2.976,76.709 5.829,66.482 6.608,56.195 7.433,45.413 7.435,23.46 0,0" /></g></g></g></g></svg>
