<svg version="1.0" xmlns="http://www.w3.org/2000/svg"
 width="1024.000000pt" height="597.000000pt" viewBox="0 0 1024.000000 597.000000"
 preserveAspectRatio="xMidYMid meet">

<g transform="translate(0.000000,597.000000) scale(0.100000,-0.100000)"
fill="#FFFFFF" stroke="white">
<path d="M2560 2995 l0 -645 100 0 100 0 0 645 0 645 -100 0 -100 0 0 -645z"/>
<path d="M1710 2960 l0 -610 100 0 100 0 0 255 0 255 210 0 210 0 0 85 0 85
-210 0 -210 0 0 185 0 185 228 2 227 3 0 80 0 80 -327 3 -328 2 0 -610z"/>
<path d="M6125 3452 l-90 -27 -3 -103 -3 -102 -69 0 -70 0 0 -75 0 -75 70 0
70 0 0 -254 c0 -139 4 -276 10 -304 14 -75 46 -118 110 -150 48 -24 66 -27
145 -26 50 1 102 6 118 12 26 11 27 14 27 88 0 69 -2 75 -17 68 -38 -17 -113
-16 -139 1 -49 32 -54 64 -54 325 l0 240 105 0 105 0 0 75 0 75 -105 0 -105 0
0 130 c0 72 -3 130 -7 129 -5 0 -48 -12 -98 -27z"/>
<path d="M4273 3225 c-138 -43 -250 -171 -282 -323 -38 -183 18 -392 130 -481
63 -50 139 -79 228 -87 121 -11 315 30 349 73 12 17 17 134 6 145 -3 3 -31 -7
-62 -22 -108 -53 -227 -62 -322 -24 -53 21 -115 92 -129 149 -21 82 -46 75
285 75 l297 0 -5 113 c-12 264 -137 398 -372 396 -45 0 -100 -6 -123 -14z
m225 -158 c45 -29 73 -83 80 -149 l5 -48 -202 0 c-224 0 -212 -5 -184 75 19
58 87 130 135 144 53 16 123 7 166 -22z"/>
<path d="M5350 3231 c-53 -16 -97 -45 -142 -94 l-48 -51 0 67 0 67 -100 0
-100 0 2 -432 3 -433 98 -3 97 -3 0 274 c0 291 4 323 51 388 31 44 94 73 161
73 68 1 101 -19 138 -85 25 -44 25 -45 28 -347 l3 -303 97 3 97 3 0 325 c-1
311 -2 327 -23 380 -49 124 -132 180 -262 179 -41 0 -86 -4 -100 -8z"/>
<path d="M3000 2932 c0 -165 5 -313 11 -347 21 -114 90 -207 175 -236 22 -7
77 -13 124 -14 105 0 158 23 225 97 l45 50 0 -66 0 -66 100 0 100 0 0 435 0
435 -99 0 -100 0 -3 -292 c-3 -289 -3 -294 -27 -335 -35 -62 -90 -96 -160
-101 -77 -6 -132 22 -163 81 -22 41 -23 52 -26 345 l-3 302 -100 0 -99 0 0
-288z"/>
</g>
</svg>
