<svg xmlns="http://www.w3.org/2000/svg" class="icon icon-download" width="11" height="15" viewBox="0 0 11 15">
	<path d="M10.4309 13.8721C10.7451 13.872 11 14.1238 11 14.4345C11 14.7452 10.7454 14.9971 10.4312 14.9972L0.56913 15C0.254899 15.0001 0 14.7483 0 14.4376C0 14.127 0.25457 13.875 0.568801 13.8749L10.4309 13.8721ZM5.42279 0.0051353L5.5 0C5.78804 0 6.0261 0.211628 6.06377 0.486201L6.06897 0.562533L6.06821 10.8269L8.89165 8.03648C9.09367 7.83679 9.40976 7.81866 9.63248 7.98209L9.69629 8.03656C9.89827 8.23629 9.9166 8.54881 9.7513 8.76901L9.69621 8.8321L5.90489 12.5798C5.70299 12.7794 5.38711 12.7976 5.16438 12.6344L5.10057 12.58L1.30485 8.83233C1.08251 8.6128 1.08226 8.25662 1.3043 8.03679C1.50616 7.83694 1.82224 7.81857 2.04509 7.98182L2.10894 8.03625L4.93028 10.8216L4.93103 0.562533C4.93103 0.277745 5.14508 0.0423843 5.42279 0.0051353L5.5 0L5.42279 0.0051353Z"/>
</svg>
