<svg xmlns="https://www.w3.org/2000/svg" class="icon icon-brand-fast" width="59" height="30" viewBox="53 0 59 30" fill="none">
	<path d="M54.162 26.754h1.1c.754 0 1.225-.338 1.35-1.106l1.477-8.081h3.738c.754 0 1.225-.338 1.351-1.106l.126-.707c.157-.86-.283-1.321-1.131-1.321h-3.519l1.068-6.053h4.712c.754 0 1.226-.338 1.351-1.106l.126-.707c.157-.86-.283-1.321-1.131-1.321h-6.974c-.754 0-1.225.338-1.35 1.106L53.03 25.433c-.157.86.283 1.321 1.131 1.321zM77.598 6.475c0-.768-.503-1.23-1.288-1.23h-2.262c-.722 0-1.194.339-1.445.984l-7.037 19.112c-.314.83.095 1.413 1.006 1.413h1.005c.722 0 1.194-.338 1.413-1.014l1.288-3.78h4.053l-.063 3.565c0 .83.408 1.23 1.225 1.23h1.1c.816 0 1.256-.4 1.256-1.23l-.251-19.05zM71.284 19.01l3.267-9.556-.157 9.556h-3.11zM95.569 11.821l.44-2.396C96.606 6.229 94.124 5 91.422 5h-.063c-3.33 0-5.623 1.229-6.22 4.425l-.502 2.826c-.346 1.905.88 3.257 2.576 4.302l2.293 1.413c.974.584 1.257 1.199 1.037 2.366l-.315 1.69c-.22 1.322-1.13 1.905-2.23 1.905s-1.759-.583-1.54-1.905l.347-1.935c.157-.86-.283-1.322-1.131-1.322h-1.037c-.754 0-1.257.37-1.382 1.107l-.471 2.642C82.187 25.864 84.417 27 87.433 27h.063c3.644 0 5.623-1.168 6.22-4.486l.565-3.103c.408-2.182-.66-3.104-2.607-4.302l-2.325-1.414c-.942-.583-1.162-1.198-.974-2.304l.283-1.475c.22-1.352 1.1-1.843 2.167-1.843 1.069 0 1.76.491 1.54 1.843l-.314 1.69c-.157.86.282 1.321 1.13 1.321h1.037c.754 0 1.225-.338 1.35-1.106zM110.838 5.246h-8.451c-.753 0-1.225.338-1.35 1.106l-.126.707c-.157.86.283 1.32 1.131 1.32h2.293l-3.047 17.054c-.157.86.283 1.321 1.131 1.321h1.099c.754 0 1.225-.338 1.351-1.106l3.11-17.268h2.513c.754 0 1.225-.338 1.351-1.106l.126-.707c.157-.86-.283-1.321-1.131-1.321z" fill="#F9F9F9"/>
</svg>
