<svg xmlns="https://www.w3.org/2000/svg" class="icon icon-swatches" width="20" height="20" viewBox="0 0 20 20">
	<path d="M12.9163 0.108954C14.5978 -0.344806 16.3262 0.660165 16.7768 2.35362L19.8918 14.0612C20.3424 15.7547 19.3445 17.4953 17.6629 17.9491L10.4663 19.891C8.78473 20.3448 7.05629 19.3398 6.60572 17.6464L3.49072 5.9388C3.04015 4.24535 4.03806 2.50469 5.71962 2.05093L12.9163 0.108954ZM3.47925 10.36L5.49855 17.9451C5.70598 18.7248 6.11202 19.3974 6.64717 19.9226L6.13956 19.8951C4.40107 19.8033 3.0656 18.3097 3.15671 16.5589L3.47925 10.36ZM13.3613 1.78147L6.16462 3.72344C5.40028 3.92969 4.94668 4.7209 5.15149 5.49066L8.26648 17.1982C8.47129 17.968 9.25694 18.4248 10.0213 18.2185L17.2179 16.2766C17.9823 16.0703 18.4359 15.2791 18.231 14.5093L15.1161 2.80177C14.9112 2.03202 14.1256 1.57521 13.3613 1.78147ZM2.41945 8.65373L2.01205 16.4985C1.97008 17.305 2.15012 18.0715 2.49836 18.7378L2.02336 18.5524C0.398113 17.9242 -0.413661 16.088 0.210213 14.4512L2.41945 8.65373ZM7.99359 5.02249C8.60506 4.85749 9.23358 5.22293 9.39743 5.83874C9.56127 6.45454 9.19839 7.08751 8.58692 7.25251C7.97544 7.41751 7.34692 7.05207 7.18308 6.43627C7.01923 5.82047 7.38211 5.1875 7.99359 5.02249Z"/>
</svg>
