<svg id="Layer_1" data-name="Layer 1" xmlns="http://www.w3.org/2000/svg" xmlns:xlink="http://www.w3.org/1999/xlink" viewBox="0 0 512 512"><defs><style>.cls-1{fill:#fff;}.cls-2{fill:none;}.cls-3{fill:#ff3000;}.cls-4{fill:url(#linear-gradient);}</style><linearGradient id="linear-gradient" x1="162.78" y1="415.92" x2="332.03" y2="125.64" gradientUnits="userSpaceOnUse"><stop offset="0" stop-color="#ff9480"/><stop offset="1" stop-color="#f30"/></linearGradient></defs><title>fw-imagemark-512</title><path class="cls-1" d="M511,251.58c-.06-.12-109-189.83-109-189.83a9.23,9.23,0,0,0-8-4.75H118.3a9.23,9.23,0,0,0-8,4.65L1.1,251.82a9.22,9.22,0,0,0,0,8.74L110,450.25a9.23,9.23,0,0,0,7.62,4.73l276.11,0h0a9.22,9.22,0,0,0,7.85-4.55S510.94,260.09,511,259.94a9.16,9.16,0,0,0-.06-8.36Z"/><polygon class="cls-2" points="170.27 355.3 113.34 256.19 170.26 355.3 170.27 355.3 170.27 355.3 170.27 355.3"/><circle class="cls-3" cx="170.27" cy="355.3" transform="translate(-81.17 51.97) rotate(-14.05)"/><polygon class="cls-3" points="170.27 355.3 190.41 390.37 170.27 355.3 170.27 355.3"/><path class="cls-4" d="M314.89,231.26l.35,0h-.83a9.21,9.21,0,0,1-7.73-13.56l.09-.15.08-.14h0l63.56-110.72H312.95L245.84,223.6h0a14.93,14.93,0,0,1-13.06,7.67h-34l-28.53,49.67H197a9.21,9.21,0,0,1,8,13.8h0L141.53,405.31l57.47,0,67-116.76h0a14.93,14.93,0,0,1,13-7.64h34.12l28.51-49.64Z"/><path class="cls-3" d="M170.27,355.3h0l-56.92-99.11,85.82-149.43-57.41-.09L58.55,251.53v0a9.17,9.17,0,0,0-.09,9.1v0l83.07,144.64,57.47,0Z"/><path class="cls-3" d="M454.65,255.81a9.17,9.17,0,0,0-1.2-4.53h0l-83.05-144.6H312.95l85.66,149.15L312.73,405.33h57.46L453.43,260.4h0A9.16,9.16,0,0,0,454.65,255.81Z"/></svg>