<svg id="Layer_1" data-name="Layer 1" xmlns="http://www.w3.org/2000/svg" xmlns:xlink="http://www.w3.org/1999/xlink" viewBox="0 0 491 276"><defs><style>.cls-1,.cls-2,.cls-3,.cls-4,.cls-5{fill:none;}.cls-2{stroke:#0078d4;}.cls-2,.cls-3,.cls-4,.cls-5{stroke-width:1.91px;}.cls-3{stroke:#107c10;}.cls-4{stroke:#d83b02;}.cls-5{stroke:#5c2d91;}.cls-6{fill:url(#linear-gradient);}.cls-7{fill:url(#linear-gradient-2);}.cls-8{fill:#244663;}.cls-9{fill:url(#linear-gradient-3);}.cls-10{fill:url(#linear-gradient-4);}.cls-11{fill:#142334;}.cls-12{fill:#0078d4;}</style><linearGradient id="linear-gradient" x1="-3448.52" y1="9287.67" x2="-3448.52" y2="9123.6" gradientTransform="matrix(1, 0, 0, -1, 3694, 9393.75)" gradientUnits="userSpaceOnUse"><stop offset="0" stop-color="#223d57"/><stop offset="1" stop-color="#223d57" stop-opacity="0"/></linearGradient><linearGradient id="linear-gradient-2" x1="-3448.32" y1="9241.93" x2="-3448.32" y2="9227.29" gradientTransform="matrix(1, 0, 0, -1, 3694, 9393.75)" gradientUnits="userSpaceOnUse"><stop offset="0" stop-color="#0078d4"/><stop offset="1" stop-color="#0078d4" stop-opacity="0"/></linearGradient><linearGradient id="linear-gradient-3" x1="-3398.75" y1="9316.31" x2="-3398.75" y2="9250.02" gradientTransform="matrix(1, 0, 0, -1, 3694, 9393.75)" gradientUnits="userSpaceOnUse"><stop offset="0" stop-color="#487dac"/><stop offset="1" stop-color="#487dac" stop-opacity="0"/></linearGradient><linearGradient id="linear-gradient-4" x1="-3498.67" y1="9316.31" x2="-3498.67" y2="9250.02" xlink:href="#linear-gradient-3"/></defs><title>colors</title><rect class="cls-1" width="491" height="276"/><path class="cls-2" d="M159.62,213.9a17.9,17.9,0,1,0,17.93,17.9A17.92,17.92,0,0,0,159.62,213.9Z"/><path class="cls-3" d="M216.86,213.9a17.9,17.9,0,1,0,17.93,17.9A17.92,17.92,0,0,0,216.86,213.9Z"/><path class="cls-4" d="M331.34,213.9a17.9,17.9,0,1,0,17.93,17.9A17.92,17.92,0,0,0,331.34,213.9Z"/><path class="cls-5" d="M274.1,213.9A17.9,17.9,0,1,0,292,231.8,17.92,17.92,0,0,0,274.1,213.9Z"/><path class="cls-6" d="M138,32.64V179.52a6,6,0,0,0,6,6H346.92a6,6,0,0,0,6.05-6V32.64a6,6,0,0,0-6.05-6H144A6,6,0,0,0,138,32.64Z"/><path class="cls-7" d="M220.54,147.45v8.74a2.11,2.11,0,0,0,2.12,2.11h46a2.11,2.11,0,0,0,2.12-2.11v-8.74a2.12,2.12,0,0,0-2.12-2.11h-46A2.12,2.12,0,0,0,220.54,147.45Z"/><path class="cls-8" d="M138,48V64.38H353V48Z"/><path class="cls-9" d="M251,80.28v43.93a2.42,2.42,0,0,0,2.42,2.42h83.59a2.42,2.42,0,0,0,2.42-2.42V80.28a2.41,2.41,0,0,0-2.42-2.41H253.46A2.41,2.41,0,0,0,251,80.28Z"/><path class="cls-10" d="M151.12,80.28v43.93a2.42,2.42,0,0,0,2.42,2.42h83.59a2.42,2.42,0,0,0,2.42-2.42V80.28a2.41,2.41,0,0,0-2.42-2.41H153.54A2.41,2.41,0,0,0,151.12,80.28Z"/><path class="cls-11" d="M138,48.06V32.34a6,6,0,0,1,6-6H346.92a6,6,0,0,1,6.05,6V48.06Z"/><path class="cls-12" d="M173.35,231.8a13.74,13.74,0,1,0-13.74,13.71A13.73,13.73,0,0,0,173.35,231.8Z"/></svg>