<svg width="91" height="106" viewBox="0 0 91 106" xmlns="http://www.w3.org/2000/svg">
    <path d="M35.8297 45.0969C32.8463 45.0969 30.491 47.5184 30.491 50.4727C30.491 53.4269 32.8986 55.8484 35.8297 55.8484C38.8131 55.8484 41.1685 53.4269 41.1685 50.4727C41.2208 47.5184 38.8131 45.0969 35.8297 45.0969ZM54.934 45.0969C51.9506 45.0969 49.5953 47.5184 49.5953 50.4727C49.5953 53.4269 52.003 55.8484 54.934 55.8484C57.9174 55.8484 60.2728 53.4269 60.2728 50.4727C60.2728 47.5184 57.9174 45.0969 54.934 45.0969Z" />
    <path d="M80.1313 0.657959H10.6323C4.77157 0.657959 0 5.4717 0 11.4365V82.1776C0 88.1424 4.77157 92.9561 10.6323 92.9561H69.4472L66.6983 83.2764L73.337 89.5028L79.6127 95.363L90.7636 105.304V11.4365C90.7636 5.4717 85.9921 0.657959 80.1313 0.657959ZM60.1115 68.9921C60.1115 68.9921 58.2443 66.7422 56.6884 64.7539C63.4827 62.818 66.0759 58.5275 66.0759 58.5275C63.9495 59.9402 61.9267 60.9343 60.1115 61.6145C57.5182 62.7133 55.0287 63.4458 52.591 63.8644C47.612 64.8063 43.0479 64.5446 39.158 63.8121C36.2017 63.2366 33.6603 62.3994 31.5339 61.5622C30.341 61.0913 29.0444 60.5157 27.7477 59.7832C27.5921 59.6786 27.4366 59.6262 27.281 59.5216C27.1772 59.4693 27.1254 59.417 27.0735 59.3646C26.1399 58.8414 25.6213 58.4751 25.6213 58.4751C25.6213 58.4751 28.1108 62.661 34.6976 64.6493C33.1417 66.6376 31.2227 68.9921 31.2227 68.9921C19.7605 68.6258 15.4039 61.039 15.4039 61.039C15.4039 44.1909 22.8724 30.5345 22.8724 30.5345C30.341 24.8836 37.4465 25.0406 37.4465 25.0406L37.9651 25.6685C28.6294 28.3893 24.3247 32.5228 24.3247 32.5228C24.3247 32.5228 25.4657 31.8949 27.3847 31.0054C32.9342 28.5462 37.3428 27.866 39.158 27.7091C39.4692 27.6567 39.7285 27.6044 40.0397 27.6044C43.2035 27.1858 46.7822 27.0812 50.5164 27.4998C55.4436 28.0753 60.7338 29.5404 66.1278 32.5228C66.1278 32.5228 62.0305 28.5986 53.2134 25.8778L53.9395 25.0406C53.9395 25.0406 61.045 24.8836 68.5136 30.5345C68.5136 30.5345 75.9821 44.1909 75.9821 61.039C75.9821 61.039 71.5736 68.6258 60.1115 68.9921Z"/>
</svg>
