<?xml version="1.0" encoding="utf-8"?>
<!-- Generator: Adobe Illustrator 22.1.0, SVG Export Plug-In . SVG Version: 6.00 Build 0)  -->
<svg version="1.1" id="Layer_1" xmlns="http://www.w3.org/2000/svg" xmlns:xlink="http://www.w3.org/1999/xlink" x="0px" y="0px"
	 viewBox="0 0 31 31" style="enable-background:new 0 0 31 31;" xml:space="preserve">
<style type="text/css">
	.st0{fill:#A0A0A0;}
</style>
<title>Asset 5</title>
<g id="Layer_2_1_">
	<g id="Dribble">
		<g id="ball">
			<path class="st0" d="M15.5,0C6.9,0,0,6.9,0,15.5S6.9,31,15.5,31S31,24.1,31,15.5C31,6.9,24.1,0,15.5,0z M25.8,7.2
				c1.9,2.3,3,5.2,3,8.3c-3-0.6-6.2-0.7-9.2-0.4c-0.1-0.2-0.2-0.5-0.3-0.7c-0.3-0.6-0.6-1.3-0.9-1.9C21.2,11.3,23.8,9.5,25.8,7.2z
				 M15.5,2.3c3.2,0,6.4,1.2,8.8,3.3c-1.8,2.2-4.2,3.9-6.9,4.8c-1.5-2.7-3.1-5.3-4.9-7.7C13.4,2.4,14.5,2.3,15.5,2.3z M9.9,3.5
				c1.8,2.5,3.4,5,4.9,7.7c-4,1-8.1,1.6-12.2,1.6C3.4,8.7,6.1,5.3,9.9,3.5z M2.3,15.5c0-0.1,0-0.3,0-0.4c4.6,0,9.2-0.6,13.6-1.9
				c0.4,0.7,0.7,1.5,1.1,2.3l-0.5,0.2C9.6,17.8,6,23.9,5.7,24.4C3.5,21.9,2.3,18.8,2.3,15.5L2.3,15.5z M15.5,28.8
				c-2.9,0-5.8-1-8.1-2.8c0.2-0.5,2.9-5.7,10.4-8.3h0.1c1.3,3.2,2.2,6.6,2.8,10C19,28.4,17.3,28.8,15.5,28.8z M22.9,26.5
				c-0.6-3.2-1.4-6.4-2.6-9.4c2.8-0.4,5.6-0.2,8.2,0.6C28,21.2,25.9,24.5,22.9,26.5z"/>
		</g>
	</g>
</g>
</svg>
