<?xml version="1.0" encoding="utf-8"?>
<!-- Generator: Adobe Illustrator 22.1.0, SVG Export Plug-In . SVG Version: 6.00 Build 0)  -->
<svg version="1.1" id="Layer_1" xmlns="http://www.w3.org/2000/svg" xmlns:xlink="http://www.w3.org/1999/xlink" x="0px" y="0px"
	 viewBox="0 0 32 32" style="enable-background:new 0 0 32 32;" xml:space="preserve">
<style type="text/css">
	.st0{fill:#A0A0A0;}
</style>
<title>Asset 4</title>
<g id="Layer_2_1_">
	<g id="Facebook">
		<path class="st0" d="M0,30.5v-29C0.4,0.4,1.5-0.2,2.6,0c9.1,0,18.1,0,27.2,0C31.3,0,32,0.7,32,2.2c0,9.1,0,18.2,0,27.3
			c0,1.2-0.3,2.1-1.5,2.5h-8.3V19.7c0.3,0,0.5,0,0.8,0c0.9,0,1.9,0,2.8,0c0.4,0,0.6-0.1,0.6-0.6c0.1-1.3,0.3-2.5,0.5-3.8
			c0.1-0.5-0.1-0.6-0.6-0.6h-3.5c-0.2,0-0.5,0-0.7,0c0-1.2,0-2.4,0-3.5c-0.1-0.9,0.6-1.6,1.5-1.6c0,0,0.1,0,0.1,0
			c0.9-0.1,1.8-0.1,2.7-0.1c0.5,0,0.6-0.1,0.6-0.6c0-0.9,0-1.8,0-2.6V5c-0.7,0-1.2-0.1-1.8-0.1c-1-0.1-2-0.1-3,0
			c-2.5,0.1-4.6,2-5.1,4.5c-0.1,0.8-0.2,1.6-0.2,2.5c0,0.9,0,1.8,0,2.8h-0.8c-1,0-1.9,0-2.9,0c-0.2,0-0.5,0.2-0.5,0.3
			c0,1.5,0,3,0,4.6H17V32H1.5C0.8,31.8,0.2,31.2,0,30.5z"/>
	</g>
</g>
</svg>
