<svg width="90" height="33" viewBox="0 0 90 33" fill="none" xmlns="http://www.w3.org/2000/svg">
<path d="M37.0764 11H31.4777C30.7087 11 30.084 11.6151 30.084 12.372C30.084 13.129 30.7087 13.7441 31.4777 13.7441H31.4837C32.2526 13.7441 32.8773 14.3591 32.8773 15.1161V23.3661C32.8773 24.1231 33.5021 24.7382 34.271 24.7382C35.0399 24.7382 35.6647 24.1231 35.6647 23.3661V15.1161C35.6707 14.3591 36.2954 13.75 37.0583 13.75H37.0643C37.8333 13.75 38.458 13.1349 38.458 12.378C38.458 11.621 37.8453 11 37.0764 11Z" fill="white"/>
<path d="M17.5111 11H11.2216C10.4526 11 9.82788 11.6151 9.82788 12.372V17.872V23.372C9.82788 24.129 10.4526 24.7441 11.2216 24.7441C11.9905 24.7441 12.6152 24.129 12.6152 23.372V20.622C12.6152 19.8651 13.24 19.25 14.0089 19.25H14.7177C15.4867 19.25 16.1114 19.8651 16.1114 20.622V23.372C16.1114 24.129 16.7362 24.7441 17.5051 24.7441C18.274 24.7441 18.8988 24.129 18.8988 23.372V12.372C18.9108 11.6151 18.286 11 17.5111 11ZM14.7177 16.5H14.0089C13.24 16.5 12.6152 15.8849 12.6152 15.128C12.6152 14.371 13.24 13.7559 14.0089 13.7559H14.7177C15.4867 13.7559 16.1114 14.371 16.1114 15.128C16.1174 15.8849 15.4927 16.5 14.7177 16.5Z" fill="white"/>
<path d="M6.99238 11H1.39367C0.624749 11 0 11.6151 0 12.372V23.372C0 24.129 0.624749 24.7441 1.39367 24.7441C2.16259 24.7441 2.78734 24.129 2.78734 23.372V20.622C2.78734 19.8651 3.41209 19.25 4.18101 19.25H5.44853C6.21745 19.25 6.8422 18.6349 6.8422 17.878C6.8422 17.121 6.21745 16.5059 5.44853 16.5059H4.18702C3.41809 16.5059 2.79335 15.8909 2.79335 15.1339C2.79335 14.3769 3.41809 13.7618 4.18702 13.7618H6.98637C7.75529 13.7618 8.38004 13.1468 8.38004 12.3898C8.38004 11.6328 7.7613 11 6.99238 11Z" fill="white"/>
<path d="M27.2908 15.3705C28.0597 15.3705 28.6845 14.7554 28.6845 13.9985V12.378C28.6845 11.621 28.0597 11.006 27.2908 11.006H21.6981C20.9292 11.006 20.3044 11.621 20.3044 12.378C20.3044 15.6958 22.0826 17.4463 23.5123 18.8479C24.137 19.4571 24.6957 20.013 25.1162 20.6458C25.5908 21.3968 25.0982 22.0001 24.3353 22.0001H24.095C23.3261 22.0001 23.0918 22.0001 23.0918 21.6393V21.6689C23.0437 20.9533 22.443 20.3856 21.6981 20.3856C20.9292 20.3856 20.3044 21.0006 20.3044 21.7576V23.378C20.3044 24.135 20.9292 24.7501 21.6981 24.7501H27.2908C28.0597 24.7501 28.6845 24.135 28.6845 23.378C28.6845 20.0603 26.9064 18.3097 25.4766 16.9081C24.8519 16.299 24.2932 15.7431 23.8727 15.1103C23.3982 14.3592 23.8907 13.756 24.6537 13.756H24.8939C25.6629 13.756 25.8971 13.756 25.8971 14.1167V14.0872C25.9452 14.8028 26.5459 15.3705 27.2908 15.3705Z" fill="white"/>
<path d="M67.7491 13.4306C66.7339 11.9284 65.2021 11.1005 63.442 11.1005H59.9518C59.1829 11.1005 58.5581 11.7155 58.5581 12.4725V23.4725C58.5581 24.2295 59.1829 24.8446 59.9518 24.8446H63.442C65.2021 24.8446 66.7279 24.0166 67.7431 22.5085C68.5721 21.2843 69.0226 19.6698 69.0226 17.9607C69.0347 16.2634 68.5781 14.6489 67.7491 13.4306ZM63.448 22.1005H62.7511C61.9822 22.1005 61.3575 21.4854 61.3575 20.7284V15.2284C61.3575 14.4714 61.9822 13.8564 62.7511 13.8564H63.448C64.277 13.8564 64.9257 14.2171 65.4303 14.9623C65.947 15.7252 66.2413 16.8193 66.2413 17.9784C66.2413 19.3978 65.6526 22.1005 63.448 22.1005Z" fill="white"/>
<path d="M88.6182 11H82.3226C81.5537 11 80.929 11.6151 80.929 12.372V17.872V23.372C80.929 24.129 81.5537 24.7441 82.3226 24.7441C83.0915 24.7441 83.7163 24.129 83.7163 23.372V20.622C83.7163 19.8651 84.341 19.25 85.11 19.25H85.8188C86.5877 19.25 87.2125 19.8651 87.2125 20.622V23.372C87.2125 24.129 87.8372 24.7441 88.6062 24.7441C89.3751 24.7441 89.9998 24.129 89.9998 23.372V12.372C90.0118 11.6151 89.3871 11 88.6182 11ZM85.8248 16.5H85.116C84.3471 16.5 83.7223 15.8849 83.7223 15.128C83.7223 14.371 84.3471 13.7559 85.116 13.7559H85.8248C86.5937 13.7559 87.2185 14.371 87.2185 15.128C87.2185 15.8849 86.5937 16.5 85.8248 16.5Z" fill="white"/>
<path d="M78.1235 11C77.3546 11 76.7298 11.615 76.7298 12.372V15.5064C76.7298 15.8849 76.4175 16.1925 76.033 16.1925C75.7687 16.1925 75.5404 16.0505 75.4203 15.8376L73.0594 11.7156C73.0594 11.7156 73.0594 11.7156 73.0594 11.7097L73.0474 11.6919C73.0414 11.6801 73.0354 11.6742 73.0294 11.6624C73.0114 11.6387 72.9994 11.6091 72.9813 11.5855C72.9693 11.5677 72.9573 11.55 72.9453 11.5322C72.9333 11.5145 72.9153 11.4968 72.9032 11.479C72.8852 11.4613 72.8672 11.4435 72.8492 11.4199C72.8372 11.4081 72.8251 11.3903 72.8131 11.3785C72.7951 11.3607 72.7711 11.343 72.7531 11.3253C72.741 11.3134 72.729 11.3016 72.711 11.2898C72.693 11.272 72.669 11.2602 72.6509 11.2425C72.6329 11.2306 72.6209 11.2188 72.6029 11.207C72.5849 11.1951 72.5608 11.1833 72.5428 11.1715C72.5248 11.1597 72.5008 11.1478 72.4827 11.136C72.4647 11.1242 72.4467 11.1183 72.4287 11.1124C72.4046 11.1005 72.3806 11.0887 72.3566 11.0828C72.3386 11.0769 72.3205 11.071 72.3085 11.065C72.2845 11.0532 72.2605 11.0473 72.2304 11.0414C72.2124 11.0355 72.1944 11.0296 72.1764 11.0296C72.1523 11.0236 72.1283 11.0177 72.0983 11.0118C72.0742 11.0059 72.0562 11.0059 72.0322 11C72.0082 10.9941 71.9901 10.9941 71.9661 10.9941C71.9361 10.9941 71.906 10.9882 71.876 10.9882C71.864 10.9882 71.852 10.9882 71.84 10.9882H71.834C71.7979 10.9882 71.7679 10.9882 71.7318 10.9941C71.7198 10.9941 71.7078 10.9941 71.6958 10.9941C71.6658 11 71.6357 11 71.6057 11.0059C71.5877 11.0059 71.5756 11.0118 71.5576 11.0118C71.5336 11.0177 71.5156 11.0236 71.4915 11.0296C71.4675 11.0355 71.4435 11.0414 71.4195 11.0473C71.4074 11.0532 71.3954 11.0591 71.3834 11.0591C71.3534 11.071 71.3233 11.0828 71.2933 11.0946C71.2813 11.1005 71.2753 11.1064 71.2633 11.1064C71.2332 11.1183 71.1972 11.136 71.1672 11.1538C71.1672 11.1538 71.1611 11.1538 71.1611 11.1597C71.1491 11.1656 71.1431 11.1715 71.1311 11.1774C71.1071 11.1951 71.077 11.207 71.053 11.2247C71.035 11.2365 71.017 11.2484 70.999 11.2602C70.9809 11.272 70.9629 11.2898 70.9449 11.3016C70.9269 11.3193 70.9088 11.3371 70.8848 11.3548C70.8728 11.3667 70.8548 11.3785 70.8428 11.3962C70.8247 11.414 70.8067 11.4376 70.7887 11.4554C70.7767 11.4672 70.7647 11.4849 70.7527 11.4968C70.7346 11.5145 70.7226 11.5382 70.7046 11.5559C70.6926 11.5736 70.6806 11.5855 70.6686 11.6032C70.6565 11.621 70.6445 11.6446 70.6325 11.6624C70.6205 11.6801 70.6085 11.7038 70.5965 11.7215C70.5845 11.7392 70.5785 11.757 70.5724 11.7747C70.5604 11.7984 70.5484 11.822 70.5424 11.8457C70.5364 11.8634 70.5304 11.8812 70.5244 11.893C70.5124 11.9167 70.5064 11.9403 70.5004 11.9699C70.4943 11.9876 70.4883 12.0054 70.4883 12.0231C70.4823 12.0468 70.4763 12.0704 70.4703 12.1C70.4643 12.1236 70.4643 12.1473 70.4583 12.165C70.4583 12.1887 70.4523 12.2064 70.4523 12.2301C70.4523 12.2597 70.4463 12.2892 70.4463 12.3188C70.4463 12.3306 70.4463 12.3425 70.4463 12.3543V12.372C70.4463 12.372 70.4463 12.372 70.4463 12.3779V23.3543C70.4463 24.1113 71.071 24.7263 71.84 24.7263C72.6089 24.7263 73.2336 24.1113 73.2336 23.3543V20.2199C73.2336 19.8414 73.546 19.5339 73.9305 19.5339C74.1948 19.5339 74.4231 19.6758 74.5432 19.8887L76.904 24.0107C76.904 24.0107 76.904 24.0107 76.904 24.0167L76.9161 24.0344C76.9341 24.064 76.9521 24.0935 76.9701 24.1231C76.9761 24.129 76.9821 24.1349 76.9881 24.1468C77.0062 24.1763 77.0302 24.2 77.0482 24.2236C77.0542 24.2296 77.0602 24.2355 77.0662 24.2414C77.1203 24.3064 77.1804 24.3656 77.2404 24.4129C77.2465 24.4188 77.2465 24.4188 77.2525 24.4247C77.2825 24.4484 77.3125 24.472 77.3486 24.4957C77.3486 24.4957 77.3546 24.4957 77.3546 24.5016C77.3906 24.5253 77.4207 24.543 77.4567 24.5607C77.4687 24.5667 77.4747 24.5726 77.4867 24.5785C77.5168 24.5903 77.5408 24.608 77.5708 24.6199C77.5829 24.6258 77.5889 24.6317 77.6009 24.6317C77.6369 24.6435 77.667 24.6554 77.703 24.6672C77.715 24.6731 77.727 24.6731 77.745 24.679C77.7751 24.6849 77.8051 24.6968 77.8352 24.7027C77.8472 24.7027 77.8532 24.7086 77.8652 24.7086C77.9072 24.7145 77.9433 24.7204 77.9853 24.7263C77.9974 24.7263 78.0034 24.7263 78.0154 24.7263C78.0574 24.7322 78.0995 24.7322 78.1475 24.7322C78.1896 24.7322 78.2376 24.7322 78.2797 24.7263C78.2857 24.7263 78.2917 24.7263 78.2977 24.7263C78.3398 24.7204 78.3818 24.7145 78.4239 24.7086C78.4299 24.7086 78.4359 24.7086 78.4419 24.7027C78.4779 24.6968 78.514 24.6849 78.544 24.679C78.55 24.679 78.562 24.6731 78.568 24.6731C78.6041 24.6613 78.6401 24.6494 78.6762 24.6317C78.6882 24.6258 78.7002 24.6199 78.7122 24.614C78.7362 24.6021 78.7603 24.5903 78.7843 24.5785C78.7963 24.5726 78.8083 24.5667 78.8203 24.5607C78.8203 24.5607 78.8263 24.5607 78.8263 24.5548C78.8384 24.5489 78.8444 24.543 78.8564 24.5371C78.8804 24.5193 78.9104 24.5075 78.9345 24.4898C78.9525 24.4779 78.9705 24.4661 78.9885 24.4543C79.0066 24.4425 79.0246 24.4247 79.0426 24.4129C79.0606 24.3951 79.0787 24.3774 79.1027 24.3597C79.1147 24.3478 79.1327 24.336 79.1447 24.3183C79.1628 24.3005 79.1808 24.2769 79.1988 24.2591C79.2108 24.2473 79.2228 24.2296 79.2348 24.2177C79.2529 24.2 79.2649 24.1763 79.2829 24.1586C79.2949 24.1408 79.3069 24.129 79.3189 24.1113C79.331 24.0935 79.343 24.0699 79.355 24.0521C79.367 24.0344 79.379 24.0107 79.391 23.993C79.403 23.9753 79.409 23.9575 79.4151 23.9398C79.4271 23.9161 79.4391 23.8925 79.4451 23.8688C79.4511 23.8511 79.4571 23.8333 79.4631 23.8215C79.4751 23.7978 79.4811 23.7742 79.4871 23.7446C79.4931 23.7269 79.4992 23.7091 79.4992 23.6914C79.5052 23.6677 79.5112 23.6441 79.5172 23.6145C79.5232 23.5908 79.5232 23.5672 79.5292 23.5494C79.5292 23.5258 79.5352 23.5081 79.5352 23.4844C79.5352 23.4548 79.5412 23.4253 79.5412 23.3957C79.5412 23.3839 79.5412 23.372 79.5412 23.3602V23.3425C79.5412 23.3425 79.5412 23.3425 79.5412 23.3365V12.372C79.5232 11.615 78.8984 11 78.1235 11Z" fill="white"/>
<path d="M48.7244 2.75H50.058H53.6863C54.4552 2.75 55.08 2.13495 55.08 1.37796C55.08 0.620968 54.4613 0 53.6863 0H48.7184C47.9495 0 47.3247 0.615054 47.3247 1.37204C47.3247 2.12903 47.9495 2.75 48.7244 2.75Z" fill="white"/>
<path d="M50.0581 5.5H49.4994C48.7305 5.5 48.1057 6.11505 48.1057 6.87204C48.1057 7.62903 48.7305 8.24409 49.4994 8.24409H50.4786H54.6656C55.4345 8.24409 56.0592 7.62903 56.0592 6.87204C56.0592 6.11505 55.4405 5.5 54.6656 5.5H50.0581Z" fill="white"/>
<path d="M50.4785 11H48.7184C47.9495 11 47.3247 11.6151 47.3247 12.372C47.3247 13.129 47.9495 13.7441 48.7184 13.7441H52.4308C53.1998 13.7441 53.8245 13.129 53.8245 12.372C53.8245 11.6151 53.2058 11 52.4308 11H50.4785Z" fill="white"/>
<path d="M44.0508 22C44.8197 22 45.4445 21.3849 45.4445 20.6279C45.4445 19.8709 44.8197 19.2559 44.0508 19.2559H43.0716C42.3027 19.2559 41.678 19.8709 41.678 20.6279C41.678 21.3849 42.3027 22 43.0716 22H44.0508Z" fill="white"/>
<path d="M44.6516 26.122C44.6516 25.3651 44.0268 24.75 43.2579 24.75H41.6119C40.843 24.75 40.2183 25.3651 40.2183 26.122C40.2183 26.879 40.843 27.4941 41.6119 27.4941H43.2519C44.0268 27.5 44.6516 26.8849 44.6516 26.122Z" fill="white"/>
<path d="M44.0508 30.25H43.42C42.6511 30.25 42.0264 30.8651 42.0264 31.622C42.0264 32.379 42.6511 33 43.4261 33H44.0568C44.8257 33 45.4505 32.3849 45.4505 31.628C45.4505 30.871 44.8257 30.25 44.0508 30.25Z" fill="white"/>
<path d="M48.466 15.3527C47.8112 14.9269 47.2346 14.507 46.7179 14.093C46.3335 13.7737 46.1232 13.5075 46.3635 13.1704C46.5257 12.9457 46.6278 12.6677 46.6278 12.372C46.6278 11.6151 46.0031 11 45.2342 11H45.0359H44.7596C43.9907 11 43.3659 10.3849 43.3659 9.62796C43.3659 8.87097 43.9907 8.25591 44.7596 8.25591H44.8437H46.0151C46.784 8.25591 47.4088 7.64086 47.4088 6.88387C47.4088 6.12688 46.778 5.5 46.0091 5.5H45.4564H45.3063C44.5373 5.5 43.9126 4.88495 43.9126 4.12204C43.9126 3.35914 44.5373 2.75 45.3063 2.75H45.3183V2.74409C46.0451 2.69677 46.6218 2.09946 46.6218 1.37204C46.6218 0.615054 45.9971 0 45.2282 0H43.42H43.414C43.384 0 43.3479 0 43.3179 0.00591398C43.2998 0.00591398 43.2878 0.00591398 43.2698 0.011828C43.2458 0.011828 43.2278 0.0177419 43.2037 0.0236559C43.1797 0.0295699 43.1557 0.0295699 43.1256 0.0354839C43.1196 0.0354839 43.1136 0.0354839 43.1076 0.0413978C42.6511 0.141935 42.2786 0.467204 42.1104 0.893011C41.9963 1.17097 41.8761 1.45484 41.756 1.75054C40.8609 3.87957 39.8397 6.29247 40.2242 9.03656C40.6567 12.1651 42.8493 14.986 46.9162 17.6532C47.2105 17.8484 47.4929 18.0376 47.7692 18.2328C48.478 18.7414 48.3098 19.2618 47.9314 19.2618H47.5469C46.778 19.2618 46.1533 19.8769 46.1533 20.6339C46.1533 21.3909 46.778 22.0059 47.5469 22.0059H49.8357H51.0431C51.812 22.0059 52.4368 22.621 52.4368 23.378C52.4368 24.1349 51.812 24.75 51.0431 24.75H50.8569H46.754C45.9851 24.75 45.3603 25.3651 45.3603 26.122C45.3603 26.879 45.9851 27.4941 46.754 27.4941H51.0611H51.5297C52.2986 27.4941 52.9234 28.1091 52.9234 28.8661C52.9234 29.6231 52.2986 30.2382 51.5297 30.2382H49.9378H47.5469C46.778 30.2382 46.1533 30.8532 46.1533 31.6102C46.1533 32.3672 46.778 32.9823 47.5469 32.9823H53.6623C53.6683 32.9823 53.6683 32.9823 53.6743 32.9823C53.7163 32.9823 53.7644 32.9823 53.8064 32.9763C53.8184 32.9763 53.8244 32.9763 53.8365 32.9704C53.8665 32.9645 53.9025 32.9645 53.9326 32.9586C53.9446 32.9586 53.9626 32.9527 53.9746 32.9527C53.9987 32.9468 54.0287 32.9409 54.0527 32.9349C54.0707 32.929 54.0828 32.929 54.1008 32.9231C54.1308 32.9113 54.1608 32.9054 54.1909 32.8935C54.2089 32.8876 54.2329 32.8758 54.251 32.8699C54.275 32.8581 54.299 32.8462 54.323 32.8344C54.3411 32.8285 54.3531 32.8167 54.3711 32.8108C54.3951 32.7989 54.4132 32.7871 54.4312 32.7753C54.4432 32.7634 54.4612 32.7575 54.4732 32.7457C54.4973 32.728 54.5153 32.7161 54.5393 32.6984C54.5513 32.6925 54.5573 32.6806 54.5693 32.6747C54.5994 32.6511 54.6294 32.6215 54.6594 32.5979C54.6895 32.5683 54.7195 32.5387 54.7496 32.5032C54.7556 32.4973 54.7556 32.4973 54.7616 32.4914C54.7856 32.4618 54.8036 32.4323 54.8276 32.4027C54.8337 32.3909 54.8397 32.3849 54.8457 32.3731C54.8637 32.3495 54.8757 32.3258 54.8877 32.3022C54.8937 32.2903 54.9057 32.2726 54.9117 32.2608C54.9238 32.2371 54.9358 32.2194 54.9418 32.1957C54.9478 32.178 54.9598 32.1602 54.9658 32.1425C54.9718 32.1247 54.9838 32.1011 54.9898 32.0833C54.9959 32.0656 55.0019 32.0478 55.0079 32.0242C55.0079 32.0242 55.0079 32.0242 55.0079 32.0183L55.0679 31.8231C56.3655 27.5591 58.1496 21.7102 48.466 15.3527Z" fill="white"/>
</svg>
