<svg id="Layer_1" data-name="Layer 1" xmlns="http://www.w3.org/2000/svg" xmlns:xlink="http://www.w3.org/1999/xlink" viewBox="0 0 491 276"><defs><style>.cls-1{fill:none;}.cls-2{fill:url(#linear-gradient);}.cls-3{fill:url(#linear-gradient-2);}.cls-4{fill:url(#linear-gradient-3);}.cls-5{fill:url(#linear-gradient-4);}.cls-6{fill:url(#linear-gradient-5);}.cls-7{fill:url(#linear-gradient-6);}.cls-8{fill:url(#linear-gradient-7);}</style><linearGradient id="linear-gradient" x1="-3415.99" y1="9244.95" x2="-3377.6" y2="9263.27" gradientTransform="matrix(1, 0, 0, -1, 3694, 9393.75)" gradientUnits="userSpaceOnUse"><stop offset="0" stop-color="#d34395"/><stop offset="0.35" stop-color="#b63386"/><stop offset="1" stop-color="#823389"/></linearGradient><linearGradient id="linear-gradient-2" x1="-3291.17" y1="9242.2" x2="-3272.77" y2="9265.19" xlink:href="#linear-gradient"/><linearGradient id="linear-gradient-3" x1="-3357.08" y1="9243.4" x2="-3322.74" y2="9264.36" xlink:href="#linear-gradient"/><linearGradient id="linear-gradient-4" x1="-3529.03" y1="9244.95" x2="-3490.64" y2="9263.27" xlink:href="#linear-gradient"/><linearGradient id="linear-gradient-5" x1="-3473.55" y1="9245.89" x2="-3433.39" y2="9262.62" xlink:href="#linear-gradient"/><linearGradient id="linear-gradient-6" x1="-3580.4" y1="9243.4" x2="-3546.06" y2="9264.36" xlink:href="#linear-gradient"/><linearGradient id="linear-gradient-7" x1="-3627.52" y1="9242.2" x2="-3609.13" y2="9265.19" xlink:href="#linear-gradient"/></defs><title>grids</title><rect class="cls-1" width="491" height="276"/><path class="cls-2" d="M293.75,62.18V213.82h13.78V62.18Z"/><path class="cls-3" d="M406.79,109.05V167h13.78v-57.9Z"/><path class="cls-4" d="M350.27,78.72V197.28h13.78V78.72Z"/><path class="cls-5" d="M180.71,62.18V213.82H194.5V62.18Z"/><path class="cls-6" d="M237.23,51.15v173.7H251V51.15Z"/><path class="cls-7" d="M127,78.72V197.28h13.78V78.72Z"/><path class="cls-8" d="M70.43,109.05V167H84.21v-57.9Z"/></svg>