<?xml version="1.0" encoding="utf-8"?>
<!-- Generator: Adobe Illustrator 22.1.0, SVG Export Plug-In . SVG Version: 6.00 Build 0)  -->
<svg version="1.1" id="Layer_1" xmlns="http://www.w3.org/2000/svg" xmlns:xlink="http://www.w3.org/1999/xlink" x="0px" y="0px"
	 viewBox="0 0 32 32" style="enable-background:new 0 0 32 32;" xml:space="preserve">
<style type="text/css">
	.st0{fill:#A0A0A0;}
</style>
<title>Asset 1</title>
<g id="Layer_2_1_">
	<g id="Medium">
		<g id="Medium-2">
			<path class="st0" d="M32,32H0V0h32V32z M18,24.3h8.6c-0.1-0.2-0.2-0.4-0.3-0.5c-0.5-0.5-0.9-0.9-1.4-1.4
				c-0.1-0.2-0.2-0.4-0.3-0.6c0-4,0-8,0-12c0-0.2,0.1-0.4,0.3-0.6c0.5-0.5,1-0.9,1.4-1.4c0.1-0.2,0.2-0.3,0.3-0.5c-2,0-3.8,0-5.6,0
				c-0.3,0-0.5,0.1-0.6,0.4c-1.3,3.3-2.6,6.5-3.9,9.7l-0.2,0.4l-0.2-0.5l-4.4-9.7c-0.1-0.2-0.2-0.3-0.4-0.3H5.6H5.3
				c0.1,0.2,0.2,0.4,0.3,0.6c0.6,0.7,1.2,1.4,1.8,2.1c0.2,0.3,0.3,0.6,0.3,0.9c0,3.1,0,6.2,0,9.3c0,0.4-0.1,0.9-0.4,1.2
				c-0.7,0.8-1.3,1.6-1.9,2.4C5.2,23.8,5.1,24,5,24.2h6.5c-0.1-0.2-0.1-0.4-0.3-0.6c-0.7-0.8-1.4-1.6-2-2.5C9.1,20.9,9,20.6,9,20.3
				c0-2.6,0-5.2,0-7.8c0-0.1,0-0.2,0-0.3c0.1,0.2,0.2,0.3,0.2,0.5l5.2,11.3c0.1,0.2,0.3,0.4,0.5,0.4c0.3,0,0.4-0.2,0.4-0.4l3.6-9.2
				l1-2.6c0,0.1,0,0.2,0,0.2c0,3.2,0,6.3,0,9.5c0,0.2-0.1,0.4-0.3,0.5c-0.5,0.5-1,0.9-1.4,1.4C18.2,23.9,18.1,24.1,18,24.3z"/>
		</g>
	</g>
</g>
</svg>
