<svg width="113" height="91" viewBox="0 0 113 91" xmlns="http://www.w3.org/2000/svg">
    <path d="M13.3996 19.2345C13.54 17.8429 13.011 16.4675 11.9753 15.5308L1.42437 2.77952V0.874756H34.1849L59.507 56.589L81.7694 0.874756H113V2.77952L103.979 11.4568C103.201 12.0515 102.815 13.029 102.977 13.9964V77.7531C102.815 78.7205 103.201 79.698 103.979 80.2927L112.789 88.97V90.8748H68.4753V88.97L77.6018 80.0811C78.4986 79.1816 78.4986 78.9171 78.4986 77.5414V26.007L53.1237 90.6631H49.6947L20.1522 26.007V69.3404C19.9059 71.1622 20.509 72.9964 21.7876 74.3139L33.6573 88.7583V90.6631H0V88.7583L11.8697 74.3139C13.139 72.9942 13.707 71.1479 13.3996 69.3404V19.2345Z" />
</svg>