<svg width="116" height="95" viewBox="0 0 116 95" xmlns="http://www.w3.org/2000/svg">
    <path d="M36.406 94.2383C80.1396 94.2383 104.07 57.9714 104.07 26.5741C104.07 25.5538 104.07 24.5335 104.024 23.5132C108.662 20.174 112.696 15.9537 115.896 11.1769C111.63 13.0783 107.038 14.3305 102.215 14.9334C107.131 12.0117 110.888 7.32758 112.696 1.76233C108.105 4.49858 103.004 6.44642 97.5774 7.51309C93.218 2.87538 87.0498 0 80.2324 0C67.1077 0 56.4409 10.6667 56.4409 23.7915C56.4409 25.6465 56.6728 27.4552 57.0438 29.2176C37.2872 28.2437 19.7566 18.7364 8.02324 4.35945C5.98265 7.88411 4.82322 11.9653 4.82322 16.3247C4.82322 24.5799 9.04354 31.8611 15.3972 36.1278C11.5015 35.9886 7.83773 34.922 4.63771 33.1596C4.63771 33.2524 4.63771 33.3451 4.63771 33.4843C4.63771 44.9858 12.8465 54.6322 23.6987 56.812C21.7045 57.3685 19.6175 57.6467 17.4378 57.6467C15.9073 57.6467 14.4233 57.5076 12.9856 57.2294C16.0001 66.6903 24.8118 73.5541 35.2002 73.7396C27.0379 80.1396 16.7885 83.9426 5.65801 83.9426C3.75655 83.9426 1.85508 83.8498 0 83.6179C10.4812 90.2962 23.003 94.2383 36.406 94.2383Z"/>
</svg>
