<?xml version="1.0" encoding="utf-8"?>
<!-- Generator: Adobe Illustrator 22.1.0, SVG Export Plug-In . SVG Version: 6.00 Build 0)  -->
<svg version="1.1" id="Layer_1" xmlns="http://www.w3.org/2000/svg" xmlns:xlink="http://www.w3.org/1999/xlink" x="0px" y="0px"
	 viewBox="0 0 31 25.2" style="enable-background:new 0 0 31 25.2;" xml:space="preserve">
<style type="text/css">
	.st0{fill:#A0A0A0;}
</style>
<title>Asset 2</title>
<g id="Layer_2_1_">
	<g id="Twitter">
		<path class="st0" d="M9.8,25.2c11.7,0,18.1-9.7,18.1-18.1c0-0.3,0-0.6,0-0.8c1.2-0.9,2.3-2,3.1-3.3c-1.2,0.5-2.4,0.9-3.6,1
			c1.3-0.8,2.3-2.1,2.8-3.5c-1.2,0.7-2.6,1.3-4,1.5c-2.4-2.6-6.4-2.7-9-0.3c-1.7,1.6-2.4,3.9-1.9,6.1C10.2,7.6,5.4,5.1,2.2,1.2
			c-1.7,2.9-0.8,6.6,2,8.5c-1,0-2-0.3-2.9-0.8c0,0,0,0.1,0,0.1c0,3,2.1,5.6,5.1,6.2c-0.5,0.1-1.1,0.2-1.7,0.2c-0.4,0-0.8,0-1.2-0.1
			c0.8,2.6,3.2,4.3,5.9,4.4c-2.3,1.8-5,2.7-7.9,2.7c-0.5,0-1,0-1.5-0.1C2.9,24.2,6.3,25.2,9.8,25.2"/>
	</g>
</g>
</svg>
