<svg id="Layer_1" data-name="Layer 1" xmlns="http://www.w3.org/2000/svg" xmlns:xlink="http://www.w3.org/1999/xlink" viewBox="0 0 20.38 29.24"><defs><style>.cls-1{fill:none;}.cls-2{clip-path:url(#clip-path);}.cls-3{fill:#dadada;}.cls-4{fill-opacity:0;}.cls-5{fill:#818181;}</style><clipPath id="clip-path" transform="translate(-490.06 -486.5)"><path class="cls-1" d="M500.05,482.69a14.5,14.5,0,0,0-14.5,14.5c0,8,6.42,20.63,14.43,20.63s14.51-12.62,14.51-20.62a14.45,14.45,0,0,0-14.44-14.5"/></clipPath></defs><title>Untitled-1</title><g class="cls-2"><path class="cls-3" d="M500.25,486.5a10.19,10.19,0,1,1-10.19,10.19A10.19,10.19,0,0,1,500.25,486.5Z" transform="translate(-490.06 -486.5)"/><path class="cls-3" d="M504.8,511h-9.43l4.72,4.72Z" transform="translate(-490.06 -486.5)"/><path class="cls-4" d="M506.05,492.69,497.78,501l-4-4" transform="translate(-490.06 -486.5)"/><polygon class="cls-5" points="7.72 16.59 2.63 11.49 4.75 9.37 7.72 12.34 14.94 5.13 17.06 7.25 7.72 16.59"/></g></svg>