<svg width="16" height="16" viewBox="0 0 16 16" xmlns="http://www.w3.org/2000/svg"><path d="M15 9.49a6.3 6.3 0 0 1-.9 3.28 6.72 6.72 0 0 1-2.33 2.34c-.48.27-1 .5-1.56.66a6.34 6.34 0 0 1-5.02-.66 6.73 6.73 0 0 1-2.34-2.33 7 7 0 0 1-.66-1.56 5.98 5.98 0 0 1-.23-1.73v-.5h1v.5a5.43 5.43 0 0 0 2.74 4.76 5.23 5.23 0 0 0 2.78.75 5.46 5.46 0 0 0 4.76-2.73A5.2 5.2 0 0 0 14 9.49a5.43 5.43 0 0 0-2.74-4.76 5.22 5.22 0 0 0-2.78-.75H1.9L4.2 6.26l-.7.7L0 3.48 3.49 0l.7.7-2.28 2.28h6.57a6.34 6.34 0 0 1 3.28.9 6.73 6.73 0 0 1 2.35 2.32c.27.48.5 1 .65 1.56.17.56.25 1.14.24 1.73Z"/></svg>
