<svg xmlns="http://www.w3.org/2000/svg" fill="none" viewBox="0 0 1440 604" preserveAspectRatio="YMid slice"><path stroke="#B72762" d="M-115 485S384-176 638 47c255 222 758 699 959 523" stroke-miterlimit="10"/><path stroke="#B12B66" d="M-115 475S58 265 252 124C387 25 533-34 640 53c105 86 249 211 396 321 219 165 441 289 566 186" stroke-miterlimit="10"/><path stroke="#AB2E69" d="M-115 465S61 272 254 133C388 37 533-22 642 60c106 81 252 200 399 308 220 162 437 282 565 181" stroke-miterlimit="10"/><path stroke="#A5326D" d="M-115 455S64 278 257 142C389 48 533-10 643 67c109 76 256 189 403 295 220 159 432 276 565 177" stroke-miterlimit="10"/><path stroke="#9F3670" d="M-115 445S66 285 260 150C390 59 534 1 645 73s259 179 405 282c222 157 429 271 566 174" stroke-miterlimit="10"/><path stroke="#9A3A74" d="M-115 435S69 291 262 159C391 71 534 13 647 80c112 67 262 168 408 269 223 155 424 265 565 170" stroke-miterlimit="10"/><path stroke="#943D77" d="M-115 424l379-256C392 82 534 25 648 87c115 62 267 157 412 256 223 152 420 259 565 166" stroke-miterlimit="10"/><path stroke="#8E417B" d="M-115 414S73 304 267 177C393 93 535 36 650 93c117 58 270 147 415 244 224 149 415 252 564 162" stroke-miterlimit="10"/><path stroke="#88457F" d="M-115 404s191-93 385-219c124-80 265-137 382-85 119 53 273 136 417 230 226 147 411 247 565 159" stroke-miterlimit="10"/><path stroke="#824882" d="M-115 394s193-77 387-200c123-78 263-134 381-88 122 49 277 127 421 218 227 144 407 241 565 155" stroke-miterlimit="10"/><path stroke="#7C4C86" d="M-115 384s196-60 390-181c121-76 261-132 380-90 124 44 280 116 424 205 227 141 402 235 565 150" stroke-miterlimit="10"/><path stroke="#765089" d="M-115 374s198-44 392-162c120-73 259-129 380-92 126 39 283 105 426 192 229 138 399 229 565 146" stroke-miterlimit="10"/><path stroke="#70548D" d="M-115 364s200-27 395-143c118-71 257-127 378-95 129 34 287 95 430 179 230 136 394 224 565 143" stroke-miterlimit="10"/><path stroke="#6A5790" d="M-115 354s203-11 397-125c117-68 255-123 378-96 131 29 290 84 433 166 231 134 390 218 564 139" stroke-miterlimit="10"/><path stroke="#645B94" d="M-115 343s205 6 400-105c115-66 253-121 377-98 133 24 294 73 436 153 231 131 385 211 564 135" stroke-miterlimit="10"/><path stroke="#5F5F98" d="M-115 333s207 23 402-86c114-63 252-119 376-101 136 20 298 63 439 141 233 128 382 205 565 131" stroke-miterlimit="10"/><path stroke="#59629B" d="M-115 323s209 39 405-67c112-61 249-116 375-103 139 14 301 52 442 127 234 126 377 200 564 128" stroke-miterlimit="10"/><path stroke="#53669F" d="M-115 313s212 55 408-48c110-59 247-114 374-106 141 10 304 42 445 115 235 123 373 194 564 123" stroke-miterlimit="10"/><path stroke="#4D6AA2" d="M-115 303s214 72 410-30a810 810 0 01373-107c144 5 309 31 449 102 236 120 368 188 564 119" stroke-miterlimit="10"/><path stroke="#476EA6" d="M-115 293s216 88 413-11a977 977 0 01372-109c146-7 312 20 451 88 238 118 365 182 564 116" stroke-miterlimit="10"/><path stroke="#4171A9" d="M-115 283s218 104 415 8a983 983 0 01372-112c148-6 315 10 454 76 239 114 360 176 564 112" stroke-miterlimit="10"/><path stroke="#3B75AD" d="M-115 273s220 120 418 27c104-50 239-104 370-114 151-11 319-1 458 63 240 111 355 170 564 108" stroke-miterlimit="10"/><path stroke="#3579B1" d="M-115 262s222 137 420 47c102-47 237-102 370-116 153-17 322-13 460 50 242 108 352 164 564 104" stroke-miterlimit="10"/><path stroke="#2F7CB4" d="M-115 252s224 154 423 65c100-44 235-99 368-118 156-21 327-23 464 37 242 106 347 159 564 101" stroke-miterlimit="10"/><path stroke="#2A80B8" d="M-115 242s226 169 425 84c99-42 233-97 368-120 158-27 330-34 467 24 243 103 343 153 564 97" stroke-miterlimit="10"/><path stroke="#2484BB" d="M-115 232s228 186 428 103c97-40 231-95 367-123 160-32 333-44 470 12 244 100 338 146 563 92" stroke-miterlimit="10"/><path stroke="#1E88BF" d="M-115 222s230 201 430 122c96-38 229-93 366-125 163-37 337-55 473-1 246 97 335 140 564 88" stroke-miterlimit="10"/><path stroke="#188BC2" d="M-115 212s232 217 433 140c94-35 226-90 365-126 164-43 341-66 476-15 247 94 330 135 564 85" stroke-miterlimit="10"/><path stroke="#128FC6" d="M-115 202s234 233 436 159c201-73 594-247 843-156 248 91 326 129 563 81" stroke-miterlimit="10"/><path stroke="#B72762" d="M-34 75c194 106 320-197 561 0 175 143 373-4 610 160s197-154 419 0" stroke-width="10" stroke-miterlimit="10"/><path stroke="#B82861" d="M-34 79c191 105 318-198 564 0 175 142 372-3 608 158s198-153 418 0" stroke-width="10" stroke-miterlimit="10"/><path stroke="#B92861" d="M-34 83c188 104 317-199 566-1 176 142 373-1 607 158 235 158 199-153 417-1" stroke-width="10" stroke-miterlimit="10"/><path stroke="#BA2960" d="M-34 88c186 101 316-201 568-2 177 141 373 1 606 156 233 156 200-152 416-1" stroke-width="10" stroke-miterlimit="10"/><path stroke="#BB2960" d="M-34 92c183 100 315-203 570-3 178 140 373 3 604 155 233 153 202-152 417-2" stroke-width="10" stroke-miterlimit="10"/><path stroke="#BC2A5F" d="M-35 96c181 99 315-204 573-3 179 139 373 4 603 154 232 150 203-152 416-3" stroke-width="10" stroke-miterlimit="10"/><path stroke="#BD2B5F" d="M-35 100c178 97 314-205 575-3 180 138 373 5 602 152 231 148 203-151 415-3" stroke-width="10" stroke-miterlimit="10"/><path stroke="#BE2B5E" d="M-35 104c175 96 313-206 578-4 180 138 373 8 600 151 229 146 204-150 414-3" stroke-width="10" stroke-miterlimit="10"/><path stroke="#BF2C5E" d="M-35 108c172 95 311-207 580-4 181 137 373 9 599 150 228 142 205-150 413-4" stroke-width="10" stroke-miterlimit="10"/><path stroke="#C02C5D" d="M-35 113c169 93 310-209 582-5 182 136 373 10 598 148 227 140 206-149 412-4" stroke-width="10" stroke-miterlimit="10"/><path stroke="#C12D5D" d="M-35 117c167 91 309-210 584-6 183 136 374 12 597 147 226 137 207-149 411-4" stroke-width="10" stroke-miterlimit="10"/><path stroke="#C22E5C" d="M-35 121c164 90 308-211 586-6 184 135 374 14 595 146 226 134 209-149 411-5" stroke-width="10" stroke-miterlimit="10"/><path stroke="#C32E5C" d="M-35 125c161 89 307-212 589-7 184 135 373 16 593 145 224 132 210-148 410-5" stroke-width="10" stroke-miterlimit="10"/><path stroke="#C42F5B" d="M-35 129c158 87 306-213 591-7 185 134 373 17 592 143 223 129 211-147 409-5" stroke-width="10" stroke-miterlimit="10"/><path stroke="#C52F5B" d="M-36 134c156 85 305-215 594-8 186 133 374 18 591 142 222 126 212-147 409-6" stroke-width="10" stroke-miterlimit="10"/><path stroke="#C6305A" d="M-36 138c153 84 304-216 596-9 187 133 374 21 590 141 221 124 213-146 408-6" stroke-width="10" stroke-miterlimit="10"/><path stroke="#C7305A" d="M-36 142c151 82 303-217 598-9 188 132 374 22 589 140 220 120 214-147 407-7" stroke-width="10" stroke-miterlimit="10"/><path stroke="#C83159" d="M-36 146c148 81 302-218 600-9 189 131 375 23 587 138 219 118 216-146 407-8" stroke-width="10" stroke-miterlimit="10"/><path stroke="#C93259" d="M-36 150c145 80 300-219 603-10 189 131 374 25 585 137 218 116 217-145 406-7" stroke-width="10" stroke-miterlimit="10"/><path stroke="#CA3258" d="M-36 154c142 78 299-220 605-10 190 130 374 26 584 135 217 113 218-144 405-8" stroke-width="10" stroke-miterlimit="10"/><path stroke="#CB3358" d="M-36 159c139 76 298-222 607-12 191 130 375 29 583 135 216 110 219-144 404-9" stroke-width="10" stroke-miterlimit="10"/><path stroke="#CC3357" d="M-36 163c137 75 297-223 609-12 192 129 375 30 582 133 215 108 220-144 403-9" stroke-width="10" stroke-miterlimit="10"/><path stroke="#CD3457" d="M-36 167c134 73 295-224 611-12 192 128 375 31 581 132 214 104 221-144 402-10" stroke-width="10" stroke-miterlimit="10"/><path stroke="#CE3556" d="M-36 171c131 72 294-225 614-13 192 128 375 33 579 131 213 102 221-143 401-10" stroke-width="10" stroke-miterlimit="10"/><path stroke="#CF3555" d="M-37 175c129 71 294-226 617-13 193 127 375 35 578 129 212 100 222-142 401-10" stroke-width="10" stroke-miterlimit="10"/><path stroke="#D03655" d="M-37 179c126 69 292-227 619-14 194 127 376 37 576 129 212 96 224-142 401-11" stroke-width="10" stroke-miterlimit="10"/><path stroke="#D13654" d="M-37 184c123 67 291-229 621-15 195 127 376 38 575 127 210 94 225-141 400-11" stroke-width="10" stroke-miterlimit="10"/><path stroke="#D23754" d="M-37 188c120 66 290-230 623-15 196 126 376 39 574 125 209 92 226-140 399-11" stroke-width="10" stroke-miterlimit="10"/><path stroke="#D33853" d="M-37 192c118 64 288-231 625-16 197 126 377 41 573 125 208 88 227-141 398-12" stroke-width="10" stroke-miterlimit="10"/><path stroke="#D43853" d="M-37 196c115 63 287-232 628-16 197 125 376 43 571 123 207 86 228-140 397-12" stroke-width="10" stroke-miterlimit="10"/><path stroke="#D53952" d="M-37 200c112 62 286-233 630-16 198 124 376 44 570 121 206 84 229-139 396-12" stroke-width="10" stroke-miterlimit="10"/><path stroke="#D63952" d="M-37 205c109 59 284-235 632-18 198 124 377 46 568 121 206 80 231-139 396-14" stroke-width="10" stroke-miterlimit="10"/><path stroke="#D73A51" d="M-37 209c106 58 283-235 634-18 199 123 377 47 567 119 205 78 232-138 395-14" stroke-width="10" stroke-miterlimit="10"/><path stroke="#D83B51" d="M-37 213c103 57 282-236 636-19 200 123 378 49 566 118 204 75 233-138 395-14" stroke-width="10" stroke-miterlimit="10"/><path stroke="#D93B50" d="M-38 217c102 55 281-237 640-19 200 122 377 50 564 117 203 72 234-138 394-15" stroke-width="10" stroke-miterlimit="10"/><path stroke="#DA3C50" d="M-38 221c99 54 280-238 642-19 201 121 378 51 563 115 202 70 235-137 393-15" stroke-width="10" stroke-miterlimit="10"/><path stroke="#DA3C4F" d="M-38 225c96 53 279-239 644-20 202 121 378 54 562 115 201 66 236-137 392-16" stroke-width="10" stroke-miterlimit="10"/><path stroke="#DB3D4F" d="M-38 229c93 51 277-240 646-20 202 121 379 55 561 113 200 64 237-136 391-16" stroke-width="10" stroke-miterlimit="10"/><path stroke="#DC3D4E" d="M-38 234c90 49 276-242 648-21 203 120 379 56 559 111 200 61 239-135 391-16" stroke-width="10" stroke-miterlimit="10"/><path stroke="#DD3E4E" d="M-38 238c87 48 274-243 650-22 204 120 379 58 558 111 198 58 239-136 390-17" stroke-width="10" stroke-miterlimit="10"/><path stroke="#DE3F4D" d="M-38 242c84 46 273-243 653-22 204 119 379 59 556 109 198 56 240-135 389-17" stroke-width="10" stroke-miterlimit="10"/><path stroke="#DF3F4D" d="M-38 246c82 45 272-244 655-23 205 119 379 61 555 108 196 53 241-134 388-17" stroke-width="10" stroke-miterlimit="10"/><path stroke="#E0404C" d="M-38 250c79 44 270-245 657-23 206 118 380 62 554 107 196 50 242-134 388-18" stroke-width="10" stroke-miterlimit="10"/><path stroke="#E1404C" d="M-39 255c77 41 270-247 660-24 207 117 380 64 553 105 195 47 243-133 387-18" stroke-width="10" stroke-miterlimit="10"/><path stroke="#E2414B" d="M-39 259c74 40 268-248 662-25 207 117 381 65 552 104 194 45 244-132 386-19" stroke-width="10" stroke-miterlimit="10"/><path stroke="#E3424B" d="M-39 263c71 39 267-248 665-25 207 117 380 67 549 103 194 41 246-132 386-19" stroke-width="10" stroke-miterlimit="10"/><path stroke="#E4424A" d="M-39 267c69 37 266-249 667-26 208 117 381 69 548 102 193 39 247-132 385-20" stroke-width="10" stroke-miterlimit="10"/><path stroke="#E5434A" d="M-39 271c66 36 264-250 669-26 209 116 381 70 547 100 192 36 248-131 384-20" stroke-width="10" stroke-miterlimit="10"/><path stroke="#E64349" d="M-39 275c63 35 263-251 671-26 210 115 382 71 546 99 191 33 249-131 383-21" stroke-width="10" stroke-miterlimit="10"/><path stroke="#E74448" d="M-39 280c60 33 261-253 673-28 211 115 382 73 545 98 190 30 250-130 382-21" stroke-width="10" stroke-miterlimit="10"/><path stroke="#E84548" d="M-39 284c57 31 260-253 675-28 211 114 383 74 544 97 189 27 251-130 381-22" stroke-width="10" stroke-miterlimit="10"/><path stroke="#E94547" d="M-39 288c54 30 258-254 678-28 211 113 382 75 541 95 189 24 253-129 382-22" stroke-width="10" stroke-miterlimit="10"/><path stroke="#EA4647" d="M-39 292c51 29 257-255 680-29 212 114 383 77 540 94 188 21 254-129 381-22" stroke-width="10" stroke-miterlimit="10"/><path stroke="#EB4646" d="M-40 296c50 27 257-255 683-29 213 113 383 78 539 93 187 18 255-129 380-23" stroke-width="10" stroke-miterlimit="10"/><path stroke="#EC4746" d="M-40 300c47 26 255-256 685-30 214 113 384 80 538 92 186 15 256-128 379-23" stroke-width="10" stroke-miterlimit="10"/><path stroke="#ED4845" d="M-40 305c44 24 254-258 687-31 214 112 385 80 537 90 185 12 257-127 378-23" stroke-width="10" stroke-miterlimit="10"/><path stroke="#EE4845" d="M-40 309c41 22 252-259 690-31 214 111 384 81 535 89 184 9 258-127 377-24" stroke-width="10" stroke-miterlimit="10"/><path stroke="#EF4944" d="M-40 313c38 21 251-259 692-32 215 111 385 83 534 88 183 6 258-127 376-25" stroke-width="10" stroke-miterlimit="10"/><path stroke="#F04944" d="M-40 317c35 20 249-260 694-32 216 111 385 92 532 86 183-6 260-126 376-25" stroke-width="10" stroke-miterlimit="10"/><path stroke="#F14A43" d="M-40 321c33 18 248-261 696-32 217 110 386 92 531 85 182-10 261-126 375-26" stroke-width="10" stroke-miterlimit="10"/><path stroke="#F24A43" d="M-40 325c30 17 246-261 698-33 217 110 386 94 530 84 181-12 262-125 374-26" stroke-width="10" stroke-miterlimit="10"/><path stroke="#F34B42" d="M-40 330c27 15 245-263 700-34 218 109 386 88 529 82 180-6 263-124 373-26" stroke-width="10" stroke-miterlimit="10"/><path stroke="#F44C42" d="M-41 334c25 13 244-264 704-35 218 109 386 89 527 82 179-10 264-124 373-27" stroke-width="10" stroke-miterlimit="10"/><path stroke="#F54C41" d="M-41 338c22 12 243-264 706-35 219 108 386 90 526 80 178-13 265-124 372-27" stroke-width="10" stroke-miterlimit="10"/><path stroke="#F64D41" d="M-41 342c19 11 241-265 708-35 220 108 387 91 525 78 177-16 266-123 371-27" stroke-width="10" stroke-miterlimit="10"/><path stroke="#F74D40" d="M-41 346c17 9 240-266 710-36a860 860 0 00523 78c177-19 268-123 371-28" stroke-width="10" stroke-miterlimit="10"/><path stroke="#F84E40" d="M-41 351c14 7 238-267 712-37a841 841 0 00522 76c176-22 269-122 370-28" stroke-width="10" stroke-miterlimit="10"/><path stroke="#F94F3F" d="M-41 355c11 6 237-268 715-38a822 822 0 00520 76c175-26 270-122 369-29" stroke-width="10" stroke-miterlimit="10"/><path stroke="#FA4F3F" d="M-41 359c8 4 235-268 717-38a803 803 0 00519 74c173-29 271-121 368-29" stroke-width="10" stroke-miterlimit="10"/><path stroke="#FB503E" d="M-41 363c5 3 233-269 719-38a786 786 0 00518 72c172-32 272-121 367-29" stroke-width="10" stroke-miterlimit="10"/><path stroke="#FC503E" d="M-41 367c2 2 232-270 721-39a769 769 0 00517 72c171-36 273-121 367-31" stroke-width="10" stroke-miterlimit="10"/><path stroke="#FD513D" d="M-41 371s231-270 723-39c524 246 721-117 882 39" stroke-width="10" stroke-miterlimit="10"/><path stroke="#FC503E" d="M-42 367s96-112 296-127c112-9 253 12 428 94 38 18 75 32 110 43 210 69 359 40 477 7 131-38 216-90 295-13" stroke-width="10" stroke-miterlimit="10"/><path stroke="#FB503E" d="M-42 363s96-112 297-125c113-7 253 17 427 98 38 18 75 32 110 42 210 65 359 38 478 7 132-35 215-91 294-15" stroke-width="10" stroke-miterlimit="10"/><path stroke="#FA4F3F" d="M-42 359s96-112 298-122c114-6 253 21 426 101a857 857 0 00589 48c134-33 214-93 294-17" stroke-width="10" stroke-miterlimit="10"/><path stroke="#F94F3F" d="M-43 354s97-112 300-119c115-3 253 25 425 105a917 917 0 00590 46c135-29 213-94 293-18" stroke-width="10" stroke-miterlimit="10"/><path stroke="#F84E40" d="M-43 350s97-112 301-116c116-2 253 29 424 108 38 18 75 30 111 40 211 54 357 30 480 6 136-27 212-97 292-21" stroke-width="10" stroke-miterlimit="10"/><path stroke="#F74D40" d="M-43 346s98-116 302-113c117 2 253 33 423 112 38 17 75 29 111 38 211 51 357 28 482 6 137-25 210-98 290-23" stroke-width="10" stroke-miterlimit="10"/><path stroke="#F64D41" d="M-44 342s99-117 304-111c118 4 253 38 422 116 38 17 75 29 112 37 211 47 356 26 482 6 138-22 209-100 290-25" stroke-width="10" stroke-miterlimit="10"/><path stroke="#F54C41" d="M-44 337s99-111 304-107c120 3 254 42 422 119 38 17 75 28 112 36 211 44 356 24 483 6 139-20 207-102 289-27" stroke-width="10" stroke-miterlimit="10"/><path stroke="#F44C42" d="M-44 333s99-111 305-104c121 4 253 46 421 122 38 17 75 28 112 35 212 41 355 21 484 6 141-17 206-104 288-29" stroke-width="10" stroke-miterlimit="10"/><path stroke="#F34B42" d="M-44 329s99-111 306-102c122 6 254 51 420 126 38 17 76 28 113 34 211 37 354 19 484 6 142-15 205-105 287-31" stroke-width="10" stroke-miterlimit="10"/><path stroke="#F24A43" d="M-45 325s100-112 308-99c123 7 253 54 419 129 38 17 76 27 113 33 212 34 354 17 485 6 143-12 204-107 287-33" stroke-width="10" stroke-miterlimit="10"/><path stroke="#F14A43" d="M-45 320s100-111 309-95c124 9 253 58 418 132 38 17 76 27 113 32 212 31 354 15 486 6 145-10 203-109 286-34" stroke-width="10" stroke-miterlimit="10"/><path stroke="#F04944" d="M-45 316s100-111 309-93c126 11 254 63 418 136 38 17 76 26 114 31 211 28 352 12 486 6 146-7 202-110 285-36" stroke-width="10" stroke-miterlimit="10"/><path stroke="#EF4944" d="M-46 312s102-111 311-90c127 12 254 67 417 139 38 17 76 26 114 30 211 25 352 10 488 6 146-5 200-112 284-38" stroke-width="10" stroke-miterlimit="10"/><path stroke="#EE4845" d="M-46 308s102-111 312-88c128 14 254 72 416 143 38 17 76 26 115 29 211 21 351 8 488 6 147-3 199-114 283-40" stroke-width="10" stroke-miterlimit="10"/><path stroke="#ED4845" d="M-46 303s102-110 313-84c129 16 254 76 415 146 38 17 76 25 115 29 211 17 351 7 489 5 149-3 198-116 282-42" stroke-width="10" stroke-miterlimit="10"/><path stroke="#EC4746" d="M-46 299s102-110 314-81c130 17 254 79 414 150 38 16 76 24 115 27 211 14 350 2 490 5 150 2 197-117 282-44" stroke-width="10" stroke-miterlimit="10"/><path stroke="#EB4646" d="M-47 295s103-110 316-79c131 19 254 84 413 154 38 16 76 24 116 26 211 11 349 0 490 5 151 5 196-119 281-46" stroke-width="10" stroke-miterlimit="10"/><path stroke="#EA4647" d="M-47 291s103-110 317-76c132 21 254 88 412 157 38 16 76 20 116 25 209 27 349-3 491 5 152 7 195-121 280-48" stroke-width="10" stroke-miterlimit="10"/><path stroke="#E94547" d="M-47 286s103-109 318-72c133 22 254 92 411 160 38 16 76 19 116 24 209 25 349-5 492 5 154 10 193-123 279-49" stroke-width="10" stroke-miterlimit="10"/><path stroke="#E84548" d="M-48 282s105-108 319-70c135 24 254 97 411 164 38 16 76 19 117 23 209 22 347-7 492 5 155 12 192-124 279-52" stroke-width="10" stroke-miterlimit="10"/><path stroke="#E74448" d="M-48 278s105-108 320-67c136 26 254 100 410 167 38 16 76 18 117 22 209 19 347-10 494 5 155 15 190-126 277-53" stroke-width="10" stroke-miterlimit="10"/><path stroke="#E64349" d="M-48 273s105-107 321-64c137 28 254 105 409 171 38 16 76 18 117 21 210 17 347-12 495 5 156 17 189-128 276-55" stroke-width="10" stroke-miterlimit="10"/><path stroke="#E5434A" d="M-49 269s106-107 323-61c138 30 254 109 408 174 38 16 76 17 118 20 209 14 345-14 495 5 158 20 188-129 276-57" stroke-width="10" stroke-miterlimit="10"/><path stroke="#E4424A" d="M-49 265s106-107 324-58c139 31 254 113 407 177 38 16 76 17 118 19 210 12 345-17 496 5 159 22 187-131 275-59" stroke-width="10" stroke-miterlimit="10"/><path stroke="#E3424B" d="M-49 261s106-107 325-56c140 33 254 118 406 181 38 16 76 21 118 18 210-12 345-19 497 5 160 24 186-133 274-61" stroke-width="10" stroke-miterlimit="10"/><path stroke="#E2414B" d="M-49 256s106-106 325-52c142 35 255 121 406 185 38 15 76 20 119 17 209-16 344-22 497 4 161 27 185-135 273-63" stroke-width="10" stroke-miterlimit="10"/><path stroke="#E1404C" d="M-50 252s108-106 327-49c143 36 255 125 405 188 38 15 76 19 119 16 209-19 343-25 498 4 163 29 184-136 273-65" stroke-width="10" stroke-miterlimit="10"/><path stroke="#E0404C" d="M-50 248s108-105 328-47c145 39 255 130 404 192 38 15 76 19 119 15 210-22 343-27 500 4 163 32 182-138 271-67" stroke-width="10" stroke-miterlimit="10"/><path stroke="#DF3F4D" d="M-50 244s108-105 329-44c145 40 255 134 403 195 38 16 76 19 120 14 209-25 342-29 500 4 164 34 181-140 270-69" stroke-width="10" stroke-miterlimit="10"/><path stroke="#DE3F4D" d="M-51 239s109-104 331-41c146 42 255 139 402 199 38 15 76 18 120 13 209-27 342-32 501 4 165 36 180-142 269-71" stroke-width="10" stroke-miterlimit="10"/><path stroke="#DD3E4E" d="M-51 235s109-104 332-38c147 44 255 142 401 202 38 16 77 18 121 12 208-30 340-34 501 4 167 39 179-143 269-72" stroke-width="10" stroke-miterlimit="10"/><path stroke="#DC3D4E" d="M-51 231s109-104 333-35c148 45 255 146 400 205 38 16 77 18 121 11 209-33 340-36 502 4 168 41 178-145 268-74" stroke-width="10" stroke-miterlimit="10"/><path stroke="#DB3D4F" d="M-51 227s109-103 334-33c150 48 254 151 399 209 38 16 77 18 121 10 209-35 340-39 503 3 169 44 176-146 267-75" stroke-width="10" stroke-miterlimit="10"/><path stroke="#DA3C4F" d="M-52 222s110-102 335-29c151 49 255 155 399 212 38 15 77 17 121 9 209-38 339-41 504 3 170 47 175-148 267-77" stroke-width="10" stroke-miterlimit="10"/><path stroke="#DA3C50" d="M-52 218s111-102 336-26c152 51 255 158 398 215 38 16 77 17 122 8 208-41 338-44 504 3 172 49 174-149 266-79" stroke-width="10" stroke-miterlimit="10"/><path stroke="#D93B50" d="M-52 214s111-102 337-24c153 53 255 163 397 220 38 15 77 16 122 6 208-43 338-46 506 3 172 52 172-151 264-81" stroke-width="10" stroke-miterlimit="10"/><path stroke="#D83B51" d="M-53 210s112-102 339-21c154 55 255 167 396 223 38 15 77 16 123 5 208-46 337-49 506 3 173 54 171-153 264-83" stroke-width="10" stroke-miterlimit="10"/><path stroke="#D73A51" d="M-53 205s112-100 340-17c155 56 255 171 395 226 38 15 77 15 123 4 208-49 337-51 507 3 175 56 170-155 263-85" stroke-width="10" stroke-miterlimit="10"/><path stroke="#D63952" d="M-53 201s112-100 341-15c156 58 255 176 394 230 38 15 77 15 123 4 208-52 336-54 508 2 176 59 169-156 262-87" stroke-width="10" stroke-miterlimit="10"/><path stroke="#D53952" d="M-53 197S59 97 288 185c158 60 256 179 394 233 38 15 77 15 124 3 207-54 335-57 508 3 177 60 168-159 261-89" stroke-width="10" stroke-miterlimit="10"/><path stroke="#D43853" d="M-54 193S59 93 289 183c159 62 256 184 393 237 38 15 77 15 124 2 208-57 335-59 509 2 178 63 167-160 261-90" stroke-width="10" stroke-miterlimit="10"/><path stroke="#D33853" d="M-54 188s113-98 344-6c160 64 256 188 392 240 38 15 77 14 124 1 208-60 334-62 510 2 180 66 166-162 260-92" stroke-width="10" stroke-miterlimit="10"/><path stroke="#D23754" d="M-54 184s113-98 345-3c161 65 256 192 391 243 38 15 77 14 125 0 207-62 333-64 510 2 181 68 165-163 259-94" stroke-width="10" stroke-miterlimit="10"/><path stroke="#D13654" d="M-55 180s114-98 347-1c162 68 256 197 390 247 38 15 77 14 125-1 208-65 333-66 511 2 182 70 164-165 259-96" stroke-width="10" stroke-miterlimit="10"/><path stroke="#D03655" d="M-55 176s114-97 348 2c163 70 256 200 389 250 38 15 77 14 125-2 208-67 333-69 513 2 183 73 161-167 257-98" stroke-width="10" stroke-miterlimit="10"/><path stroke="#CF3555" d="M-55 171s114-96 349 6c164 71 256 204 388 254 38 14 77 12 126-4 208-70 332-71 513 2 184 75 161-168 256-100" stroke-width="10" stroke-miterlimit="10"/><path stroke="#CE3556" d="M-55 167s114-96 349 8c166 73 256 209 388 258 38 14 77 12 126-5 208-72 331-74 514 2 185 77 159-170 256-102" stroke-width="10" stroke-miterlimit="10"/><path stroke="#CD3457" d="M-56 163s115-96 351 11c167 75 256 212 387 261 37 14 77 12 126-6 208-75 331-76 515 2 187 80 158-172 255-104" stroke-width="10" stroke-miterlimit="10"/><path stroke="#CC3357" d="M-56 158s115-94 352 14c168 77 256 217 386 265 38 14 78 12 127-7 207-77 330-78 515 2 188 82 157-174 254-106" stroke-width="10" stroke-miterlimit="10"/><path stroke="#CB3358" d="M-56 154s115-94 353 17c169 79 256 221 385 268 38 14 78 12 127-8 208-80 330-81 516 2 189 85 156-175 253-108" stroke-width="10" stroke-miterlimit="10"/><path stroke="#CA3258" d="M-57 150s116-94 355 20c170 81 256 225 384 271 37 14 78 11 128-8 207-83 328-84 516 1 191 87 155-177 253-109" stroke-width="10" stroke-miterlimit="10"/><path stroke="#C93259" d="M-57 146s116-93 356 22c171 83 256 230 383 275 37 14 78 11 128-9 208-85 328-87 517 1 192 89 154-179 252-111" stroke-width="10" stroke-miterlimit="10"/><path stroke="#C83159" d="M-57 141s116-92 357 26c172 85 256 233 382 278 38 14 78 11 128-10 208-88 328-89 519 1 192 92 152-181 250-113" stroke-width="10" stroke-miterlimit="10"/><path stroke="#C7305A" d="M-57 137s116-92 357 29c174 86 257 237 382 281 38 14 78 11 129-11 208-90 327-91 519 1 193 94 151-182 250-115" stroke-width="10" stroke-miterlimit="10"/><path stroke="#C6305A" d="M-58 133s117-92 359 31c175 89 257 242 381 285 37 14 78 11 129-12 208-93 326-94 520 1 195 96 150-184 249-117" stroke-width="10" stroke-miterlimit="10"/><path stroke="#C52F5B" d="M-58 129s117-91 360 34c175 90 257 246 380 289 37 13 78 9 129-14 209-95 326-96 521 1 196 99 149-186 248-119" stroke-width="10" stroke-miterlimit="10"/><path stroke="#C42F5B" d="M-58 124s117-90 361 37c176 93 257 250 379 293 37 13 78 9 130-15 208-98 325-99 521 1 197 101 148-187 247-121" stroke-width="10" stroke-miterlimit="10"/><path stroke="#C32E5C" d="M-59 120s118-90 363 40c177 94 257 254 378 296 37 13 78 9 130-16 209-100 325-101 522 1 199 103 147-189 247-123" stroke-width="10" stroke-miterlimit="10"/><path stroke="#C22E5C" d="M-59 116s118-89 364 43c178 96 257 258 377 299 37 13 79 9 130-17 209-103 325-104 523 1 200 106 145-191 246-125" stroke-width="10" stroke-miterlimit="10"/><path stroke="#C12D5D" d="M-59 112s118-89 364 45c180 98 258 262 377 303 37 13 79 9 131-18 209-105 324-106 523 1 201 108 145-193 245-127" stroke-width="10" stroke-miterlimit="10"/><path stroke="#C02C5D" d="M-59 107s118-88 365 49c181 100 258 266 376 306 37 13 79 8 131-19 209-107 323-108 525 1 202 110 142-194 244-128" stroke-width="10" stroke-miterlimit="10"/><path stroke="#BF2C5E" d="M-60 103s119-87 367 52c182 101 258 270 375 309 37 13 79 8 131-20 210-110 323-111 526 1 203 113 141-196 243-131" stroke-width="10" stroke-miterlimit="10"/><path stroke="#BE2B5E" d="M-60 99s119-87 368 54c183 104 258 275 374 313 37 13 79 8 132-20 209-113 322-114 526 0 204 115 140-198 242-132" stroke-width="10" stroke-miterlimit="10"/><path stroke="#BD2B5F" d="M-60 95S59 8 309 152c184 105 258 278 373 316 37 13 79 8 132-21 210-116 322-117 527 0 206 117 139-200 241-134" stroke-width="10" stroke-miterlimit="10"/><path stroke="#BC2A5F" d="M-61 90S59 5 310 151c185 107 258 282 372 320 37 12 79 7 133-23 210-118 321-119 527 0 207 120 138-201 241-136" stroke-width="10" stroke-miterlimit="10"/><path stroke="#BB2960" d="M-61 86S59 1 311 149c185 109 257 287 371 324 37 12 79 6 133-24 210-120 320-122 528 0s137-203 240-138" stroke-width="10" stroke-miterlimit="10"/><path stroke="#BA2960" d="M-61 82S59-3 312 148c186 111 257 290 370 327 37 12 80 6 133-25 211-123 320-124 529 0 210 124 136-205 239-140" stroke-width="10" stroke-miterlimit="10"/><path stroke="#B92861" d="M-61 78S59-6 312 146c188 114 258 295 370 331 37 12 80 6 134-26 210-125 319-126 529 0 211 127 135-207 239-142" stroke-width="10" stroke-miterlimit="10"/><path stroke="#B82861" d="M-62 73s121-83 375 72c189 115 258 299 369 334 37 12 80 6 134-27 211-127 319-129 530 0 212 129 134-208 238-144" stroke-width="10" stroke-miterlimit="10"/><path stroke="#B72762" d="M-62 69s121-83 376 75c255 157 291 439 502 309 212-130 319-131 532 0s132-210 236-146" stroke-width="10" stroke-miterlimit="10"/></svg>
