<svg xmlns="http://www.w3.org/2000/svg" class="icon icon-screen" width="22" height="20" viewBox="0 0 22 20">
	<path d="M18.6825 0C19.9361 0 20.9621 0.973832 21.0455 2.20621L21.0509 2.36837V13.4231C21.0509 14.6766 20.0771 15.7027 18.8447 15.786L18.6825 15.7915L14.2091 15.7912V18.4206L16.0523 18.4211C16.4883 18.4211 16.8417 18.7745 16.8417 19.2105C16.8417 19.6102 16.5447 19.9405 16.1594 19.9928L16.0523 20H4.99988C4.56388 20 4.21043 19.6465 4.21043 19.2105C4.21043 18.8109 4.50743 18.4806 4.89276 18.4283L4.99988 18.4211L6.84089 18.4206V15.7912L2.36837 15.7915C1.11485 15.7915 0.0887928 14.8177 0.00546392 13.5853L0 13.4231V2.36837C0 1.11485 0.973832 0.0887928 2.20621 0.00546393L2.36837 0H18.6825ZM12.6292 15.7912H8.41875L8.4198 18.4211H12.6302L12.6292 15.7912ZM18.6825 1.57891H2.36837C1.9687 1.57891 1.63839 1.87591 1.58612 2.26124L1.57891 2.36837V13.4231C1.57891 13.8228 1.87591 14.1531 2.26124 14.2054L2.36837 14.2126H18.6825C19.0822 14.2126 19.4125 13.9156 19.4648 13.5303L19.472 13.4231V2.36837C19.472 1.9687 19.175 1.63839 18.7897 1.58612L18.6825 1.57891ZM17.3713 3.15782C17.6297 3.15782 17.8445 3.344 17.8891 3.58952L17.8976 3.68413V12.1076C17.8976 12.3659 17.7114 12.5808 17.4659 12.6254L17.3713 12.6339H7.89332C7.63495 12.6339 7.42006 12.4477 7.3755 12.2022L7.36702 12.1076V3.68413C7.36702 3.42575 7.5532 3.21086 7.79872 3.1663L7.89332 3.15782H17.3713ZM5.78742 3.15782C6.0458 3.15782 6.26068 3.344 6.30525 3.58952L6.31373 3.68413V12.1076C6.31373 12.3659 6.12755 12.5808 5.88203 12.6254L5.78742 12.6339H3.68228C3.42391 12.6339 3.20902 12.4477 3.16446 12.2022L3.15598 12.1076V3.68413C3.15598 3.42575 3.34216 3.21086 3.58768 3.1663L3.68228 3.15782H5.78742Z"/>
</svg>
